<?xml version="1.0" encoding="utf-8"?>
<!-- Generator: Adobe Illustrator 27.8.1, SVG Export Plug-In . SVG Version: 6.00 Build 0)  -->
<svg version="1.1" id="Layer_1" xmlns="http://www.w3.org/2000/svg" xmlns:xlink="http://www.w3.org/1999/xlink" x="0px" y="0px"
	 viewBox="0 0 94.2 100" style="enable-background:new 0 0 94.2 100;" xml:space="preserve">
<style type="text/css">
	.st0{fill:#FBC7B8;}
	.st1{fill:none;}
</style>
<g>
	<path class="st0" d="M46.7,64.9l9.6-8.6c0.2-0.2,0.5-0.5,0.7-0.8h30.9c1.7,0,3.1-1.4,3.1-3.1V4.2c0-1.7-1.4-3.1-3.1-3.1H23.4
		c-0.7,0-1.2,0.5-1.2,1.2v18.3c-7,0.6-12.4,6.5-12.4,13.5c0,7.5,6.1,13.6,13.6,13.6c7.5,0,13.6-6.1,13.6-13.6
		c0-7-5.4-12.9-12.4-13.5V3.5h63.4c0.4,0,0.7,0.3,0.7,0.7v48.3c0,0.4-0.3,0.7-0.7,0.7H58.3c0.2-0.6,0.3-1.2,0.3-1.7
		c0-1.9-0.7-3.7-2.1-4.9c-0.5-0.5-1.1-0.9-1.7-1.1l6-18.2c0.2-0.6-0.2-1.3-0.8-1.5c-0.1,0-0.3-0.1-0.4-0.1c-0.5,0-1,0.3-1.1,0.8
		l-6,18.3c-0.2,0-0.4,0-0.5,0c-1.7,0-3.4,0.7-4.6,1.8l-5.5,5.3l-26.5-0.1c-5.9,0-10.9,4.2-11.9,10L0.4,78.1c-0.2,1.4,0.1,2.9,1.1,4
		c0.9,1.1,2.3,1.8,3.7,1.8h25.1c2.7,0,4.9-2.2,4.9-4.9V66.8c0-0.9,0.7-1.6,1.5-1.6h9.2C46.2,65.2,46.5,65.1,46.7,64.9"/>
	<path class="st0" d="M33.7,13.5h20.2c0.7,0,1.2-0.5,1.2-1.2c0-0.7-0.5-1.2-1.2-1.2H33.7c-0.7,0-1.2,0.5-1.2,1.2
		C32.5,13,33.1,13.5,33.7,13.5"/>
	<path class="st0" d="M33.7,20.9h47.4c0.7,0,1.2-0.5,1.2-1.2c0-0.7-0.5-1.2-1.2-1.2H33.7c-0.7,0-1.2,0.5-1.2,1.2
		C32.5,20.3,33.1,20.9,33.7,20.9"/>
	<path class="st0" d="M81.2,26.2H67.8c-0.7,0-1.2,0.5-1.2,1.2c0,0.7,0.5,1.2,1.2,1.2h13.3c0.7,0,1.2-0.5,1.2-1.2
		C82.4,26.8,81.8,26.2,81.2,26.2"/>
	<path class="st0" d="M81.2,36.2h-17c-0.7,0-1.2,0.5-1.2,1.2c0,0.7,0.5,1.2,1.2,1.2h17c0.7,0,1.2-0.5,1.2-1.2
		C82.4,36.7,81.8,36.2,81.2,36.2"/>
	<path class="st0" d="M46.8,78.9c0,3.7,3,6.7,6.7,6.7c3.7,0,6.7-3,6.7-6.7s-3-6.7-6.7-6.7C49.8,72.2,46.8,75.2,46.8,78.9"/>
	<path class="st0" d="M57.8,87.1h-8.7c-4,0-7.2,3.3-7.2,7.2v3.8c0,0.4,0.3,0.7,0.7,0.7h21.7c0.4,0,0.7-0.4,0.7-0.7v-3.8
		C65,90.3,61.8,87.1,57.8,87.1"/>
	<path class="st0" d="M82.4,72.2c-3.7,0-6.7,3-6.7,6.7s3,6.7,6.7,6.7c3.7,0,6.7-3,6.7-6.7S86.1,72.2,82.4,72.2"/>
	<path class="st0" d="M86.6,87.1h-8.7c-4,0-7.2,3.3-7.2,7.2v3.8c0,0.4,0.3,0.7,0.7,0.7h21.7c0.4,0,0.7-0.4,0.7-0.7v-3.8
		C93.9,90.3,90.6,87.1,86.6,87.1"/>
	<rect x="0.4" y="1.1" class="st1" width="93.5" height="97.7"/>
</g>
</svg>
