<?xml version="1.0" encoding="utf-8"?>
<!-- Generator: Adobe Illustrator 27.2.0, SVG Export Plug-In . SVG Version: 6.00 Build 0)  -->
<svg version="1.1" id="Layer_1" xmlns="http://www.w3.org/2000/svg" xmlns:xlink="http://www.w3.org/1999/xlink" x="0px" y="0px"
	 viewBox="0 0 63.8 148.8" style="enable-background:new 0 0 63.8 148.8;" xml:space="preserve">
<style type="text/css">
	.st0{fill:#FFFFFF;stroke:#FFFFFF;stroke-miterlimit:10;}
	.st1{fill:none;stroke:#FFFFFF;stroke-miterlimit:10;}
</style>
<g>
	<g>
		<path class="st0" d="M45.4,137.8c2.8-0.9,4.8-0.7,6.2-0.5c0.5,0.1,0.9,0.2,1.3,0.4c-0.3-0.2-0.7-0.5-1-0.8c-1-1-2.1-2.7-2.5-5.5
			c-0.2-1.6,0-3.7,0.2-5.3c0.2-1.6,0.5-2.8,0.5-2.8s0.3,0.3,0.7,0.9c0.4,0.6,1,1.5,1.6,2.5c0.6,1,1.2,2.2,1.7,3.6
			c0.5,1.3,0.9,2.7,1,4.2c0.1,1.4-0.2,2.3-0.6,2.8c-0.4,0.6-0.8,0.8-0.8,0.8s0.1,0.5-0.1,1.1c-0.2,0.6-0.7,1.5-2,2.1
			c-1.3,0.7-2.9,1.1-4.5,1.3c-1.6,0.1-3.2,0-4.6-0.2c-1.4-0.2-2.7-0.6-3.6-0.9c-0.9-0.3-1.4-0.5-1.4-0.5s1.2-0.6,2.7-1.3
			C41.9,139.2,43.8,138.3,45.4,137.8z"/>
		<path class="st0" d="M27.1,128.8c1.7-0.4,3.7-0.8,5.4-0.9c2.9-0.3,4.8,0.3,6.2,0.8c0.5,0.2,0.9,0.4,1.2,0.6
			c-0.3-0.3-0.5-0.6-0.8-1c-0.8-1.1-1.5-3.1-1.3-5.8c0.1-1.7,0.7-3.6,1.3-5.1c0.3-0.8,0.5-1.4,0.7-1.9c0.2-0.5,0.3-0.7,0.3-0.7
			s0.2,0.4,0.5,1.1c0.3,0.7,0.7,1.6,1,2.8c0.4,1.1,0.7,2.4,1,3.8c0.3,1.4,0.4,2.8,0.2,4.3c-0.2,1.4-0.7,2.2-1.1,2.7
			c-0.5,0.5-0.9,0.6-0.9,0.6s0,0.5-0.4,1c-0.3,0.6-1,1.3-2.3,1.7c-1.4,0.4-3,0.5-4.6,0.3c-1.6-0.2-3.1-0.6-4.5-1.1
			c-1.3-0.5-2.5-1.1-3.3-1.6c-0.4-0.2-0.7-0.4-1-0.6c-0.2-0.1-0.3-0.2-0.3-0.2s0.3-0.1,0.8-0.2C25.6,129.2,26.3,129,27.1,128.8z"/>
		<path class="st0" d="M22,115.5c1.4,0.2,2.6,0.5,3.6,0.8c1,0.4,1.7,0.8,2.3,1.2c0.4,0.3,0.8,0.6,1,0.8c-0.2-0.3-0.4-0.7-0.6-1.2
			c-0.3-0.6-0.5-1.5-0.5-2.5c0-1,0-2.2,0.4-3.5c0.5-1.6,1.4-3.4,2.2-4.8c0.8-1.4,1.6-2.4,1.6-2.4s0.1,0.4,0.2,1.2
			c0.2,0.7,0.3,1.7,0.4,2.9c0.1,1.2,0.2,2.5,0.2,3.9c-0.1,1.4-0.2,2.9-0.7,4.3c-0.4,1.3-1.1,2-1.7,2.4c-0.6,0.4-1,0.4-1,0.4
			s-0.1,0.5-0.6,1c-0.5,0.5-1.2,1-2.6,1.2c-1.5,0.1-3.1-0.1-4.6-0.6c-1.5-0.5-2.9-1.2-4.2-2c-1.2-0.8-2.2-1.6-2.9-2.2
			c-0.7-0.6-1.1-1-1.1-1s1.3-0.1,3-0.1C18.2,115.3,20.3,115.3,22,115.5z"/>
		<path class="st0" d="M14.2,101.3c1.4,0.5,2.5,1,3.3,1.5c0.9,0.5,1.5,1.1,2,1.6c0.4,0.4,0.6,0.7,0.8,1c-0.1-0.3-0.3-0.7-0.4-1.3
			c-0.1-0.7-0.2-1.6,0-2.6c0.1-1,0.5-2.1,1.1-3.4c0.8-1.5,2-3,3.1-4.2c1.1-1.2,2-2,2-2s0,0.4,0,1.2c0,0.7,0,1.7-0.1,2.9
			c-0.2,2.4-0.7,5.4-2.2,7.9c-0.7,1.2-1.5,1.7-2.1,2c-0.6,0.2-1.1,0.2-1.1,0.2s-0.2,0.4-0.7,0.8c-0.5,0.4-1.4,0.8-2.8,0.6
			c-3-0.3-6-2.3-8.1-4.3c-1-1-1.9-2-2.5-2.7c-0.6-0.7-0.9-1.2-0.9-1.2s1.3,0.2,2.9,0.5C10.4,100.3,12.6,100.7,14.2,101.3z"/>
		<path class="st0" d="M9.3,85.8c2.5,1.4,3.9,3,4.6,4.2c0.3,0.5,0.5,0.9,0.6,1.2c-0.1-0.3-0.1-0.8-0.1-1.3c0.1-1.4,0.5-3.4,2.3-5.6
			c1-1.3,2.6-2.6,3.9-3.5c1.3-0.9,2.4-1.6,2.4-1.6s-0.1,0.4-0.2,1.2c-0.2,0.7-0.4,1.7-0.7,2.9c-0.2,0.6-0.4,1.2-0.6,1.8
			c-0.2,0.6-0.5,1.3-0.8,1.9c-0.6,1.3-1.4,2.6-2.3,3.7c-0.9,1-1.8,1.4-2.4,1.5c-0.7,0.1-1.1,0-1.1,0s-0.3,0.4-0.9,0.7
			c-0.6,0.3-1.6,0.5-2.9,0.1c-1.5-0.5-2.8-1.3-4-2.3c-0.6-0.5-1.2-1.1-1.7-1.7c-0.5-0.6-0.9-1.2-1.4-1.8c-0.8-1.2-1.5-2.3-1.9-3.2
			c-0.4-0.8-0.6-1.4-0.6-1.4s1.2,0.4,2.8,1.1C5.9,84.1,7.8,84.9,9.3,85.8z"/>
		<path class="st0" d="M7.7,69.6c1.1,1,1.9,1.9,2.5,2.7c0.6,0.8,1,1.6,1.2,2.3c0.2,0.5,0.3,0.9,0.3,1.3c0-0.4,0-0.8,0.2-1.3
			c0.2-0.7,0.4-1.5,1-2.4c0.5-0.9,1.3-1.8,2.4-2.6c1.3-1,3.1-2,4.6-2.6c1.5-0.7,2.6-1,2.6-1s-0.1,0.4-0.4,1.1
			c-0.3,0.7-0.8,1.6-1.3,2.6c-1.1,2.1-2.7,4.7-5.1,6.5c-1.1,0.8-2,1-2.7,1c-0.7,0-1.1-0.3-1.1-0.3s-0.3,0.3-1,0.5
			c-0.7,0.2-1.6,0.2-2.9-0.5c-2.6-1.5-4.6-4.4-5.7-7.1c-0.6-1.3-0.9-2.6-1.2-3.5c-0.2-0.9-0.3-1.5-0.3-1.5s1.1,0.7,2.5,1.6
			C4.6,67.3,6.3,68.5,7.7,69.6z"/>
		<path class="st0" d="M9.3,53.4c0.9,1.2,1.5,2.2,1.9,3.2c0.4,0.9,0.6,1.8,0.7,2.5c0.1,0.5,0.1,1,0.1,1.3c0.1-0.3,0.2-0.8,0.4-1.3
			c0.3-0.6,0.7-1.4,1.4-2.1c0.7-0.7,1.6-1.5,2.9-2.1c1.4-0.8,3.5-1.3,5-1.7c1.6-0.3,2.8-0.5,2.8-0.5s-0.2,0.4-0.6,1
			c-0.4,0.6-1.1,1.4-1.8,2.3c-0.7,0.9-1.7,1.9-2.7,2.8c-1,0.9-2.2,1.8-3.6,2.4c-1.2,0.6-2.2,0.6-2.8,0.4c-0.7-0.2-1-0.5-1-0.5
			s-0.4,0.2-1.1,0.2c-0.7,0-1.6-0.2-2.7-1.1c-1.1-1-2-2.3-2.7-3.7c-0.7-1.4-1.1-3-1.4-4.4c-0.3-1.4-0.4-2.7-0.4-3.6
			c0-0.9,0-1.5,0-1.5s0.9,0.9,2.1,2.1C6.8,50.5,8.2,52,9.3,53.4z"/>
		<path class="st0" d="M11.4,33.2c0.9,1.4,2,3.2,2.8,4.8c0.6,1.3,1,2.5,1.2,3.5c0.2,1,0.3,1.9,0.2,2.6c0,0.5-0.1,1-0.2,1.3
			c0.1-0.3,0.4-0.7,0.7-1.1c0.4-0.6,1-1.2,1.8-1.8c0.8-0.6,1.9-1.1,3.2-1.5c1.6-0.5,3.7-0.6,5.3-0.6c1.6,0,2.8,0.1,2.8,0.1
			s-0.3,0.3-0.8,0.8c-0.5,0.5-1.4,1.2-2.3,1.9c-0.9,0.8-2,1.5-3.3,2.2c-1.2,0.7-2.5,1.3-4,1.7c-1.3,0.3-2.3,0.1-2.9-0.1
			c-0.6-0.3-0.9-0.7-0.9-0.7s-0.4,0.1-1.1,0c-0.7-0.1-1.6-0.5-2.4-1.6c-0.9-1.2-1.5-2.7-1.9-4.2c-0.4-1.5-0.5-3.1-0.5-4.6
			c0-1.5,0.2-2.7,0.3-3.6c0.1-0.9,0.3-1.5,0.3-1.5S10.5,31.7,11.4,33.2z"/>
		<path class="st0" d="M22.2,29.9c-0.1,0.5-0.3,0.9-0.4,1.3c0.2-0.3,0.5-0.6,0.9-1c1-1,2.8-2,5.6-2.2c0.8-0.1,1.7,0,2.6,0
			c0.9,0.1,1.8,0.2,2.6,0.4c1.6,0.3,2.8,0.6,2.8,0.6s-0.4,0.3-1,0.6c-0.3,0.2-0.7,0.4-1.1,0.6c-0.4,0.3-0.9,0.5-1.4,0.8
			c-1,0.5-2.3,1.1-3.7,1.5c-1.3,0.5-2.7,0.8-4.2,0.9c-1.4,0.1-2.3-0.3-2.8-0.7c-0.5-0.4-0.7-0.8-0.7-0.8s-0.5,0.1-1.1-0.2
			c-0.6-0.3-1.4-0.8-2-2.1c-0.7-1.4-1-2.9-1.1-4.5c0-1.6,0.2-3.1,0.4-4.6c0.1-0.7,0.3-1.4,0.5-2c0.2-0.6,0.4-1.1,0.5-1.5
			c0.3-0.9,0.6-1.4,0.6-1.4s0.5,1.2,1.1,2.8c0.3,0.8,0.6,1.7,1,2.6c0.3,0.9,0.6,1.8,0.8,2.7C22.8,26.5,22.5,28.5,22.2,29.9z"/>
		<path class="st0" d="M37.8,16.8c1.6,0.2,3.5,0.8,5,1.5c1.5,0.6,2.6,1.2,2.6,1.2s-0.4,0.2-1.1,0.4c-0.7,0.2-1.6,0.6-2.8,0.9
			c-1.1,0.3-2.5,0.6-3.9,0.8c-1.4,0.2-2.8,0.2-4.3,0c-1.4-0.2-2.2-0.8-2.6-1.3c-0.5-0.5-0.6-0.9-0.6-0.9s-0.5,0-1-0.4
			c-0.6-0.4-1.2-1.1-1.6-2.4c-0.4-1.5-0.4-3.1-0.1-4.6c0.2-1.6,0.8-3.1,1.3-4.4c0.6-1.3,1.2-2.5,1.7-3.3c0.5-0.8,0.9-1.2,0.9-1.2
			s0.3,1.3,0.5,2.9c0.3,1.6,0.7,3.8,0.7,5.5c0.1,1.5-0.1,2.7-0.3,3.6c-0.2,1-0.5,1.8-0.8,2.5c-0.2,0.5-0.5,0.8-0.7,1.1
			c0.3-0.2,0.6-0.5,1.1-0.8c0.6-0.4,1.4-0.7,2.3-0.9C35.2,16.7,36.4,16.6,37.8,16.8z"/>
		<path class="st0" d="M46.4,7.7c-4,3.9-7.5,3-7.5,3S38,9.1,39.7,6.9c3.7-4.7,11.6-5.8,11.6-5.8S48.8,5.4,46.4,7.7z"/>
	</g>
	<path class="st1" d="M62.9,148.3c-0.4-6.1-5.5-8.4-5.5-8.4C18.5,122.8,0.9,77.5,17.9,38.7c4.2-9.7,10.2-18,17.4-24.8
		c0.8-0.7,2.7-2.5,3.5-3.2"/>
</g>
</svg>
