<?xml version="1.0" encoding="utf-8"?>
<!-- Generator: Adobe Illustrator 27.2.0, SVG Export Plug-In . SVG Version: 6.00 Build 0)  -->
<svg version="1.1" id="Layer_1" xmlns="http://www.w3.org/2000/svg" xmlns:xlink="http://www.w3.org/1999/xlink" x="0px" y="0px"
	 viewBox="0 0 63.8 148.8" style="enable-background:new 0 0 63.8 148.8;" xml:space="preserve">
<style type="text/css">
	.st0{fill:#FFFFFF;stroke:#FFFFFF;stroke-miterlimit:10;}
	.st1{fill:none;stroke:#FFFFFF;stroke-miterlimit:10;}
</style>
<g>
	<g>
		<path class="st0" d="M18.1,137.8c-2.8-0.9-4.8-0.7-6.2-0.5c-0.5,0.1-0.9,0.2-1.3,0.4c0.3-0.2,0.7-0.5,1-0.8c1-1,2.1-2.7,2.5-5.5
			c0.2-1.6,0-3.7-0.2-5.3c-0.2-1.6-0.5-2.8-0.5-2.8s-0.3,0.3-0.7,0.9c-0.4,0.6-1,1.5-1.6,2.5c-0.6,1-1.2,2.2-1.7,3.6
			c-0.5,1.3-0.9,2.7-1,4.2c-0.1,1.4,0.2,2.3,0.6,2.8c0.4,0.6,0.8,0.8,0.8,0.8s-0.1,0.5,0.1,1.1c0.2,0.6,0.7,1.5,2,2.1
			c1.3,0.7,2.9,1.1,4.5,1.3c1.6,0.1,3.2,0,4.6-0.2c1.4-0.2,2.7-0.6,3.6-0.9c0.9-0.3,1.4-0.5,1.4-0.5s-1.2-0.6-2.7-1.3
			C21.7,139.2,19.8,138.3,18.1,137.8z"/>
		<path class="st0" d="M36.4,128.8c-1.7-0.4-3.7-0.8-5.4-0.9c-2.9-0.3-4.8,0.3-6.2,0.8c-0.5,0.2-0.9,0.4-1.2,0.6
			c0.3-0.3,0.5-0.6,0.8-1c0.8-1.1,1.5-3.1,1.3-5.8c-0.1-1.7-0.7-3.6-1.3-5.1c-0.3-0.8-0.5-1.4-0.7-1.9c-0.2-0.5-0.3-0.7-0.3-0.7
			s-0.2,0.4-0.5,1.1c-0.3,0.7-0.7,1.6-1,2.8c-0.4,1.1-0.7,2.4-1,3.8c-0.3,1.4-0.4,2.8-0.2,4.3c0.2,1.4,0.7,2.2,1.1,2.7
			c0.5,0.5,0.9,0.6,0.9,0.6s0,0.5,0.4,1c0.3,0.6,1,1.3,2.3,1.7c1.4,0.4,3,0.5,4.6,0.3c1.6-0.2,3.1-0.6,4.5-1.1
			c1.3-0.5,2.5-1.1,3.3-1.6c0.4-0.2,0.7-0.4,1-0.6c0.2-0.1,0.3-0.2,0.3-0.2s-0.3-0.1-0.8-0.2C38,129.2,37.3,129,36.4,128.8z"/>
		<path class="st0" d="M41.5,115.5c-1.4,0.2-2.6,0.5-3.6,0.8c-1,0.4-1.7,0.8-2.3,1.2c-0.4,0.3-0.8,0.6-1,0.8
			c0.2-0.3,0.4-0.7,0.6-1.2c0.3-0.6,0.5-1.5,0.5-2.5c0-1,0-2.2-0.4-3.5c-0.5-1.6-1.4-3.4-2.2-4.8c-0.8-1.4-1.6-2.4-1.6-2.4
			s-0.1,0.4-0.2,1.2c-0.2,0.7-0.3,1.7-0.4,2.9c-0.1,1.2-0.2,2.5-0.2,3.9c0.1,1.4,0.2,2.9,0.7,4.3c0.4,1.3,1.1,2,1.7,2.4
			c0.6,0.4,1,0.4,1,0.4s0.1,0.5,0.6,1c0.5,0.5,1.2,1,2.6,1.2c1.5,0.1,3.1-0.1,4.6-0.6c1.5-0.5,2.9-1.2,4.2-2
			c1.2-0.8,2.2-1.6,2.9-2.2c0.7-0.6,1.1-1,1.1-1s-1.3-0.1-3-0.1C45.4,115.3,43.2,115.3,41.5,115.5z"/>
		<path class="st0" d="M49.4,101.3c-1.4,0.5-2.5,1-3.3,1.5c-0.9,0.5-1.5,1.1-2,1.6c-0.4,0.4-0.6,0.7-0.8,1c0.1-0.3,0.3-0.7,0.4-1.3
			c0.1-0.7,0.2-1.6,0-2.6c-0.1-1-0.5-2.1-1.1-3.4c-0.8-1.5-2-3-3.1-4.2c-1.1-1.2-2-2-2-2s0,0.4,0,1.2c0,0.7,0,1.7,0.1,2.9
			c0.2,2.4,0.7,5.4,2.2,7.9c0.7,1.2,1.5,1.7,2.1,2c0.6,0.2,1.1,0.2,1.1,0.2s0.2,0.4,0.7,0.8c0.5,0.4,1.4,0.8,2.8,0.6
			c3-0.3,6-2.3,8.1-4.3c1-1,1.9-2,2.5-2.7c0.6-0.7,0.9-1.2,0.9-1.2s-1.3,0.2-2.9,0.5C53.1,100.3,51,100.7,49.4,101.3z"/>
		<path class="st0" d="M54.3,85.8c-2.5,1.4-3.9,3-4.6,4.2c-0.3,0.5-0.5,0.9-0.6,1.2c0.1-0.3,0.1-0.8,0.1-1.3
			c-0.1-1.4-0.5-3.4-2.3-5.6c-1-1.3-2.6-2.6-3.9-3.5c-1.3-0.9-2.4-1.6-2.4-1.6s0.1,0.4,0.2,1.2c0.2,0.7,0.4,1.7,0.7,2.9
			c0.2,0.6,0.4,1.2,0.6,1.8c0.2,0.6,0.5,1.3,0.8,1.9c0.6,1.3,1.4,2.6,2.3,3.7c0.9,1,1.8,1.4,2.4,1.5c0.7,0.1,1.1,0,1.1,0
			s0.3,0.4,0.9,0.7c0.6,0.3,1.6,0.5,2.9,0.1c1.5-0.5,2.8-1.3,4-2.3c0.6-0.5,1.2-1.1,1.7-1.7c0.5-0.6,0.9-1.2,1.4-1.8
			c0.8-1.2,1.5-2.3,1.9-3.2c0.4-0.8,0.6-1.4,0.6-1.4s-1.2,0.4-2.8,1.1C57.7,84.1,55.8,84.9,54.3,85.8z"/>
		<path class="st0" d="M55.9,69.6c-1.1,1-1.9,1.9-2.5,2.7c-0.6,0.8-1,1.6-1.2,2.3c-0.2,0.5-0.3,0.9-0.3,1.3c0-0.4,0-0.8-0.2-1.3
			c-0.2-0.7-0.4-1.5-1-2.4c-0.5-0.9-1.3-1.8-2.4-2.6c-1.3-1-3.1-2-4.6-2.6c-1.5-0.7-2.6-1-2.6-1s0.1,0.4,0.4,1.1
			c0.3,0.7,0.8,1.6,1.3,2.6c1.1,2.1,2.7,4.7,5.1,6.5c1.1,0.8,2,1,2.7,1c0.7,0,1.1-0.3,1.1-0.3s0.3,0.3,1,0.5
			c0.7,0.2,1.6,0.2,2.9-0.5c2.6-1.5,4.6-4.4,5.7-7.1c0.6-1.3,0.9-2.6,1.2-3.5c0.2-0.9,0.3-1.5,0.3-1.5s-1.1,0.7-2.5,1.6
			C58.9,67.3,57.2,68.5,55.9,69.6z"/>
		<path class="st0" d="M54.3,53.4c-0.9,1.2-1.5,2.2-1.9,3.2c-0.4,0.9-0.6,1.8-0.7,2.5c-0.1,0.5-0.1,1-0.1,1.3
			c-0.1-0.3-0.2-0.8-0.4-1.3c-0.3-0.6-0.7-1.4-1.4-2.1c-0.7-0.7-1.6-1.5-2.9-2.1c-1.4-0.8-3.5-1.3-5-1.7c-1.6-0.3-2.8-0.5-2.8-0.5
			s0.2,0.4,0.6,1c0.4,0.6,1.1,1.4,1.8,2.3c0.7,0.9,1.7,1.9,2.7,2.8c1,0.9,2.2,1.8,3.6,2.4c1.2,0.6,2.2,0.6,2.8,0.4
			c0.7-0.2,1-0.5,1-0.5s0.4,0.2,1.1,0.2c0.7,0,1.6-0.2,2.7-1.1c1.1-1,2-2.3,2.7-3.7c0.7-1.4,1.1-3,1.4-4.4c0.3-1.4,0.4-2.7,0.4-3.6
			c0-0.9,0-1.5,0-1.5s-0.9,0.9-2.1,2.1C56.7,50.5,55.3,52,54.3,53.4z"/>
		<path class="st0" d="M52.2,33.2c-0.9,1.4-2,3.2-2.8,4.8c-0.6,1.3-1,2.5-1.2,3.5C48,42.4,48,43.3,48,44c0,0.5,0.1,1,0.2,1.3
			c-0.1-0.3-0.4-0.7-0.7-1.1c-0.4-0.6-1-1.2-1.8-1.8c-0.8-0.6-1.9-1.1-3.2-1.5c-1.6-0.5-3.7-0.6-5.3-0.6c-1.6,0-2.8,0.1-2.8,0.1
			s0.3,0.3,0.8,0.8c0.5,0.5,1.4,1.2,2.3,1.9c0.9,0.8,2,1.5,3.3,2.2c1.2,0.7,2.5,1.3,4,1.7c1.3,0.3,2.3,0.1,2.9-0.1
			c0.6-0.3,0.9-0.7,0.9-0.7s0.4,0.1,1.1,0c0.7-0.1,1.6-0.5,2.4-1.6c0.9-1.2,1.5-2.7,1.9-4.2c0.4-1.5,0.5-3.1,0.5-4.6
			c0-1.5-0.2-2.7-0.3-3.6c-0.1-0.9-0.3-1.5-0.3-1.5S53.1,31.7,52.2,33.2z"/>
		<path class="st0" d="M41.4,29.9c0.1,0.5,0.3,0.9,0.4,1.3c-0.2-0.3-0.5-0.6-0.9-1c-1-1-2.8-2-5.6-2.2c-0.8-0.1-1.7,0-2.6,0
			c-0.9,0.1-1.8,0.2-2.6,0.4c-1.6,0.3-2.8,0.6-2.8,0.6s0.4,0.3,1,0.6c0.3,0.2,0.7,0.4,1.1,0.6c0.4,0.3,0.9,0.5,1.4,0.8
			c1,0.5,2.3,1.1,3.7,1.5c1.3,0.5,2.7,0.8,4.2,0.9c1.4,0.1,2.3-0.3,2.8-0.7c0.5-0.4,0.7-0.8,0.7-0.8s0.5,0.1,1.1-0.2
			c0.6-0.3,1.4-0.8,2-2.1c0.7-1.4,1-2.9,1.1-4.5c0-1.6-0.2-3.1-0.4-4.6c-0.1-0.7-0.3-1.4-0.5-2c-0.2-0.6-0.4-1.1-0.5-1.5
			c-0.3-0.9-0.6-1.4-0.6-1.4s-0.5,1.2-1.1,2.8c-0.3,0.8-0.6,1.7-1,2.6c-0.3,0.9-0.6,1.8-0.8,2.7C40.8,26.5,41.1,28.5,41.4,29.9z"/>
		<path class="st0" d="M25.8,16.8c-1.6,0.2-3.5,0.8-5,1.5c-1.5,0.6-2.6,1.2-2.6,1.2s0.4,0.2,1.1,0.4c0.7,0.2,1.6,0.6,2.8,0.9
			c1.1,0.3,2.5,0.6,3.9,0.8c1.4,0.2,2.8,0.2,4.3,0c1.4-0.2,2.2-0.8,2.6-1.3c0.5-0.5,0.6-0.9,0.6-0.9s0.5,0,1-0.4
			c0.6-0.4,1.2-1.1,1.6-2.4c0.4-1.5,0.4-3.1,0.1-4.6c-0.2-1.6-0.8-3.1-1.3-4.4c-0.6-1.3-1.2-2.5-1.7-3.3c-0.5-0.8-0.9-1.2-0.9-1.2
			S32,4.2,31.7,5.8c-0.3,1.6-0.7,3.8-0.7,5.5c-0.1,1.5,0.1,2.7,0.3,3.6c0.2,1,0.5,1.8,0.8,2.5c0.2,0.5,0.5,0.8,0.7,1.1
			c-0.3-0.2-0.6-0.5-1.1-0.8c-0.6-0.4-1.4-0.7-2.3-0.9C28.4,16.7,27.2,16.6,25.8,16.8z"/>
		<path class="st0" d="M17.2,7.7c4,3.9,7.5,3,7.5,3s0.9-1.6-0.8-3.8c-3.7-4.7-11.6-5.8-11.6-5.8S14.8,5.4,17.2,7.7z"/>
	</g>
	<path class="st1" d="M0.7,148.3c0.4-6.1,5.5-8.4,5.5-8.4c38.8-17.1,56.5-62.4,39.4-101.2c-4.2-9.7-10.2-18-17.4-24.8
		c-0.8-0.7-2.7-2.5-3.5-3.2"/>
</g>
</svg>
