<?xml version="1.0" encoding="utf-8"?>
<!-- Generator: Adobe Illustrator 27.8.1, SVG Export Plug-In . SVG Version: 6.00 Build 0)  -->
<svg version="1.1" id="Layer_1" xmlns="http://www.w3.org/2000/svg" xmlns:xlink="http://www.w3.org/1999/xlink" x="0px" y="0px"
	 viewBox="0 0 34.9 22.8" style="enable-background:new 0 0 34.9 22.8;" xml:space="preserve">
<style type="text/css">
	
		.st0{clip-path:url(#SVGID_00000016780593674185832980000000133570209691452296_);fill:url(#SVGID_00000150085294473358599890000014190033700378615443_);}
	
		.st1{clip-path:url(#SVGID_00000118358171603325426050000003306583644726207925_);fill:url(#SVGID_00000126296265702231980860000018316051564341047969_);}
</style>
<g>
	<defs>
		<path id="SVGID_1_" d="M3.4,22.5c2.7,0,5.6-1.2,7.9-3.4c3.2-3,5-7.4,4.7-11.5c0,0,0,0,0-0.1c-0.2-4.1-3.7-7.5-7.9-7.5
			C3.8,0.1,0.2,3.7,0.2,8c0,4.3,3.5,7.9,7.9,7.9c2.7,0,5-1.3,6.4-3.3c-0.7,2.2-2,4.3-3.8,6C8.1,20.9,5,22,2,21.5
			c-0.2,0-0.4,0.1-0.5,0.3c0,0.2,0.1,0.4,0.3,0.5C2.4,22.4,2.9,22.5,3.4,22.5z"/>
	</defs>
	<clipPath id="SVGID_00000134215833604314126480000008039357320021847709_">
		<use xlink:href="#SVGID_1_"  style="overflow:visible;"/>
	</clipPath>
	
		<linearGradient id="SVGID_00000053503083321308792960000005001179171033614269_" gradientUnits="userSpaceOnUse" x1="0.4314" y1="23.5316" x2="1.4314" y2="23.5316" gradientTransform="matrix(15.8081 0 0 -15.8081 -6.5802 383.2922)">
		<stop  offset="0" style="stop-color:#EE6E23"/>
		<stop  offset="1.187850e-02" style="stop-color:#EE6E23"/>
		<stop  offset="0.9781" style="stop-color:#B02A30"/>
		<stop  offset="1" style="stop-color:#B02A30"/>
	</linearGradient>
	
		<rect x="0.2" y="0.1" style="clip-path:url(#SVGID_00000134215833604314126480000008039357320021847709_);fill:url(#SVGID_00000053503083321308792960000005001179171033614269_);" width="16.1" height="22.4"/>
</g>
<g>
	<defs>
		<path id="SVGID_00000174573545988568981260000002934203952581168043_" d="M22,22.5c2.7,0,5.6-1.2,7.9-3.4c3-2.7,4.7-6.6,4.7-10.4
			V8.5c0-0.3,0-0.6,0-0.9c0,0,0,0,0-0.1c-0.2-4.1-3.7-7.5-7.9-7.5c-4.3,0-7.9,3.5-7.9,7.9c0,4.3,3.5,7.9,7.9,7.9
			c2.7,0,5-1.3,6.4-3.4c-0.7,2.2-2,4.3-3.8,6c-2.6,2.4-5.8,3.5-8.7,3c-0.2,0-0.4,0.1-0.5,0.3c0,0.2,0.1,0.4,0.3,0.5
			C21,22.4,21.5,22.5,22,22.5z"/>
	</defs>
	<clipPath id="SVGID_00000147182311746438285400000001009859914627916169_">
		<use xlink:href="#SVGID_00000174573545988568981260000002934203952581168043_"  style="overflow:visible;"/>
	</clipPath>
	
		<linearGradient id="SVGID_00000072980540034588065650000002105154573374973345_" gradientUnits="userSpaceOnUse" x1="0.4313" y1="23.5316" x2="1.4314" y2="23.5316" gradientTransform="matrix(15.8081 0 0 -15.8081 12.0775 383.2921)">
		<stop  offset="0" style="stop-color:#EE6E23"/>
		<stop  offset="1.187850e-02" style="stop-color:#EE6E23"/>
		<stop  offset="0.9781" style="stop-color:#B02A30"/>
		<stop  offset="1" style="stop-color:#B02A30"/>
	</linearGradient>
	
		<rect x="18.9" y="0.1" style="clip-path:url(#SVGID_00000147182311746438285400000001009859914627916169_);fill:url(#SVGID_00000072980540034588065650000002105154573374973345_);" width="15.8" height="22.4"/>
</g>
</svg>
