<?xml version="1.0" encoding="utf-8"?>
<!-- Generator: Adobe Illustrator 27.8.1, SVG Export Plug-In . SVG Version: 6.00 Build 0)  -->
<svg version="1.1" id="Layer_1" xmlns="http://www.w3.org/2000/svg" xmlns:xlink="http://www.w3.org/1999/xlink" x="0px" y="0px"
	 viewBox="0 0 163.5 100" style="enable-background:new 0 0 163.5 100;" xml:space="preserve">
<style type="text/css">
	.st0{fill:none;}
	.st1{fill:#FAC6B6;}
</style>
<rect x="-102.4" y="-97.7" class="st0" width="465.9" height="333.3"/>
<rect x="-102.4" y="-97.7" class="st0" width="465.9" height="333.3"/>
<rect x="-102.4" y="-97.7" class="st0" width="465.9" height="333.3"/>
<rect x="-102.4" y="-97.7" class="st0" width="465.9" height="333.3"/>
<g>
	<path class="st1" d="M49.3,35.8c-1.1,4-3.4,7.5-6.5,10.1c-2.1,2-4.7,3.2-7.6,3.3c-2.9-0.2-5.7-1.4-7.8-3.4
		c-3.1-2.6-5.3-6.1-6.4-10.1c-0.5-1.9-0.9-3.8-1.1-5.7c0.3-2.9,2-5.4,4.6-6.7c1.6-0.8,3.3-1.3,5-1.6c1.7-0.3,3.4-0.3,5.2-0.6
		c2.9-0.6,5.5-2,7.5-4.1c1.5-1.5,2.7-3.2,3.7-5c3.3,3.2,5.2,7.7,5.2,12.3C50.9,28.2,50.3,32,49.3,35.8L49.3,35.8z M57.7,35.2
		c0.4-3.4,0.5-6.9,0.2-10.3C56.5,7.5,47.8,5.7,47.8,5.7v0.1c-0.1-0.7-0.4-1.4-0.8-2c-0.8-1.1-1.9-1.9-3.2-2.1
		C32.3-0.5,25.3,2,21,6.3c-2.6,1.4-7.5,5.9-8.6,18.6c-0.3,3.4-0.2,6.9,0.2,10.3c0.5,3.5,0.4,7-0.3,10.5c-0.3,1.4,0.5,2.7,1.9,3.1
		c3.4,0.8,9.1,1.9,12,0.6c0.7-0.3,1.1-0.5,1.5-0.8c0.8,0.6,1.7,1.1,2.6,1.5c1.5,0.7,3.2,1.1,4.9,1.2c1.6,0,3.3-0.4,4.8-1.1
		c0.9-0.4,1.8-1,2.7-1.6c0.4,0.2,0.9,0.5,1.5,0.8c2.9,1.3,8.6,0.2,12-0.6c1.4-0.3,2.2-1.7,1.9-3.1C57.3,42.3,57.2,38.7,57.7,35.2"/>
	<path class="st1" d="M46.4,86.2c0,4.5,1.9,8.8,5.3,11.7H5.9c-2.6,0.1-4.8-1.9-5-4.5V74.6c0.2-8.4,5.7-15.7,13.7-18.1l5.8-1.7
		l1.6-1.6c0.6-0.6,1.7-0.6,2.3,0c0,0,0,0,0,0l9.7,9.7l-2,2c-1.7,1.7-4.4,1.7-6.1,0c0,0,0,0,0,0l-0.3-0.3l0.5,2.7
		c0.9,5,5.7,8.3,10.8,7.4c3.8-0.7,6.7-3.6,7.4-7.4l0.5-2.7l-0.4,0.4c-1.7,1.7-4.4,1.7-6.1,0c0,0,0,0,0,0l-1.9-2.1l9.7-9.7
		c0.6-0.6,1.7-0.6,2.3,0c0,0,0,0,0,0l1.6,1.6l5.8,1.7c7.1,2.1,12.4,8.1,13.6,15.5v0.5c-7.6-4-17-1.1-21,6.5
		c-1.2,2.2-1.8,4.7-1.8,7.3L46.4,86.2z"/>
	<path class="st1" d="M71.3,87.3c0-1.2-0.3-2.4-0.8-3.4c-0.5-1.1-1.2-2-2-2.8c-0.8-0.8-1.8-1.3-2.9-1.7c-1.1-0.4-2.2-0.6-3.3-0.5
		c-1.1,0-2.2,0.3-3.2,0.8c-1,0.5-1.9,1.1-2.6,1.9c-0.7,0.8-1.3,1.7-1.7,2.7c-0.4,1-0.5,2.1-0.5,3.1c0.1-2.1,1-4.1,2.5-5.5
		c1.5-1.4,3.5-2.1,5.5-2c2,0.1,3.8,0.9,5.2,2.4c1.3,1.4,2,3.3,1.9,5.2v0.1c0,0.6,0.5,1,1,1c0.6,0,1-0.5,1-1L71.3,87.3z"/>
	<path class="st1" d="M64.2,84l-1.7,1.7h-0.2c-0.9,0-1.5,0.7-1.5,1.5c0,0.9,0.7,1.5,1.5,1.5c0.9,0,1.5-0.7,1.5-1.5
		c0-0.1,0-0.2,0-0.3l1.7-1.7l0.5,0.5l0.8-3.1l-3,0.9L64.2,84z"/>
	<path class="st1" d="M62.8,96.7c-5.1,0-9.4-3.9-9.8-9.1v-0.8c0-5.5,4.4-9.9,9.9-9.9h0.9c1.4,0.1,2.8,0.6,4.1,1.3
		c4.7,2.7,6.4,8.7,3.7,13.4C69.7,94.9,66.4,96.8,62.8,96.7 M72.7,79.7c-3.9-5.6-11.6-6.9-17.1-3c-3.3,2.3-5.2,6.1-5.2,10.1
		c0,1,0.1,2,0.3,2.9c0.2,0.7,0.4,1.3,0.7,1.9c0.9,2,2.2,3.7,4,5c5.5,4,13.1,2.9,17.2-2.6C75.7,89.9,75.8,84.1,72.7,79.7L72.7,79.7z"
		/>
	<path class="st1" d="M126.4,65.3l6.3-3.2c0.4-0.2,0.6-0.6,0.6-1.1v-6.1c0.3-1.2,0.9-2.3,1.5-3.5c1-2,2.2-4.3,2.2-7.4
		c0-0.1,0-0.2,0-0.4c1.7-1.3,2.8-3.4,3.3-6.4c0.1-0.4,0.2-0.8,0.3-1.3c0.3-1.2,0.7-2.5,0.4-3.9c-0.3-1.4-0.9-2-1.5-2.2
		c0.6-3.2,1.8-11.6-1.7-16.6c-1.9-2.7-4.9-3.9-8.8-3.7c-1.9-0.7-14.7-5.5-21.6-0.9c-2.3,1.6-3.7,4.1-4.1,7.3
		c-1.1,9.7-0.7,12.2,0.3,13.7c-0.6,0.1-1.5,0.6-1.9,2.3c-0.3,1.4,0,2.8,0.4,3.9c0.1,0.5,0.3,0.9,0.3,1.3c0.5,2.9,1.6,5.1,3.3,6.4
		c0,0.1,0,0.3,0,0.4c0,3,1.2,5.3,2.2,7.4c0.6,1.2,1.2,2.4,1.5,3.5V61c0,0.5,0.2,0.9,0.6,1.1l6.3,3.2c-0.2,1.9,0.8,4.4,1.3,5.5
		L114.4,92c-0.1,0.3,0,0.7,0.2,0.9c0.2,0.3,0.5,0.4,0.8,0.4h5h2h5c0.3,0,0.6-0.2,0.8-0.4c0.2-0.3,0.3-0.6,0.2-0.9l-3.3-21.1
		C125.6,69.7,126.6,67.2,126.4,65.3"/>
	<path class="st1" d="M106.8,63.2c-0.1-0.4-0.3-0.7-0.6-0.8c-0.3-0.2-0.6-0.1-0.9,0c-0.1,0-7.2,4.1-14.4,7.6
		c-11.2,5.5-11,21.5-11,22.1c0,0.6,0.5,1.1,1,1.1h30.4c0,0,0,0,0,0c0.6,0,1-0.5,1-1.2c0-0.2,0-0.3-0.1-0.5L106.8,63.2z"/>
	<path class="st1" d="M151.9,70.1c-7.2-3.5-14.3-7.6-14.4-7.6c-0.3-0.2-0.6-0.2-0.9,0c-0.3,0.2-0.5,0.5-0.6,0.8l-5.6,28.7
		c-0.1,0.3,0,0.7,0.2,1c0.2,0.3,0.5,0.4,0.8,0.4h30.4c0.6,0,1-0.5,1-1.1C162.9,91.5,163.1,75.5,151.9,70.1"/>
</g>
</svg>
