<?xml version="1.0" encoding="utf-8"?>
<!-- Generator: Adobe Illustrator 27.8.1, SVG Export Plug-In . SVG Version: 6.00 Build 0)  -->
<svg version="1.1" id="Layer_1" xmlns="http://www.w3.org/2000/svg" xmlns:xlink="http://www.w3.org/1999/xlink" x="0px" y="0px"
	 viewBox="0 0 93.8 100" style="enable-background:new 0 0 93.8 100;" xml:space="preserve">
<style type="text/css">
	.st0{fill:none;}
	
		.st1{clip-path:url(#SVGID_00000083800540225869011600000002005254850179418790_);fill:url(#SVGID_00000020385949163720608560000011732135903789086641_);}
</style>
<rect x="-137.4" y="-97.7" class="st0" width="465.9" height="333.3"/>
<rect x="-137.4" y="-97.7" class="st0" width="465.9" height="333.3"/>
<rect x="-137.4" y="-97.7" class="st0" width="465.9" height="333.3"/>
<rect x="-137.4" y="-97.7" class="st0" width="465.9" height="333.3"/>
<g>
	<g>
		<defs>
			<path id="SVGID_1_" d="M86.4,92.5L86.4,92.5L86.4,92.5H55H38.8H7.7h0h0H0.5v7h92.8v-7H86.4z M40.5,89h12.8V60.8H40.5V89z M9.3,47
				V89h27.8v-30c0-0.9,0.8-1.7,1.7-1.7H55c0.9,0,1.7,0.8,1.7,1.7v30h28.1V47H9.3z M55.9,39.8c-0.1,0-0.2,0.1-0.3,0.1
				c-0.1,0-0.1,0.1-0.2,0.1c-0.3,0.1-0.6,0.2-0.8,0.3c-0.1,0-0.1,0-0.2,0.1c-0.3,0.1-0.6,0.2-0.9,0.3c0,0,0,0-0.1,0
				c-1.8,0.5-3.6,0.9-5.4,1c-0.4,0-0.8,0-1.1,0c-0.1,0-0.2,0-0.3,0c-0.3,0-0.6,0-0.9,0c-1.9-0.1-3.7-0.4-5.4-1c0,0,0,0,0,0
				c-0.3-0.1-0.6-0.2-0.9-0.3c0,0-0.1,0-0.1,0c-0.3-0.1-0.6-0.2-0.8-0.3c-0.1,0-0.1-0.1-0.2-0.1c-0.1,0-0.2-0.1-0.3-0.1H7.6v3.7
				h78.6v-3.7H55.9z M4.5,18.9c-0.1,0-0.1,0.1-0.1,0.1v17.3c0,0.1,0.1,0.1,0.1,0.1h1.4h26.6c-0.1-0.1-0.3-0.2-0.4-0.4
				c-0.1-0.1-0.2-0.1-0.2-0.2c-0.2-0.2-0.4-0.3-0.5-0.5c-0.1-0.1-0.2-0.2-0.3-0.3c-0.1-0.1-0.3-0.3-0.4-0.4
				c-0.2-0.2-0.3-0.3-0.5-0.5c-0.1-0.1-0.2-0.2-0.3-0.3c-0.2-0.3-0.4-0.5-0.6-0.8c0,0,0,0-0.1-0.1c-2.2-2.8-3.6-6.2-4.3-9.8v0
				c-0.1-0.4-0.1-0.8-0.2-1.2c0,0,0,0,0-0.1c0-0.4-0.1-0.8-0.1-1.1c0,0,0-0.1,0-0.1c0-0.4,0-0.8,0-1.2v-0.1c0-0.2,0-0.3,0-0.5H4.5z
				 M69.2,18.9c0,0.2,0,0.3,0,0.5v0.1c0,0.4,0,0.8,0,1.2c0,0,0,0.1,0,0.1c0,0.4-0.1,0.8-0.1,1.1c0,0,0,0,0,0.1
				c0,0.4-0.1,0.8-0.2,1.2v0c-0.6,3.6-2.1,7-4.3,9.8c0,0,0,0,0,0.1c-0.2,0.3-0.4,0.5-0.6,0.8c-0.1,0.1-0.2,0.2-0.3,0.3
				c-0.2,0.2-0.3,0.3-0.5,0.5c-0.1,0.1-0.3,0.3-0.4,0.4c-0.1,0.1-0.2,0.2-0.3,0.4c-0.2,0.2-0.3,0.3-0.5,0.5
				c-0.1,0.1-0.2,0.1-0.2,0.2c-0.1,0.1-0.3,0.2-0.4,0.4h26.6h1.4c0.1,0,0.1-0.1,0.1-0.1V19c0-0.1-0.1-0.1-0.1-0.1H69.2z M40.6,17.5
				l1.5,8.1h11.8l1.5-8.1H40.6z M42.1,32.3c0-0.9,0.8-1.7,1.7-1.7c0.9,0,1.7,0.8,1.7,1.7c0,0.9-0.8,1.7-1.7,1.7h0
				C42.8,34,42.1,33.2,42.1,32.3 M49.6,32.3c0-0.9,0.8-1.7,1.7-1.7c0.9,0,1.7,0.8,1.7,1.7c0,0.9-0.8,1.7-1.7,1.7h0
				C50.3,34,49.6,33.2,49.6,32.3 M32.5,10.3c0-0.9,0.7-1.7,1.6-1.8c1.4-0.1,4.7-0.2,5.2,2.2l0.6,3.3h15.8c0.9,0,1.7,0.4,2.3,1.1
				c0.6,0.7,0.8,1.6,0.7,2.5l-1.6,8.9c-0.3,1.5-1.5,2.5-3,2.5H41.8c-1.5,0-2.7-1.1-3-2.5L36.1,12c-0.3-0.1-0.9-0.1-1.8-0.1h-0.1
				C33.3,12,32.6,11.2,32.5,10.3 M28,19.4C28,19.4,28,19.4,28,19.4C28,19.5,28,19.5,28,19.4c0,0.6,0,1.2,0.1,1.7
				c0,0.2,0,0.4,0.1,0.6c0,0.4,0.1,0.7,0.2,1.1c0,0.2,0.1,0.4,0.1,0.6c0.1,0.5,0.2,0.9,0.4,1.4c0.1,0.3,0.2,0.5,0.3,0.8
				c0.1,0.2,0.2,0.5,0.3,0.7c0.1,0.3,0.2,0.5,0.3,0.8c0.1,0.2,0.2,0.5,0.4,0.7c0.2,0.4,0.4,0.7,0.6,1c0.2,0.3,0.3,0.6,0.5,0.9
				c0.1,0.2,0.3,0.4,0.4,0.6c0.2,0.3,0.4,0.6,0.6,0.8c0.1,0.1,0.2,0.3,0.3,0.4c0.4,0.4,0.7,0.8,1.1,1.2c0,0,0,0,0,0
				c0.4,0.4,0.8,0.7,1.2,1.1c0.1,0.1,0.2,0.1,0.2,0.2c0.4,0.3,0.8,0.6,1.2,0.9c0,0,0.1,0.1,0.1,0.1c1,0.7,2,1.2,3.1,1.7
				c0,0,0.1,0,0.1,0c0.5,0.2,1.1,0.4,1.6,0.6c0,0,0.1,0,0.1,0c0.6,0.2,1.1,0.3,1.7,0.4c0,0,0.1,0,0.1,0c0.6,0.1,1.2,0.2,1.8,0.3
				c0,0,0,0,0.1,0c0.6,0.1,1.3,0.1,1.9,0.1c0.6,0,1.3,0,1.9-0.1c0,0,0.1,0,0.1,0c0.6-0.1,1.2-0.2,1.8-0.3c0,0,0.1,0,0.1,0
				c0.6-0.1,1.2-0.3,1.7-0.4c0,0,0.1,0,0.1,0c0.6-0.2,1.1-0.4,1.6-0.6c0,0,0.1,0,0.1,0c1.1-0.5,2.1-1,3.1-1.7c0,0,0.1-0.1,0.1-0.1
				c0.4-0.3,0.8-0.6,1.2-0.9c0.1-0.1,0.2-0.1,0.2-0.2c0.4-0.4,0.8-0.7,1.2-1.1c0,0,0,0,0,0c0.4-0.4,0.7-0.8,1.1-1.2
				c0.1-0.1,0.2-0.3,0.3-0.4c0.2-0.3,0.4-0.5,0.6-0.8c0.1-0.2,0.3-0.4,0.4-0.6c0.2-0.3,0.4-0.6,0.5-0.9c0.2-0.3,0.4-0.7,0.6-1
				c0.1-0.2,0.2-0.5,0.4-0.7c0.1-0.3,0.2-0.5,0.3-0.8c0.1-0.2,0.2-0.5,0.3-0.7c0.1-0.3,0.2-0.5,0.3-0.8c0.1-0.5,0.3-0.9,0.4-1.4
				c0-0.2,0.1-0.4,0.1-0.6c0.1-0.4,0.1-0.7,0.2-1.1c0-0.2,0-0.4,0.1-0.6c0-0.5,0.1-1.1,0.1-1.6c0,0,0,0,0-0.1v0
				C65.8,9,57.3,0.5,46.9,0.5C36.5,0.5,28,9,28,19.4"/>
		</defs>
		<clipPath id="SVGID_00000137836023043448329070000017516280188793382827_">
			<use xlink:href="#SVGID_1_"  style="overflow:visible;"/>
		</clipPath>
		
			<linearGradient id="SVGID_00000153694766278098485400000004403285225470861480_" gradientUnits="userSpaceOnUse" x1="-186.8268" y1="139.1419" x2="-183.4556" y2="139.1419" gradientTransform="matrix(27.5275 0 0 27.5275 5143.353 -3780.2288)">
			<stop  offset="0" style="stop-color:#EE6F25"/>
			<stop  offset="1.187850e-02" style="stop-color:#EE6F25"/>
			<stop  offset="0.4238" style="stop-color:#CF502D"/>
			<stop  offset="0.9781" style="stop-color:#B12B30"/>
			<stop  offset="1" style="stop-color:#B12B30"/>
		</linearGradient>
		
			<rect x="0.5" y="0.5" style="clip-path:url(#SVGID_00000137836023043448329070000017516280188793382827_);fill:url(#SVGID_00000153694766278098485400000004403285225470861480_);" width="92.8" height="98.9"/>
	</g>
</g>
</svg>
