<?xml version="1.0" encoding="utf-8"?>
<!-- Generator: Adobe Illustrator 27.8.1, SVG Export Plug-In . SVG Version: 6.00 Build 0)  -->
<svg version="1.1" id="Layer_1" xmlns="http://www.w3.org/2000/svg" xmlns:xlink="http://www.w3.org/1999/xlink" x="0px" y="0px"
	 viewBox="0 0 119.9 100" style="enable-background:new 0 0 119.9 100;" xml:space="preserve">
<style type="text/css">
	.st0{fill:none;}
	
		.st1{clip-path:url(#SVGID_00000079460223355828894640000018337782725696161674_);fill:url(#SVGID_00000135662703666129590840000015898784119652206778_);}
	
		.st2{clip-path:url(#SVGID_00000015322884062232734400000016276811124395104676_);fill:url(#SVGID_00000131344833722591505080000006672345496005897120_);}
	
		.st3{clip-path:url(#SVGID_00000049915277628551533310000018314647087240319666_);fill:url(#SVGID_00000144296587814698405090000013994791534445942206_);}
	
		.st4{clip-path:url(#SVGID_00000054236416155316633530000017044609835203891890_);fill:url(#SVGID_00000047749855896220699180000008090871088861905082_);}
	
		.st5{clip-path:url(#SVGID_00000169531291321523244960000013196717747370159804_);fill:url(#SVGID_00000085249878727513793220000002574261652165357715_);}
	
		.st6{clip-path:url(#SVGID_00000031929057697920861260000016979625817897755286_);fill:url(#SVGID_00000047025322558907834920000018370462583548386220_);}
	
		.st7{clip-path:url(#SVGID_00000044138866889448593470000010320394023497298590_);fill:url(#SVGID_00000163069704694065106190000008813862596536595853_);}
	
		.st8{clip-path:url(#SVGID_00000117634709464557515150000002503582671383877552_);fill:url(#SVGID_00000076592345568024223080000003432776239110994845_);}
</style>
<rect x="-124.6" y="-97.7" class="st0" width="465.9" height="333.3"/>
<rect x="-124.6" y="-97.7" class="st0" width="465.9" height="333.3"/>
<rect x="-124.6" y="-97.7" class="st0" width="465.9" height="333.3"/>
<rect x="-124.6" y="-97.7" class="st0" width="465.9" height="333.3"/>
<g>
	<g>
		<defs>
			<path id="SVGID_1_" d="M2.5,95.7c-1,0-1.8,0.8-1.8,1.8c0,1,0.8,1.8,1.8,1.8h114.9c1,0,1.8-0.8,1.8-1.8c0-1-0.8-1.8-1.8-1.8H2.5z"
				/>
		</defs>
		<clipPath id="SVGID_00000047028828835621462660000004082923966733849994_">
			<use xlink:href="#SVGID_1_"  style="overflow:visible;"/>
		</clipPath>
		
			<linearGradient id="SVGID_00000000903654711311426660000000518544110534163360_" gradientUnits="userSpaceOnUse" x1="-173.8817" y1="216.3378" x2="-169.963" y2="216.3378" gradientTransform="matrix(30.235 0 0 30.235 5258.0342 -6443.541)">
			<stop  offset="0" style="stop-color:#EE6F25"/>
			<stop  offset="1.187850e-02" style="stop-color:#EE6F25"/>
			<stop  offset="0.4238" style="stop-color:#CF502D"/>
			<stop  offset="0.9781" style="stop-color:#B12B30"/>
			<stop  offset="1" style="stop-color:#B12B30"/>
		</linearGradient>
		
			<rect x="0.7" y="95.7" style="clip-path:url(#SVGID_00000047028828835621462660000004082923966733849994_);fill:url(#SVGID_00000000903654711311426660000000518544110534163360_);" width="118.5" height="3.6"/>
	</g>
	<g>
		<defs>
			<path id="SVGID_00000103254852755836898130000005513955526212145795_" d="M101,4.8c-5,0-9,4.1-9,9.1v12h-1.8
				c-1,0-1.8,0.8-1.8,1.8v9.3h10.8v-9.3c0-1-0.8-1.8-1.8-1.8h-1.8v-12c0-3,2.5-5.5,5.5-5.5h3.9c1,0,1.8-0.8,1.8-1.8
				c0-1-0.8-1.8-1.8-1.8H101z"/>
		</defs>
		<clipPath id="SVGID_00000018207827488607761400000016911736261000576947_">
			<use xlink:href="#SVGID_00000103254852755836898130000005513955526212145795_"  style="overflow:visible;"/>
		</clipPath>
		
			<linearGradient id="SVGID_00000115491026904730958610000001632555103531778473_" gradientUnits="userSpaceOnUse" x1="-176.1063" y1="200.5367" x2="-172.1869" y2="200.5367" gradientTransform="matrix(4.683 0 0 4.683 913.04 -918.3057)">
			<stop  offset="0" style="stop-color:#EE6F25"/>
			<stop  offset="1.187850e-02" style="stop-color:#EE6F25"/>
			<stop  offset="0.4238" style="stop-color:#CF502D"/>
			<stop  offset="0.9781" style="stop-color:#B12B30"/>
			<stop  offset="1" style="stop-color:#B12B30"/>
		</linearGradient>
		
			<rect x="88.3" y="4.8" style="clip-path:url(#SVGID_00000018207827488607761400000016911736261000576947_);fill:url(#SVGID_00000115491026904730958610000001632555103531778473_);" width="18.4" height="32.1"/>
	</g>
	<g>
		<defs>
			<path id="SVGID_00000058566151799024723790000002198877280795224487_" d="M70.1,58.1V47.5c0-1,0.8-1.8,1.8-1.8
				c1,0,1.8,0.8,1.8,1.8v10.6c0,1-0.8,1.8-1.8,1.8C70.9,59.9,70.1,59.1,70.1,58.1 M75.9,58.1V47.5c0-1,0.8-1.8,1.8-1.8
				s1.8,0.8,1.8,1.8v10.6c0,1-0.8,1.8-1.8,1.8S75.9,59.1,75.9,58.1 M81.7,58.1V47.5c0-1,0.8-1.8,1.8-1.8c1,0,1.8,0.8,1.8,1.8v10.6
				c0,1-0.8,1.8-1.8,1.8C82.5,59.9,81.7,59.1,81.7,58.1 M19.1,4.3h29.2c3.1,0,5.8,1.9,6.7,4.8l8.7,31.2H35.3l-7.9-24.9
				c-0.3-0.9-1.3-1.5-2.2-1.2c-0.9,0.3-1.5,1.3-1.2,2.2l7.5,23.9H19.1V4.3z M17.3,0.8c-1,0-1.8,0.8-1.8,1.8v39.6c0,0,0,0.1,0,0.2
				C7.5,45.6,4,51.6,3.8,51.9c-0.4,0.7-0.3,1.6,0.3,2.2c4.9-6.5,12.8-10.8,21.6-10.8c14.2,0,25.8,11,26.9,24.9h29.6
				c3.2-7,10.3-11.8,18.5-11.8c5.5,0,10.4,2.2,14.1,5.7V52c0-6.4-5.2-11.6-11.6-11.6H67.5l-9-32.2c0,0,0-0.1,0-0.1
				C57.1,3.7,53,0.8,48.4,0.8H17.3z"/>
		</defs>
		<clipPath id="SVGID_00000080909144326160030860000010332983259659005870_">
			<use xlink:href="#SVGID_00000058566151799024723790000002198877280795224487_"  style="overflow:visible;"/>
		</clipPath>
		
			<linearGradient id="SVGID_00000084516391281243116980000002486475406196988855_" gradientUnits="userSpaceOnUse" x1="-173.9983" y1="214.6447" x2="-170.0797" y2="214.6447" gradientTransform="matrix(28.3998 0 0 28.3998 4945.083 -6061.3545)">
			<stop  offset="0" style="stop-color:#EE6F25"/>
			<stop  offset="1.187850e-02" style="stop-color:#EE6F25"/>
			<stop  offset="0.4238" style="stop-color:#CF502D"/>
			<stop  offset="0.9781" style="stop-color:#B12B30"/>
			<stop  offset="1" style="stop-color:#B12B30"/>
		</linearGradient>
		
			<rect x="3.4" y="0.8" style="clip-path:url(#SVGID_00000080909144326160030860000010332983259659005870_);fill:url(#SVGID_00000084516391281243116980000002486475406196988855_);" width="111.5" height="67.5"/>
	</g>
	<g>
		<defs>
			<path id="SVGID_00000096040135276870734480000008367326606283741611_" d="M95.8,76.9c0,2.8,2.2,5,5,5c2.8,0,5-2.2,5-5
				c0-2.8-2.2-5-5-5C98,71.9,95.8,74.1,95.8,76.9"/>
		</defs>
		<clipPath id="SVGID_00000134968317693164870660000011721709425521263010_">
			<use xlink:href="#SVGID_00000096040135276870734480000008367326606283741611_"  style="overflow:visible;"/>
		</clipPath>
		
			<linearGradient id="SVGID_00000114774446979206593940000010755509394584464296_" gradientUnits="userSpaceOnUse" x1="-178.2535" y1="203.191" x2="-174.3363" y2="203.191" gradientTransform="matrix(2.558 0 0 2.558 551.7279 -442.8676)">
			<stop  offset="0" style="stop-color:#EE6F25"/>
			<stop  offset="1.187850e-02" style="stop-color:#EE6F25"/>
			<stop  offset="0.4238" style="stop-color:#CF502D"/>
			<stop  offset="0.9781" style="stop-color:#B12B30"/>
			<stop  offset="1" style="stop-color:#B12B30"/>
		</linearGradient>
		
			<rect x="95.8" y="71.9" style="clip-path:url(#SVGID_00000134968317693164870660000011721709425521263010_);fill:url(#SVGID_00000114774446979206593940000010755509394584464296_);" width="10" height="10"/>
	</g>
	<g>
		<defs>
			<path id="SVGID_00000087386618278436870430000003222648385077607300_" d="M92.2,76.9c0-4.7,3.8-8.6,8.6-8.6
				c4.7,0,8.6,3.9,8.6,8.6c0,4.7-3.8,8.6-8.6,8.6C96,85.5,92.2,81.6,92.2,76.9 M100.4,60c-9,0.2-16.6,7.5-16.6,16.9
				c0,9.3,7.6,16.9,16.9,16.9c9.3,0,16.9-7.6,16.9-16.9c0-9.3-7.4-16.7-16.6-16.9H100.4z"/>
		</defs>
		<clipPath id="SVGID_00000091738184352270236980000011939744584627596440_">
			<use xlink:href="#SVGID_00000087386618278436870430000003222648385077607300_"  style="overflow:visible;"/>
		</clipPath>
		
			<linearGradient id="SVGID_00000171693216458148354720000017000196828899860913_" gradientUnits="userSpaceOnUse" x1="-174.1228" y1="212.9031" x2="-170.2037" y2="212.9031" gradientTransform="matrix(8.624 0 0 8.624 1585.4901 -1759.1881)">
			<stop  offset="0" style="stop-color:#EE6F25"/>
			<stop  offset="1.187850e-02" style="stop-color:#EE6F25"/>
			<stop  offset="0.4238" style="stop-color:#CF502D"/>
			<stop  offset="0.9781" style="stop-color:#B12B30"/>
			<stop  offset="1" style="stop-color:#B12B30"/>
		</linearGradient>
		
			<rect x="83.9" y="60" style="clip-path:url(#SVGID_00000091738184352270236980000011939744584627596440_);fill:url(#SVGID_00000171693216458148354720000017000196828899860913_);" width="33.8" height="33.8"/>
	</g>
	<g>
		<defs>
			<path id="SVGID_00000098934549721234250640000006457865267157776547_" d="M17.8,70.3c0,4.4,3.6,8,7.9,8c4.4,0,8-3.6,8-8
				c0-4.4-3.6-7.9-8-7.9C21.3,62.4,17.8,66,17.8,70.3"/>
		</defs>
		<clipPath id="SVGID_00000163061786215188248800000009732656661577608100_">
			<use xlink:href="#SVGID_00000098934549721234250640000006457865267157776547_"  style="overflow:visible;"/>
		</clipPath>
		
			<linearGradient id="SVGID_00000010310472379763634250000014435735504122070913_" gradientUnits="userSpaceOnUse" x1="-189.8786" y1="207.0851" x2="-185.96" y2="207.0851" gradientTransform="matrix(4.054 0 0 4.054 787.5196 -769.1686)">
			<stop  offset="0" style="stop-color:#EE6F25"/>
			<stop  offset="1.187850e-02" style="stop-color:#EE6F25"/>
			<stop  offset="0.4238" style="stop-color:#CF502D"/>
			<stop  offset="0.9781" style="stop-color:#B12B30"/>
			<stop  offset="1" style="stop-color:#B12B30"/>
		</linearGradient>
		
			<rect x="17.8" y="62.4" style="clip-path:url(#SVGID_00000163061786215188248800000009732656661577608100_);fill:url(#SVGID_00000010310472379763634250000014435735504122070913_);" width="15.9" height="15.9"/>
	</g>
	<g>
		<defs>
			<path id="SVGID_00000042017059234648656860000011648559128892592779_" d="M17.8,70.3c0,4.4,3.6,8,7.9,8c4.4,0,8-3.6,8-8
				c0-4.4-3.6-7.9-8-7.9C21.3,62.4,17.8,66,17.8,70.3"/>
		</defs>
		<clipPath id="SVGID_00000084507474742205989340000006748024073100983226_">
			<use xlink:href="#SVGID_00000042017059234648656860000011648559128892592779_"  style="overflow:visible;"/>
		</clipPath>
		
			<linearGradient id="SVGID_00000161594976822181543630000011805543620732517770_" gradientUnits="userSpaceOnUse" x1="-189.8786" y1="207.0851" x2="-185.96" y2="207.0851" gradientTransform="matrix(4.054 0 0 4.054 787.5196 -769.1686)">
			<stop  offset="0" style="stop-color:#EE6F25"/>
			<stop  offset="1.187850e-02" style="stop-color:#EE6F25"/>
			<stop  offset="0.4238" style="stop-color:#CF502D"/>
			<stop  offset="0.9781" style="stop-color:#B12B30"/>
			<stop  offset="1" style="stop-color:#B12B30"/>
		</linearGradient>
		
			<rect x="17.8" y="62.4" style="clip-path:url(#SVGID_00000084507474742205989340000006748024073100983226_);fill:url(#SVGID_00000161594976822181543630000011805543620732517770_);" width="15.9" height="15.9"/>
	</g>
	<g>
		<defs>
			<path id="SVGID_00000047035921940776637650000005956491273366596255_" d="M14.2,70.3c0-6.4,5.2-11.5,11.5-11.5S37.2,64,37.2,70.3
				c0,6.3-5.2,11.5-11.5,11.5S14.2,76.7,14.2,70.3 M2.3,70.3c0,12.9,10.5,23.4,23.4,23.4c12.9,0,23.4-10.5,23.4-23.4
				c0-12.9-10.5-23.4-23.4-23.4C12.8,46.9,2.3,57.4,2.3,70.3"/>
		</defs>
		<clipPath id="SVGID_00000040576450578695486580000007029910699313249427_">
			<use xlink:href="#SVGID_00000047035921940776637650000005956491273366596255_"  style="overflow:visible;"/>
		</clipPath>
		
			<linearGradient id="SVGID_00000170973768685046694270000007185130546057078172_" gradientUnits="userSpaceOnUse" x1="-178.3117" y1="213.6386" x2="-174.3934" y2="213.6386" gradientTransform="matrix(11.959 0 0 11.959 2134.6921 -2484.562)">
			<stop  offset="0" style="stop-color:#EE6F25"/>
			<stop  offset="1.187850e-02" style="stop-color:#EE6F25"/>
			<stop  offset="0.4238" style="stop-color:#CF502D"/>
			<stop  offset="0.9781" style="stop-color:#B12B30"/>
			<stop  offset="1" style="stop-color:#B12B30"/>
		</linearGradient>
		
			<rect x="2.3" y="46.9" style="clip-path:url(#SVGID_00000040576450578695486580000007029910699313249427_);fill:url(#SVGID_00000170973768685046694270000007185130546057078172_);" width="46.9" height="46.9"/>
	</g>
</g>
</svg>
