<?xml version="1.0" encoding="utf-8"?>
<!-- Generator: Adobe Illustrator 27.8.1, SVG Export Plug-In . SVG Version: 6.00 Build 0)  -->
<svg version="1.1" id="Layer_1" xmlns="http://www.w3.org/2000/svg" xmlns:xlink="http://www.w3.org/1999/xlink" x="0px" y="0px"
	 viewBox="0 0 103.4 100" style="enable-background:new 0 0 103.4 100;" xml:space="preserve">
<style type="text/css">
	
		.st0{clip-path:url(#SVGID_00000107551868593057977090000005728211694601107647_);fill:url(#SVGID_00000129205740224234442290000016372128934739880103_);}
</style>
<g>
	<g>
		<defs>
			<path id="SVGID_1_" d="M31.1,99.6h34.2v-8.6H31.1V99.6z M27.7,80.8h-6.8v18.8h6.8V89.4c0-0.9,0.8-1.7,1.7-1.7h37.7
				c0.9,0,1.7,0.8,1.7,1.7v10.3h6.8V80.8H27.7z M14,67.1c0,0-12,8.6-12,32.5h15.4V65.7L14,67.1z M79.1,99.6h15.4
				c0-24-12-32.5-12-32.5l-3.4-1.4V99.6z M20.9,64.4v13H26V62.3L20.9,64.4z M70.5,77.4h5.1v-13l-5.1-2.1V77.4z M49.6,75.4L48.3,76
				l-1.4-0.6c-0.5-0.3-13.2-5.8-14-15.8L29.4,61v16.4h37.7V61l-3.5-1.4C62.8,69.6,50.2,75.1,49.6,75.4 M56.7,59.6
				c-0.7,4-5.5,7.3-8.4,8.9c-3-1.6-7.7-4.8-8.4-8.8c-1.3-0.5-2.5-1.2-3.5-2.1v1c0,8.6,12,13.7,12,13.7s12-5.1,12-13.7v-1.2
				C59.2,58.3,58,59.1,56.7,59.6 M37.5,53.7c1.2,2,3.4,3.2,5.8,3.2H53c2.4,0,4.7-1.3,5.9-3.4c3-5.1,5.1-10.8,6.1-16.7
				c-1.1,0.6-2.4,1-3.7,1.2c-1.1,4.9-2.9,9.5-5.4,13.8c-0.6,1-1.7,1.7-3,1.7h-9.8c-1.2,0-2.2-0.6-2.9-1.6c-2.7-4.3-4.5-9-5.4-13.9
				c-1.3-0.2-2.5-0.6-3.6-1.2C32.1,42.8,34.2,48.6,37.5,53.7 M24.3,32.9v1.7c0,2.4,1.7,4.5,4.1,5c-0.4-2-0.6-4.1-0.6-6.1l-2.3-3.1
				C24.7,31,24.3,31.9,24.3,32.9 M68.8,33.5c0,2.1-0.3,4.1-0.7,6.2c2.4-0.5,4.2-2.6,4.2-5.1v-1.7c0-1-0.4-1.9-1.1-2.5L68.8,33.5z
				 M29,29.5l1.8,2.4c1.3,1.7,3.3,2.7,5.5,2.7h24c2.2,0,4.2-1,5.5-2.7l1.8-2.4c-6.2-2.2-12.7-3.4-19.2-3.5
				C41.7,26.1,35.2,27.3,29,29.5 M44.8,3.8c-9.5,0-17.1,7.7-17.1,17.1v5.4c6.6-2.4,13.5-3.6,20.5-3.7c7,0.1,14,1.3,20.5,3.7v-5.4
				c0-9.5-7.7-17.1-17.1-17.1H44.8z M94.5,8.9L91,12.3l-3.4-3.4V0.4c-5.3,1.9-8.1,7.7-6.3,13.1c0.8,2.3,2.4,4.3,4.6,5.5v19.4
				c-4.9,2.8-6.6,9.1-3.8,14c1.2,2.1,3.2,3.7,5.5,4.6v-8.6l3.4-3.4l3.4,3.4v8.6c5.3-1.9,8.1-7.7,6.3-13.1c-0.8-2.3-2.4-4.3-4.6-5.5
				V18.9c4.9-2.8,6.6-9.1,3.8-14c-1.2-2.1-3.2-3.7-5.5-4.6V8.9z"/>
		</defs>
		<clipPath id="SVGID_00000073699367527167649290000011916405950215835313_">
			<use xlink:href="#SVGID_1_"  style="overflow:visible;"/>
		</clipPath>
		
			<linearGradient id="SVGID_00000034054888124346102760000012353409954835331983_" gradientUnits="userSpaceOnUse" x1="-175.4334" y1="217.9972" x2="-172.1139" y2="217.9972" gradientTransform="matrix(29.9089 0 0 29.9089 5249.062 -6470.0605)">
			<stop  offset="0" style="stop-color:#EE6F25"/>
			<stop  offset="1.187850e-02" style="stop-color:#EE6F25"/>
			<stop  offset="0.4238" style="stop-color:#CF502D"/>
			<stop  offset="0.9781" style="stop-color:#B12B30"/>
			<stop  offset="1" style="stop-color:#B12B30"/>
		</linearGradient>
		
			<rect x="2" y="0.4" style="clip-path:url(#SVGID_00000073699367527167649290000011916405950215835313_);fill:url(#SVGID_00000034054888124346102760000012353409954835331983_);" width="100.7" height="99.3"/>
	</g>
</g>
</svg>
