<?xml version="1.0" encoding="UTF-8"?>
<!-- Generator: Adobe Illustrator 27.4.0, SVG Export Plug-In . SVG Version: 6.00 Build 0)  -->
<svg version="1.1" id="icon-1" xmlns="http://www.w3.org/2000/svg" xmlns:xlink="http://www.w3.org/1999/xlink" x="0px" y="0px" viewBox="0 0 150 150" style="enable-background:new 0 0 150 150;" xml:space="preserve">
<style type="text/css">
	#icon-1 .st0{fill:none;stroke:#FFFFFF;stroke-width:4;stroke-miterlimit:10;}
</style>
<g class="wow drowline">
	<path class="st0" d="M146.8,73.9c0.6,40.1-31.5,72.5-71.1,72.9C35.9,147.3,3.7,115.4,3.2,76C2.6,35.9,34.7,3.5,74.4,3.1   C114,2.8,146.1,34.6,146.8,73.9z"/>
	<path class="st0" d="M59.5,5.4c0,0-57.8,60.5-1.5,138.9"/>
	<path class="st0" d="M92.7,145c0,0,57.8-60.5,1.5-138.9"/>
	<path class="st0" d="M19.2,29.3c0,0,51,29.7,110-1.1"/>
	<path class="st0" d="M128.4,120.8c0,0-51-29.7-110,1.1"/>
	<line class="st0" x1="3.2" y1="76" x2="146.8" y2="76"/>
	<line class="st0" x1="76.3" y1="3.1" x2="76.3" y2="146.9"/>
</g>
</svg>