<?xml version="1.0" encoding="utf-8"?>
<!-- Generator: Adobe Illustrator 27.8.1, SVG Export Plug-In . SVG Version: 6.00 Build 0)  -->
<svg version="1.1" id="Layer_1" xmlns="http://www.w3.org/2000/svg" xmlns:xlink="http://www.w3.org/1999/xlink" x="0px" y="0px"
	 viewBox="0 0 181.8 100" style="enable-background:new 0 0 181.8 100;" xml:space="preserve">
<style type="text/css">
	.st0{fill:none;}
	
		.st1{clip-path:url(#SVGID_00000088855223626194277880000004928831014285997979_);fill:url(#SVGID_00000090997262326673843200000015326847236632794030_);}
	
		.st2{clip-path:url(#SVGID_00000060729787706011069010000006789171132216797114_);fill:url(#SVGID_00000024703664283628177650000017542937406381066378_);}
	
		.st3{clip-path:url(#SVGID_00000072969275010519012890000008379775844105884845_);fill:url(#SVGID_00000038383796660194765150000015186134325472526266_);}
	
		.st4{clip-path:url(#SVGID_00000073722737660559542620000003649699512337420935_);fill:url(#SVGID_00000168832759673435630130000015936418803142980242_);}
	
		.st5{clip-path:url(#SVGID_00000006699181324999096690000009789935802686870463_);fill:url(#SVGID_00000158736017914308493460000003251467557097221021_);}
	
		.st6{clip-path:url(#SVGID_00000115481565849368359290000001955126927965047223_);fill:url(#SVGID_00000108273475608940252070000011192050316041210244_);}
</style>
<rect x="-93" y="-97.7" class="st0" width="465.9" height="333.3"/>
<rect x="-93" y="-97.7" class="st0" width="465.9" height="333.3"/>
<rect x="-93" y="-97.7" class="st0" width="465.9" height="333.3"/>
<rect x="-93" y="-97.7" class="st0" width="465.9" height="333.3"/>
<g>
	<g>
		<defs>
			<path id="SVGID_1_" d="M52.4,80.4c0.2-0.4,0.3-0.8,0.4-1.1C52.7,79.7,52.6,80.1,52.4,80.4"/>
		</defs>
		<clipPath id="SVGID_00000173133369030602056800000007945293417228165266_">
			<use xlink:href="#SVGID_1_"  style="overflow:visible;"/>
		</clipPath>
		
			<linearGradient id="SVGID_00000183213925575892921710000014605650011846208446_" gradientUnits="userSpaceOnUse" x1="157.8438" y1="-120.4887" x2="162.2141" y2="-120.4887" gradientTransform="matrix(0.1005 0 0 0.1005 36.5666 91.9853)">
			<stop  offset="0" style="stop-color:#EE6F25"/>
			<stop  offset="1.187850e-02" style="stop-color:#EE6F25"/>
			<stop  offset="0.4238" style="stop-color:#CF502D"/>
			<stop  offset="0.9781" style="stop-color:#B12B30"/>
			<stop  offset="1" style="stop-color:#B12B30"/>
		</linearGradient>
		
			<rect x="52.4" y="79.3" style="clip-path:url(#SVGID_00000173133369030602056800000007945293417228165266_);fill:url(#SVGID_00000183213925575892921710000014605650011846208446_);" width="0.4" height="1.1"/>
	</g>
	<g>
		<defs>
			<path id="SVGID_00000028305830041782550470000000809581887518061473_" d="M163.5,71.4c0.1,2.8-0.3,5.6-1.2,8.3
				c0.1-0.2,0.2-0.4,0.3-0.6c0.6-2.1,1-4.4,1-6.6C163.5,72.1,163.5,71.7,163.5,71.4c0-0.4-0.1-0.8-0.3-1.1
				C163.4,70.6,163.5,71,163.5,71.4 M157.7,61.5c-1.4,0.7-2,2.3-1.4,3.8c0.7,1.4,2.3,2,3.8,1.4c1.4-0.7,2-2.3,1.4-3.8v0v0
				c-0.5-1-1.5-1.6-2.6-1.6C158.4,61.2,158,61.3,157.7,61.5 M144.2,52.5c-0.5,1.5,0.2,3.1,1.7,3.6c0.1,0,0.1,0,0.2,0.1
				c0.5,0.2,1,0.3,1.5,0.6h0c2,0.9,3.9,2.2,5.4,3.7c1.1,1.1,2.9,1.1,4,0c1.1-1.1,1.1-2.8,0-3.9l0,0c-2.1-2.1-4.5-3.8-7.2-5h0
				c-0.7-0.3-1.3-0.5-2-0.8c-0.3-0.1-0.6-0.2-1-0.2C145.7,50.6,144.6,51.3,144.2,52.5"/>
		</defs>
		<clipPath id="SVGID_00000136410416792254276570000010851512060246238364_">
			<use xlink:href="#SVGID_00000028305830041782550470000000809581887518061473_"  style="overflow:visible;"/>
		</clipPath>
		
			<linearGradient id="SVGID_00000068677743567437890770000018131305427300966301_" gradientUnits="userSpaceOnUse" x1="-116.7305" y1="206.8546" x2="-112.3602" y2="206.8546" gradientTransform="matrix(4.4646 0 0 4.4646 665.171 -858.3821)">
			<stop  offset="0" style="stop-color:#EE6F25"/>
			<stop  offset="1.187850e-02" style="stop-color:#EE6F25"/>
			<stop  offset="0.4238" style="stop-color:#CF502D"/>
			<stop  offset="0.9781" style="stop-color:#B12B30"/>
			<stop  offset="1" style="stop-color:#B12B30"/>
		</linearGradient>
		
			<rect x="143.7" y="50.6" style="clip-path:url(#SVGID_00000136410416792254276570000010851512060246238364_);fill:url(#SVGID_00000068677743567437890770000018131305427300966301_);" width="19.9" height="29"/>
	</g>
	<g>
		<defs>
			<path id="SVGID_00000064334868587054760230000005430479460312554927_" d="M44.7,88.9L44.7,88.9L44.7,88.9
				C44.7,88.9,44.7,88.9,44.7,88.9 M148.3,80.6c-0.8-0.5-1-1.5-0.6-2.3c0.3-0.5,0.9-0.8,1.4-0.8c0.9,0,1.7,0.8,1.7,1.7
				c0,0.3-0.1,0.6-0.2,0.9v0c-0.3,0.5-0.9,0.8-1.4,0.8C148.9,80.9,148.6,80.8,148.3,80.6 M31.6,83.7c-0.6,0-1.1-0.3-1.5-0.8
				c-0.2-0.1-0.3-0.2-0.5-0.3c-2-2-3.4-4.4-4.1-7.2c0,0,0,0,0-0.1c-0.1-0.4-0.2-0.8-0.2-1.1c-0.1-0.9,0.5-1.8,1.4-1.9h0.1
				c0.9-0.1,1.7,0.5,1.9,1.4c0,0.3,0.1,0.6,0.2,0.9c0.5,2.1,1.6,4,3.1,5.6c0.1,0.1,0.2,0.2,0.3,0.3c0.1,0.1,0.3,0.1,0.4,0.2
				c0.7,0.6,0.8,1.7,0.2,2.4c0,0,0,0,0,0v0c-0.3,0.3-0.7,0.5-1.1,0.6c0,0-0.1,0-0.1,0C31.6,83.7,31.6,83.7,31.6,83.7 M27.3,68.2
				c-0.6-0.3-1-0.9-1-1.5c0-0.2,0.1-0.5,0.1-0.7c0.2-0.5,0.8-0.9,1.4-1c0.9-0.1,1.8,0.6,1.9,1.5c0,0.3,0,0.6-0.1,0.9
				c-0.2,0.5-0.7,0.9-1.3,1c-0.1,0-0.1,0-0.2,0C27.8,68.4,27.5,68.3,27.3,68.2 M149.4,72.1c0-0.3,0-0.6-0.1-0.9
				c-0.2-2.2-1.1-4.2-2.4-5.9c-0.1-0.1-0.2-0.2-0.2-0.4c-0.1-0.1-0.2-0.2-0.3-0.3c-0.3-0.3-0.4-0.6-0.5-1c0-0.5,0.1-1,0.5-1.4
				c0.3-0.3,0.7-0.5,1.2-0.5c0.5,0,0.9,0.2,1.2,0.5c0.1,0.1,0.2,0.3,0.3,0.5c0.2,0.1,0.3,0.2,0.4,0.4c0.1,0.1,0.2,0.2,0.2,0.3
				c1.6,2.1,2.6,4.6,2.9,7.3c0,0,0,0,0,0c0,0.4,0.1,0.8,0.1,1.1c0,0.9-0.7,1.7-1.6,1.7h0C150.2,73.8,149.4,73,149.4,72.1 M55.2,64.4
				c4.4,8.4,1.2,18.7-7.1,23.1c-1,0.6-2.2,1-3.3,1.3l0.4-0.2l0.1-0.1l0.3-0.2l0.2-0.1l0.4-0.3c0.5-0.3,1-0.7,1.4-1
				c0.1-0.1,0.3-0.2,0.4-0.3c0.2-0.2,0.4-0.4,0.6-0.6c0.1-0.1,0.2-0.2,0.3-0.3c0.4-0.4,0.8-0.8,1.1-1.3c0.1-0.1,0.2-0.2,0.3-0.4l0,0
				c0.1-0.1,0.2-0.3,0.3-0.4c0.1-0.1,0.2-0.3,0.3-0.4l0.2-0.3c0.1-0.2,0.2-0.4,0.3-0.6c0.1-0.2,0.2-0.3,0.3-0.5
				c0.1-0.2,0.2-0.4,0.3-0.6c0.1-0.2,0.2-0.4,0.3-0.6c0.1-0.1,0.1-0.2,0.2-0.4c0.2-0.4,0.3-0.8,0.4-1.1c0.6-1.8,0.9-3.7,0.9-5.5
				c0-9.4-7.6-17.1-17.1-17.1c-1.6,0-3.1,0.2-4.6,0.6C40.4,52.9,50.8,56.1,55.2,64.4 M60.2,15.5l0.1-1.1c0.1-1-0.4-2-1.3-2.6
				c-1.1-0.7-1.7-1.9-1.5-2.8c0.2-1.1,1.5-2.2,3.1-2.2c1.2,0.7,1.4,1.2,1.8,2.2c0.4,1.1,1,2.5,2.6,3.9c-1,2.2-1.9,4.2-2.6,6l0,0
				C61,17.7,60.6,16.6,60.2,15.5 M52,7.8c-0.5,2.7,0.5,5.5,2.6,7.5l-0.1,1.9c-1.9,1.4-3.5,3.1-4.8,5.2c-1.5,2.5-2.4,5.3-2.6,8.2
				c-3.6-0.4-7.3,0-10.7,1c-8.1,2.5-14.3,9-15.6,12.6c-0.7,1.8-0.3,3,0.2,3.8c1.6,2.5,4.4,1.5,6.9,0.6c2.6-0.9,6.6-2.3,11.5-2
				c4.3,0.2,8.6,1.7,12.7,4.3c0.8,1.4,1.6,2.7,2.5,4c-9.7-8-24-6.7-32,3c-8,9.7-6.7,24,3,32c9.7,8,24,6.7,32-3
				c5.4-6.5,6.7-15.4,3.5-23.1c1.3,1.6,2.1,2.7,2.2,2.7h-0.4V78h36.8c1.1,0,2,0.8,2.2,1.8v0c0.7,2.9,3.6,4.8,6.5,4.1h0l11.9-1.5
				c5.6,11.3,19.3,15.9,30.5,10.2c8-4,13-12.3,12.6-21.3c0-0.4-0.1-0.8-0.3-1.1v0l-0.1-0.1c0,0,0-0.1-0.1-0.1
				c-0.8-1.3-2.6-1.7-3.9-0.9c-0.8,0.5-1.4,1.5-1.3,2.5c0.3,7.5-4.4,14.4-11.5,16.9c-0.3,0.1-0.7,0.2-1,0.3l0.5-0.2l0.4-0.2l0.2-0.1
				c0.6-0.4,1.3-0.8,1.8-1.3c0.1-0.1,0.2-0.1,0.3-0.2c0.3-0.2,0.5-0.5,0.8-0.7c0.1-0.1,0.2-0.2,0.3-0.3c0.4-0.4,0.8-0.8,1.1-1.3
				c0.1-0.1,0.2-0.2,0.3-0.4l0,0c0.1-0.1,0.2-0.3,0.3-0.4c0.1-0.1,0.2-0.3,0.3-0.4l0.1-0.2c0.3-0.5,0.6-1.1,0.9-1.6
				c0.1-0.1,0.1-0.3,0.2-0.4c0.1-0.2,0.2-0.4,0.3-0.6l0.1-0.3c0.1-0.2,0.2-0.5,0.3-0.8c0.6-1.8,0.9-3.7,0.9-5.5c0-1-0.1-1.9-0.2-2.8
				c-1.6-9.3-10.4-15.6-19.7-14c-0.6,0.1-1.2,0.2-1.8,0.4c-0.7,0.4-1.4,0.8-2.1,1.3c1.4-1,2.9-1.8,4.5-2.3c1.7-0.6,3.5-0.9,5.3-0.9
				c1.6,0,2.8-1.2,2.8-2.8c0-1.6-1.2-2.8-2.8-2.8c0,0-0.1,0-0.2,0c-11.1,0.2-20.5,8.5-22.1,19.5l-3.6,1.3v-1c1.5,0,2.7-1.1,2.8-2.6
				c0.3-3.5,1.5-8.7,5.4-13.2c4.9-5.6,11.5-6.9,15-7.5c13.1-2.5,24.4,4.1,28.6,7c1.3,0.9,3,0.6,3.9-0.7c0.7-1,0.7-2.4-0.2-3.4h0
				c-4.4-5.1-9.8-9.3-15.7-12.6l2.4-2.3c0.2-0.1,0.3-0.3,0.4-0.5c0.6-0.9,1-2,1-3.1c0-1.4-0.6-2.8-1.5-3.8c-1-1.1-2.4-1.7-3.9-1.7
				l-0.8,0c-1.6-0.1-2.9,1.1-3,2.7c-0.1,1.6,1.1,2.9,2.7,3l0.7,0l-4.7,4.4c-0.2,0.2-0.3,0.3-0.5,0.6c0,0-0.1,0.1-0.1,0.1
				c0,0.1-0.1,0.1-0.1,0.2c0,0,0,0.1-0.1,0.1c0,0,0,0.1-0.1,0.1l0,0.1c0,0,0,0.1,0,0.1c0,0.1,0,0.2-0.1,0.3l0,0.1v0.1v0.1
				c0,0.1,0,0.2,0,0.4c0,0.1,0,0.2,0,0.3c0,0.1,0,0.2,0.1,0.3c0,0.1,0.1,0.2,0.1,0.3c0,0.1,0,0.1,0.1,0.2c0,0,0,0,0,0
				c0,0.1,0.1,0.1,0.1,0.2c0,0.1,0.1,0.1,0.2,0.2c0,0.1,0.1,0.1,0.2,0.2c0.2,0.2,0.4,0.4,0.7,0.5l0.1,0.1l0.1,0.1
				c0.5,0.2,0.9,0.4,1.4,0.6c-3.2-0.5-6.5-0.6-9.7-0.3l3.3-3.1c0.9-1.2,0.5-2.9-0.7-3.8c-0.4-0.3-1-0.5-1.5-0.5l-38.7-2.2l1-2.7
				l4.7,0.3h0.2c1.6,0,2.8-1.3,2.8-2.9c0-1.5-1.2-2.7-2.6-2.8l-6.7-0.4h-0.2c-0.1,0-0.1,0-0.2,0h-0.1c-0.1,0-0.2,0-0.4,0.1l-0.2,0h0
				c-0.1,0-0.2,0.1-0.3,0.1c-0.1,0-0.2,0.1-0.2,0.1c-0.1,0-0.1,0.1-0.2,0.1c-0.1,0-0.1,0.1-0.2,0.1l-0.1,0.1
				c-0.1,0.1-0.1,0.1-0.2,0.2c-0.1,0.1-0.1,0.2-0.2,0.2l0,0.1l-0.1,0.1L99,23.5c0,0.1-0.1,0.1-0.1,0.2l0,0l0,0.1l-6.2,16.3
				c-0.6,1.5,0.2,3.1,1.6,3.6c0.4,0.1,0.8,0.2,1.2,0.2l6.7-0.5c-0.5,0.4-0.8,0.8-1.1,1c-6,5.9-10.4,13.1-12.9,21.1
				c-0.1,0.3-0.1,0.6-0.1,0.8h-7.4C76.1,63.1,70,54.8,67.3,45.7c-2.8-9.3-4.6-15.4,3.9-32.8c0.7-1.4,0.1-3.1-1.3-3.8
				c-1.6-0.8-1.8-1.3-2.2-2.4c-0.6-1.5-1.4-3.6-4.9-5.4c-0.3-0.1-0.6-0.2-0.9-0.3c-0.5-0.1-0.9-0.1-1.3-0.1
				C56.4,1.1,52.7,3.9,52,7.8"/>
		</defs>
		<clipPath id="SVGID_00000070107576463775713520000016345762642345353622_">
			<use xlink:href="#SVGID_00000064334868587054760230000005430479460312554927_"  style="overflow:visible;"/>
		</clipPath>
		
			<linearGradient id="SVGID_00000066478926717128701560000011949933681985136529_" gradientUnits="userSpaceOnUse" x1="-139.1595" y1="215.3701" x2="-134.7892" y2="215.3701" gradientTransform="matrix(35.1085 0 0 35.1085 4903.0493 -7511.6494)">
			<stop  offset="0" style="stop-color:#EE6F25"/>
			<stop  offset="1.187850e-02" style="stop-color:#EE6F25"/>
			<stop  offset="0.4238" style="stop-color:#CF502D"/>
			<stop  offset="0.9781" style="stop-color:#B12B30"/>
			<stop  offset="1" style="stop-color:#B12B30"/>
		</linearGradient>
		
			<rect x="14.6" y="1.1" style="clip-path:url(#SVGID_00000070107576463775713520000016345762642345353622_);fill:url(#SVGID_00000066478926717128701560000011949933681985136529_);" width="156.4" height="97.1"/>
	</g>
	<g>
		<defs>
			<path id="SVGID_00000157993192689983918670000002408690090252096143_" d="M143.2,25.1c-1.2,1-1.3,2.8-0.2,4
				c0.5,0.6,1.2,0.9,2,0.9h0.2c1.5,0,2.7-1.2,2.8-2.7c0-0.7-0.2-1.5-0.7-2h0c-0.6-0.6-1.3-0.9-2.1-0.9
				C144.4,24.4,143.8,24.6,143.2,25.1 M120,25.8c-0.1,1.6,1.1,2.9,2.7,3l14.5,0.8h0.2c1.6,0,2.8-1.2,2.8-2.8c0-1.5-1.2-2.8-2.7-2.8
				v0L123,23.1c0,0-0.1,0-0.2,0C121.3,23.1,120.1,24.3,120,25.8 M114.2,23.5c-1.2,1-1.3,2.8-0.2,4c0.5,0.6,1.2,0.9,1.9,0.9h0.2
				c1.6,0,2.8-1.3,2.8-2.8c0-0.7-0.3-1.4-0.7-1.9v0c-0.6-0.6-1.3-0.9-2.1-0.9C115.4,22.8,114.7,23,114.2,23.5 M101.6,21.9h0.2h0.1
				H101.6z"/>
		</defs>
		<clipPath id="SVGID_00000108275149317668798480000016787986461347631010_">
			<use xlink:href="#SVGID_00000157993192689983918670000002408690090252096143_"  style="overflow:visible;"/>
		</clipPath>
		
			<linearGradient id="SVGID_00000170264712845225356270000011363037336151472823_" gradientUnits="userSpaceOnUse" x1="-132.8547" y1="209.8879" x2="-128.4844" y2="209.8879" gradientTransform="matrix(10.613 0 0 10.613 1511.5646 -2201.5437)">
			<stop  offset="0" style="stop-color:#EE6F25"/>
			<stop  offset="1.187850e-02" style="stop-color:#EE6F25"/>
			<stop  offset="0.4238" style="stop-color:#CF502D"/>
			<stop  offset="0.9781" style="stop-color:#B12B30"/>
			<stop  offset="1" style="stop-color:#B12B30"/>
		</linearGradient>
		
			<rect x="101.6" y="21.9" style="clip-path:url(#SVGID_00000108275149317668798480000016787986461347631010_);fill:url(#SVGID_00000170264712845225356270000011363037336151472823_);" width="46.4" height="8.1"/>
	</g>
	<g>
		<defs>
			<path id="SVGID_00000072969474480255493180000017279684928291526335_" d="M146.7,37.1L146.7,37.1 M146.7,37.1c0,0.1,0,0.1,0,0.2
				C146.7,37.2,146.7,37.2,146.7,37.1 M146.7,37.1c0-0.1,0-0.1,0-0.2C146.7,37,146.7,37,146.7,37.1"/>
		</defs>
		<clipPath id="SVGID_00000027589915220485690900000009066414503365214370_">
			<use xlink:href="#SVGID_00000072969474480255493180000017279684928291526335_"  style="overflow:visible;"/>
		</clipPath>
		
			<linearGradient id="SVGID_00000181049752906165513650000018064743086155934113_" gradientUnits="userSpaceOnUse" x1="146.6993" y1="37.0965" x2="146.7036" y2="37.0965" gradientTransform="matrix(3.500000e-06 0 0 3.500000e-06 26.5601 179.1183)">
			<stop  offset="0" style="stop-color:#EE6F25"/>
			<stop  offset="1.187850e-02" style="stop-color:#EE6F25"/>
			<stop  offset="0.4238" style="stop-color:#CF502D"/>
			<stop  offset="0.9781" style="stop-color:#B12B30"/>
			<stop  offset="1" style="stop-color:#B12B30"/>
		</linearGradient>
		
			<rect x="146.7" y="36.9" style="clip-path:url(#SVGID_00000027589915220485690900000009066414503365214370_);fill:url(#SVGID_00000181049752906165513650000018064743086155934113_);" width="0" height="0.4"/>
	</g>
	<g>
		<defs>
			<path id="SVGID_00000000919729315347860490000016772426482416942257_" d="M63.5,96L63.5,96H3.7c-0.2,0-0.3,0-0.5,0
				c-1.3,0-2.3,0.1-2.3,1.5c0,1.6,1.3,1.5,2.8,1.5h59.8c1.6,0,2.8,0.1,2.8-1.5c0-1.4-1-1.5-2.4-1.5H63.5z M91.9,96h-9.9
				c-1.1,0-2.1,0.6-2.6,1.6C79,96.6,78,96,76.9,96h-0.5c-0.2,0-0.3,0-0.5,0c-1.3,0-2.4,0.1-2.4,1.5c0,1.6,1.3,1.5,2.8,1.5h0.5
				c1.1,0,2.1,0,2.6-1c0.5,1,1.5,1,2.6,1h9.9c1.6,0,2.8,0.1,2.8-1.5c0-1.4-1-1.5-2.4-1.5H91.9z M117.5,96L117.5,96h-5.1
				c-1.1,0-2.1,0.6-2.6,1.6c-0.5-1-1.5-1.6-2.6-1.6h-0.5c-0.2,0-0.3,0-0.5,0c-1.3,0-2.4,0.1-2.4,1.5c0,1.6,1.3,1.5,2.8,1.5h0.5
				c1.1,0,2.1,0,2.6-1c0.5,1,1.5,1,2.6,1h5.1c1.6,0,2.8,0.1,2.8-1.5c0-1.4-1-1.5-2.4-1.5H117.5z M178.1,96h-52.4c-0.2,0-0.3,0-0.5,0
				c-1.3,0-2.3,0.1-2.3,1.5c0,1.6,1.3,1.5,2.8,1.5h52.4c1.6,0,2.8,0.1,2.8-1.5c0-1.4-1-1.5-2.4-1.5H178.1z"/>
		</defs>
		<clipPath id="SVGID_00000044165950841526011770000015655771278645977245_">
			<use xlink:href="#SVGID_00000000919729315347860490000016772426482416942257_"  style="overflow:visible;"/>
		</clipPath>
		
			<linearGradient id="SVGID_00000045607696896743785540000007091496689832152990_" gradientUnits="userSpaceOnUse" x1="-139.4797" y1="216.5062" x2="-135.1095" y2="216.5062" gradientTransform="matrix(41.197 0 0 41.197 5747.0469 -8821.9307)">
			<stop  offset="0" style="stop-color:#EE6F25"/>
			<stop  offset="1.187850e-02" style="stop-color:#EE6F25"/>
			<stop  offset="0.4238" style="stop-color:#CF502D"/>
			<stop  offset="0.9781" style="stop-color:#B12B30"/>
			<stop  offset="1" style="stop-color:#B12B30"/>
		</linearGradient>
		
			<rect x="0.9" y="96" style="clip-path:url(#SVGID_00000044165950841526011770000015655771278645977245_);fill:url(#SVGID_00000045607696896743785540000007091496689832152990_);" width="180" height="3"/>
	</g>
</g>
</svg>
