<?xml version="1.0" encoding="utf-8"?>
<!-- Generator: Adobe Illustrator 27.8.1, SVG Export Plug-In . SVG Version: 6.00 Build 0)  -->
<svg version="1.1" id="Layer_1" xmlns="http://www.w3.org/2000/svg" xmlns:xlink="http://www.w3.org/1999/xlink" x="0px" y="0px"
	 viewBox="0 0 273.8 100" style="enable-background:new 0 0 273.8 100;" xml:space="preserve">
<style type="text/css">
	
		.st0{clip-path:url(#SVGID_00000095301042115392299240000006063752076194672307_);fill:url(#SVGID_00000032626745232348093910000009118406301624025233_);}
	
		.st1{clip-path:url(#SVGID_00000164474914391592346850000005081514704414956465_);fill:url(#SVGID_00000017492571453931244070000007889362629282704562_);}
	
		.st2{clip-path:url(#SVGID_00000128443264449929466580000016917061873682177703_);fill:url(#SVGID_00000065070935433605702770000010096103734611007916_);}
	
		.st3{clip-path:url(#SVGID_00000061433102804363205400000004392720726354402721_);fill:url(#SVGID_00000134247636632680262030000017745339986047992461_);}
	
		.st4{clip-path:url(#SVGID_00000060719526454673052520000012309917668732694179_);fill:url(#SVGID_00000135660852736202093570000012136308628303732897_);}
	
		.st5{clip-path:url(#SVGID_00000000940503145560294860000017602305469274602413_);fill:url(#SVGID_00000124875161427742107530000010257960402657070985_);}
	
		.st6{clip-path:url(#SVGID_00000140730172251502261820000016890837707593945007_);fill:url(#SVGID_00000175283259438948235360000013301449228178464409_);}
</style>
<g>
	<g>
		<defs>
			<path id="SVGID_1_" d="M57,70.2c-2.6,0-5.1,1.5-6.2,3.9l-3.7,8h180.2l-3.7-8c-1.1-2.4-3.5-3.9-6.2-3.9H57z"/>
		</defs>
		<clipPath id="SVGID_00000156571025205200941530000009615970263997237434_">
			<use xlink:href="#SVGID_1_"  style="overflow:visible;"/>
		</clipPath>
		
			<linearGradient id="SVGID_00000178923443746329399340000007137874015344227202_" gradientUnits="userSpaceOnUse" x1="-94.5567" y1="220.804" x2="-89.0132" y2="220.804" gradientTransform="matrix(32.505 0 0 32.505 3120.6257 -7101.0229)">
			<stop  offset="0" style="stop-color:#EE6F25"/>
			<stop  offset="1.187850e-02" style="stop-color:#EE6F25"/>
			<stop  offset="0.4238" style="stop-color:#CF502D"/>
			<stop  offset="0.9781" style="stop-color:#B12B30"/>
			<stop  offset="1" style="stop-color:#B12B30"/>
		</linearGradient>
		
			<rect x="47.1" y="70.2" style="clip-path:url(#SVGID_00000156571025205200941530000009615970263997237434_);fill:url(#SVGID_00000178923443746329399340000007137874015344227202_);" width="180.2" height="12"/>
	</g>
	<g>
		<defs>
			<polygon id="SVGID_00000101806296014129939510000018242783868371449521_" points="44.6,87.5 39,99.5 235.3,99.5 229.8,87.5 			
				"/>
		</defs>
		<clipPath id="SVGID_00000032612767225054955370000008981663096229762455_">
			<use xlink:href="#SVGID_00000101806296014129939510000018242783868371449521_"  style="overflow:visible;"/>
		</clipPath>
		
			<linearGradient id="SVGID_00000174568291949521142740000014037824700830075825_" gradientUnits="userSpaceOnUse" x1="-94.7072" y1="220.8929" x2="-89.1635" y2="220.8929" gradientTransform="matrix(35.402 0 0 35.402 3391.8408 -7726.5542)">
			<stop  offset="0" style="stop-color:#EE6F25"/>
			<stop  offset="1.187850e-02" style="stop-color:#EE6F25"/>
			<stop  offset="0.4238" style="stop-color:#CF502D"/>
			<stop  offset="0.9781" style="stop-color:#B12B30"/>
			<stop  offset="1" style="stop-color:#B12B30"/>
		</linearGradient>
		
			<rect x="39" y="87.5" style="clip-path:url(#SVGID_00000032612767225054955370000008981663096229762455_);fill:url(#SVGID_00000174568291949521142740000014037824700830075825_);" width="196.3" height="12"/>
	</g>
	<g>
		<defs>
			<path id="SVGID_00000078724892830596585620000016557256358756528299_" d="M172.7,30.3c0-6,4.9-10.9,10.9-10.9
				c6,0,10.9,4.9,10.9,10.9c0,6-4.9,10.9-10.9,10.9C177.6,41.1,172.7,36.3,172.7,30.3 M202.5,30.3c0-6,4.9-10.9,10.9-10.9
				c5.9,0,10.9,4.9,10.9,10.9c0,6-4.9,10.9-10.9,10.9C207.4,41.1,202.5,36.3,202.5,30.3 M232.3,30.3c0-6,4.9-10.9,10.9-10.9
				s10.9,4.9,10.9,10.9c0,6-4.9,10.9-10.9,10.9S232.3,36.3,232.3,30.3 M18.6,41.1V19.5c0-1.5,1.2-2.7,2.7-2.7h45.3
				c1.5,0,2.7,1.2,2.7,2.7v21.7c0,1.4-1.2,2.6-2.7,2.6H21.4C19.9,43.8,18.6,42.6,18.6,41.1 M12.9,0.5C6.6,0.5,1.3,5.7,1.3,12v75.9
				c0,6.4,5.2,11.6,11.6,11.6h20.2l12.8-27.6c2-4.3,6.3-7,11.1-7h160.3c4.7,0,9.1,2.7,11.1,7l12.8,27.6h20.2
				c6.3,0,11.5-5.2,11.5-11.6V12c0-6.4-5.1-11.5-11.5-11.5H12.9z"/>
		</defs>
		<clipPath id="SVGID_00000010302344800198921140000009988765686423465629_">
			<use xlink:href="#SVGID_00000078724892830596585620000016557256358756528299_"  style="overflow:visible;"/>
		</clipPath>
		
			<linearGradient id="SVGID_00000102536411208947533740000009681747805943648429_" gradientUnits="userSpaceOnUse" x1="-95.1748" y1="219.0851" x2="-89.6313" y2="219.0851" gradientTransform="matrix(49 0 0 49 4664.8809 -10685.1582)">
			<stop  offset="0" style="stop-color:#EE6F25"/>
			<stop  offset="1.187850e-02" style="stop-color:#EE6F25"/>
			<stop  offset="0.4238" style="stop-color:#CF502D"/>
			<stop  offset="0.9781" style="stop-color:#B12B30"/>
			<stop  offset="1" style="stop-color:#B12B30"/>
		</linearGradient>
		
			<rect x="1.3" y="0.5" style="clip-path:url(#SVGID_00000010302344800198921140000009988765686423465629_);fill:url(#SVGID_00000102536411208947533740000009681747805943648429_);" width="271.6" height="98.9"/>
	</g>
	<g>
		<defs>
			<rect id="SVGID_00000154411717119663614230000007616921480792369037_" x="24" y="22.1" width="40" height="16.3"/>
		</defs>
		<clipPath id="SVGID_00000098218674136639726760000006002373860078609590_">
			<use xlink:href="#SVGID_00000154411717119663614230000007616921480792369037_"  style="overflow:visible;"/>
		</clipPath>
		
			<linearGradient id="SVGID_00000170996896486444657590000017360255152332727964_" gradientUnits="userSpaceOnUse" x1="-98.7029" y1="228.9098" x2="-93.1594" y2="228.9098" gradientTransform="matrix(7.221 0 0 7.221 736.7385 -1622.6858)">
			<stop  offset="0" style="stop-color:#EE6F25"/>
			<stop  offset="1.187850e-02" style="stop-color:#EE6F25"/>
			<stop  offset="0.4238" style="stop-color:#CF502D"/>
			<stop  offset="0.9781" style="stop-color:#B12B30"/>
			<stop  offset="1" style="stop-color:#B12B30"/>
		</linearGradient>
		
			<rect x="24" y="22.1" style="clip-path:url(#SVGID_00000098218674136639726760000006002373860078609590_);fill:url(#SVGID_00000170996896486444657590000017360255152332727964_);" width="40" height="16.3"/>
	</g>
	<g>
		<defs>
			<path id="SVGID_00000029013721157706577320000017456887382065136316_" d="M237.7,30.3c0,3.1,2.5,5.5,5.5,5.5c3,0,5.5-2.4,5.5-5.5
				c0-3-2.5-5.5-5.5-5.5C240.1,24.8,237.7,27.3,237.7,30.3"/>
		</defs>
		<clipPath id="SVGID_00000078755938152857170400000008703642909555308946_">
			<use xlink:href="#SVGID_00000029013721157706577320000017456887382065136316_"  style="overflow:visible;"/>
		</clipPath>
		
			<linearGradient id="SVGID_00000059273623866201686310000011906038671064058022_" gradientUnits="userSpaceOnUse" x1="-22.5532" y1="260.3249" x2="-17.0097" y2="260.3249" gradientTransform="matrix(1.985 0 0 1.985 282.4754 -486.4716)">
			<stop  offset="0" style="stop-color:#EE6F25"/>
			<stop  offset="1.187850e-02" style="stop-color:#EE6F25"/>
			<stop  offset="0.4238" style="stop-color:#CF502D"/>
			<stop  offset="0.9781" style="stop-color:#B12B30"/>
			<stop  offset="1" style="stop-color:#B12B30"/>
		</linearGradient>
		
			<rect x="237.7" y="24.8" style="clip-path:url(#SVGID_00000078755938152857170400000008703642909555308946_);fill:url(#SVGID_00000059273623866201686310000011906038671064058022_);" width="11" height="11"/>
	</g>
	<g>
		<defs>
			<path id="SVGID_00000006702459842778551000000010374642082359766196_" d="M207.8,30.3c0,3.1,2.5,5.5,5.6,5.5c3,0,5.5-2.4,5.5-5.5
				c0-3-2.5-5.5-5.5-5.5C210.3,24.8,207.8,27.3,207.8,30.3"/>
		</defs>
		<clipPath id="SVGID_00000140693075830313194070000000446047265801492385_">
			<use xlink:href="#SVGID_00000006702459842778551000000010374642082359766196_"  style="overflow:visible;"/>
		</clipPath>
		
			<linearGradient id="SVGID_00000034771755036247607260000014914306592291670404_" gradientUnits="userSpaceOnUse" x1="-35.2731" y1="260.043" x2="-29.7296" y2="260.043" gradientTransform="matrix(1.998 0 0 1.998 278.309 -489.2927)">
			<stop  offset="0" style="stop-color:#EE6F25"/>
			<stop  offset="1.187850e-02" style="stop-color:#EE6F25"/>
			<stop  offset="0.4238" style="stop-color:#CF502D"/>
			<stop  offset="0.9781" style="stop-color:#B12B30"/>
			<stop  offset="1" style="stop-color:#B12B30"/>
		</linearGradient>
		
			<rect x="207.8" y="24.8" style="clip-path:url(#SVGID_00000140693075830313194070000000446047265801492385_);fill:url(#SVGID_00000034771755036247607260000014914306592291670404_);" width="11.1" height="11"/>
	</g>
	<g>
		<defs>
			<path id="SVGID_00000068663304186102700990000016878024474430746242_" d="M178,30.3c0,3.1,2.5,5.5,5.5,5.5c3.1,0,5.6-2.4,5.6-5.5
				c0-3-2.5-5.5-5.6-5.5C180.5,24.8,178,27.3,178,30.3"/>
		</defs>
		<clipPath id="SVGID_00000139295938375999972090000017611390095352828819_">
			<use xlink:href="#SVGID_00000068663304186102700990000016878024474430746242_"  style="overflow:visible;"/>
		</clipPath>
		
			<linearGradient id="SVGID_00000152249384422402025420000007891484074025470858_" gradientUnits="userSpaceOnUse" x1="-47.48" y1="260.0647" x2="-41.9364" y2="260.0647" gradientTransform="matrix(1.997 0 0 1.997 272.8372 -489.0742)">
			<stop  offset="0" style="stop-color:#EE6F25"/>
			<stop  offset="1.187850e-02" style="stop-color:#EE6F25"/>
			<stop  offset="0.4238" style="stop-color:#CF502D"/>
			<stop  offset="0.9781" style="stop-color:#B12B30"/>
			<stop  offset="1" style="stop-color:#B12B30"/>
		</linearGradient>
		
			<rect x="178" y="24.8" style="clip-path:url(#SVGID_00000139295938375999972090000017611390095352828819_);fill:url(#SVGID_00000152249384422402025420000007891484074025470858_);" width="11.1" height="11"/>
	</g>
</g>
</svg>
