<?xml version="1.0" encoding="utf-8"?>
<!-- Generator: Adobe Illustrator 27.8.1, SVG Export Plug-In . SVG Version: 6.00 Build 0)  -->
<svg version="1.1" id="Layer_1" xmlns="http://www.w3.org/2000/svg" xmlns:xlink="http://www.w3.org/1999/xlink" x="0px" y="0px"
	 viewBox="0 0 100.2 100" style="enable-background:new 0 0 100.2 100;" xml:space="preserve">
<style type="text/css">
	.st0{fill:none;}
	
		.st1{clip-path:url(#SVGID_00000134237020937864219000000009605485853567862447_);fill:url(#SVGID_00000036937345765924273910000003754071463125284752_);}
	
		.st2{clip-path:url(#SVGID_00000176002533914776091000000014055701832408687516_);fill:url(#SVGID_00000178196560426407360900000011457276297817869446_);}
	
		.st3{clip-path:url(#SVGID_00000135681647057319628290000006100551111113343366_);fill:url(#SVGID_00000034810884659398012040000016639432736205619848_);}
	
		.st4{clip-path:url(#SVGID_00000054239376111785217710000008638499207566869917_);fill:url(#SVGID_00000170261543771390027960000001860530296079227045_);}
	
		.st5{clip-path:url(#SVGID_00000095332762031128054800000000263476035778959255_);fill:url(#SVGID_00000000945032770748553470000015519980592472491914_);}
	
		.st6{clip-path:url(#SVGID_00000155133749124113884680000000578290542240083087_);fill:url(#SVGID_00000008865267638103125560000015823003393051473799_);}
	
		.st7{clip-path:url(#SVGID_00000114040906557510482440000012606340806104164543_);fill:url(#SVGID_00000056423774668583637330000010224107361264229301_);}
	
		.st8{clip-path:url(#SVGID_00000015347879334827223140000005497410694552832663_);fill:url(#SVGID_00000138548192590314484510000004726494677346334600_);}
</style>
<rect x="-134.2" y="-97.7" class="st0" width="465.9" height="333.3"/>
<rect x="-134.2" y="-97.7" class="st0" width="465.9" height="333.3"/>
<rect x="-134.2" y="-97.7" class="st0" width="465.9" height="333.3"/>
<rect x="-134.2" y="-97.7" class="st0" width="465.9" height="333.3"/>
<g>
	<g>
		<defs>
			<path id="SVGID_1_" d="M14.3,69.8h13.6v2.5v21v3.7H14.3V69.8z M56.1,62.2l-13.6,8.7c-0.5,0-1,0.1-1.6,0.1H30.4v-2.5
				c0-0.7-0.6-1.2-1.2-1.2H2c-0.7,0-1.2,0.6-1.2,1.2v29.6c0,0.7,0.6,1.2,1.2,1.2h27.2c0.7,0,1.2-0.6,1.2-1.2v-3.6L57,96.7
				c0.3,0,0.6,0,0.8,0c3.5,0,7-0.7,10.1-2.1l28.3-12.7c2-0.9,3.2-2.9,3.2-5.1v0c0-1.8-0.8-3.4-2.3-4.5c-1.4-1.1-3.2-1.4-4.9-0.9
				l-2.7,0.8c0-1.3-0.6-2.5-1.7-3.2c-1.1-0.8-2.4-1-3.7-0.6L58,77.2l5.7-5.7c1.1-1.1,1.8-2.7,1.8-4.3c0-1.6-0.6-3.1-1.8-4.3
				c-1.2-1.2-2.7-1.8-4.3-1.8C58.2,61.2,57.1,61.5,56.1,62.2"/>
		</defs>
		<clipPath id="SVGID_00000065068619806001423710000010286886646513000072_">
			<use xlink:href="#SVGID_1_"  style="overflow:visible;"/>
		</clipPath>
		
			<linearGradient id="SVGID_00000008843969621241398770000010370754476514258052_" gradientUnits="userSpaceOnUse" x1="-176.5853" y1="139.5745" x2="-173.6252" y2="139.5745" gradientTransform="matrix(33.379 0 0 33.379 5894.9575 -4578.5449)">
			<stop  offset="0" style="stop-color:#EE6F25"/>
			<stop  offset="1.187850e-02" style="stop-color:#EE6F25"/>
			<stop  offset="0.4238" style="stop-color:#CF502D"/>
			<stop  offset="0.9781" style="stop-color:#B12B30"/>
			<stop  offset="1" style="stop-color:#B12B30"/>
		</linearGradient>
		
			<rect x="0.7" y="61.2" style="clip-path:url(#SVGID_00000065068619806001423710000010286886646513000072_);fill:url(#SVGID_00000008843969621241398770000010370754476514258052_);" width="98.8" height="38.2"/>
	</g>
	<g>
		<defs>
			<path id="SVGID_00000100366628797296263260000002480232283198181278_" d="M18,77.2c0-1.4,1.1-2.5,2.5-2.5c1.4,0,2.5,1.1,2.5,2.5
				s-1.1,2.5-2.5,2.5C19.1,79.6,18,78.5,18,77.2 M15.5,77.2c0,2.7,2.2,4.9,4.9,4.9s4.9-2.2,4.9-4.9c0-2.7-2.2-4.9-4.9-4.9
				S15.5,74.4,15.5,77.2"/>
		</defs>
		<clipPath id="SVGID_00000011033545260212689270000007776099257472941717_">
			<use xlink:href="#SVGID_00000100366628797296263260000002480232283198181278_"  style="overflow:visible;"/>
		</clipPath>
		
			<linearGradient id="SVGID_00000047021291582450440200000007673126261630448013_" gradientUnits="userSpaceOnUse" x1="-138.2336" y1="153.1213" x2="-135.2736" y2="153.1213" gradientTransform="matrix(3.338 0 0 3.338 476.9622 -433.9476)">
			<stop  offset="0" style="stop-color:#EE6F25"/>
			<stop  offset="1.187850e-02" style="stop-color:#EE6F25"/>
			<stop  offset="0.4238" style="stop-color:#CF502D"/>
			<stop  offset="0.9781" style="stop-color:#B12B30"/>
			<stop  offset="1" style="stop-color:#B12B30"/>
		</linearGradient>
		
			<rect x="15.5" y="72.2" style="clip-path:url(#SVGID_00000011033545260212689270000007776099257472941717_);fill:url(#SVGID_00000047021291582450440200000007673126261630448013_);" width="9.9" height="9.9"/>
	</g>
	<g>
		<defs>
			<path id="SVGID_00000135677332079981574050000013597122310169482116_" d="M37.3,33.1c-0.1-0.8-0.1-1.5-0.1-2.3
				c0-2.2,0.3-4.4,0.8-6.6l26.6,8.9c0.1,0,0.3,0.1,0.4,0.1h27.7C91.5,47.6,79.6,58.6,65,58.6c-5.7,0-11.1-1.7-15.7-4.9
				c0.1-0.1,0.1-0.2,0.2-0.3c1.2-2.1,1.8-4.4,1.8-6.8c0-2.4-0.6-4.7-1.8-6.8c-2.4-4.2-6.9-6.8-11.7-6.8L37.3,33.1
				C37.3,33.2,37.3,33.2,37.3,33.1 M46.5,10.2c4.8-4.3,10.8-6.8,17.3-7.1v25.7L46.5,10.2z M43.9,9.2C43.9,9.2,43.9,9.2,43.9,9.2
				c-3.7,3.6-6.5,8.2-7.9,13.1h0c-0.8,2.8-1.2,5.6-1.2,8.5c0,0.9,0.1,1.7,0.1,2.6c-3.7,0.8-6.9,3.1-8.9,6.4
				c-1.2,2.1-1.8,4.4-1.8,6.8c0,2.4,0.6,4.7,1.8,6.8c2.4,4.2,6.9,6.8,11.7,6.8c3.9,0,7.5-1.6,10.1-4.5c5.1,3.5,11,5.4,17.2,5.4
				c16.3,0,29.6-12.8,30.2-29.1v0c0-0.4,0-0.8,0-1.2C95.3,14.2,81.7,0.6,65,0.6C57.1,0.6,49.6,3.7,43.9,9.2"/>
		</defs>
		<clipPath id="SVGID_00000176020714390441538050000006785795844932061353_">
			<use xlink:href="#SVGID_00000135677332079981574050000013597122310169482116_"  style="overflow:visible;"/>
		</clipPath>
		
			<linearGradient id="SVGID_00000096027497492399940280000014876073495923478918_" gradientUnits="userSpaceOnUse" x1="-174.4029" y1="138.8249" x2="-171.443" y2="138.8249" gradientTransform="matrix(24.011 0 0 24.011 4211.7739 -3302.4692)">
			<stop  offset="0" style="stop-color:#EE6F25"/>
			<stop  offset="1.187850e-02" style="stop-color:#EE6F25"/>
			<stop  offset="0.4238" style="stop-color:#CF502D"/>
			<stop  offset="0.9781" style="stop-color:#B12B30"/>
			<stop  offset="1" style="stop-color:#B12B30"/>
		</linearGradient>
		
			<rect x="24.2" y="0.6" style="clip-path:url(#SVGID_00000176020714390441538050000006785795844932061353_);fill:url(#SVGID_00000096027497492399940280000014876073495923478918_);" width="71.1" height="60.5"/>
	</g>
	<g>
		<defs>
			<path id="SVGID_00000176039608250119655610000011142563401743932084_" d="M55.7,37c0-0.3,0.2-0.5,0.5-0.5c0.3,0,0.5,0.2,0.5,0.5
				c0,0.3-0.2,0.5-0.5,0.5C55.9,37.5,55.7,37.3,55.7,37 M53.2,37c0,1.7,1.3,3,3,3c1.7,0,3-1.3,3-3s-1.3-3-3-3
				C54.6,34,53.2,35.4,53.2,37"/>
		</defs>
		<clipPath id="SVGID_00000156585014675728324200000003527901078409267847_">
			<use xlink:href="#SVGID_00000176039608250119655610000011142563401743932084_"  style="overflow:visible;"/>
		</clipPath>
		
			<linearGradient id="SVGID_00000102504283485718094730000005044356706330232721_" gradientUnits="userSpaceOnUse" x1="-98.4577" y1="149.8" x2="-95.4977" y2="149.8" gradientTransform="matrix(2.024 0 0 2.024 252.4858 -266.1838)">
			<stop  offset="0" style="stop-color:#EE6F25"/>
			<stop  offset="1.187850e-02" style="stop-color:#EE6F25"/>
			<stop  offset="0.4238" style="stop-color:#CF502D"/>
			<stop  offset="0.9781" style="stop-color:#B12B30"/>
			<stop  offset="1" style="stop-color:#B12B30"/>
		</linearGradient>
		
			<rect x="53.2" y="34" style="clip-path:url(#SVGID_00000156585014675728324200000003527901078409267847_);fill:url(#SVGID_00000102504283485718094730000005044356706330232721_);" width="6" height="6"/>
	</g>
	<g>
		<defs>
			<path id="SVGID_00000047018126688836909140000003785440317956338830_" d="M62.4,35.8c-0.7,0-1.2,0.6-1.2,1.2
				c0,0.7,0.6,1.2,1.2,1.2h19.3c0.7,0,1.2-0.6,1.2-1.2c0-0.7-0.6-1.2-1.2-1.2H62.4z"/>
		</defs>
		<clipPath id="SVGID_00000021084147433544636840000015535492607335699647_">
			<use xlink:href="#SVGID_00000047018126688836909140000003785440317956338830_"  style="overflow:visible;"/>
		</clipPath>
		
			<linearGradient id="SVGID_00000125587757958698820120000006643283455998723252_" gradientUnits="userSpaceOnUse" x1="-157.2786" y1="141.2396" x2="-154.3187" y2="141.2396" gradientTransform="matrix(7.372 0 0 7.372 1220.5791 -1004.2071)">
			<stop  offset="0" style="stop-color:#EE6F25"/>
			<stop  offset="1.187850e-02" style="stop-color:#EE6F25"/>
			<stop  offset="0.4238" style="stop-color:#CF502D"/>
			<stop  offset="0.9781" style="stop-color:#B12B30"/>
			<stop  offset="1" style="stop-color:#B12B30"/>
		</linearGradient>
		
			<rect x="61.1" y="35.8" style="clip-path:url(#SVGID_00000021084147433544636840000015535492607335699647_);fill:url(#SVGID_00000125587757958698820120000006643283455998723252_);" width="21.8" height="2.5"/>
	</g>
	<g>
		<defs>
			<path id="SVGID_00000095311423123365091660000003061372143925077692_" d="M55.7,45.6c0-0.3,0.2-0.5,0.5-0.5
				c0.3,0,0.5,0.2,0.5,0.5s-0.2,0.5-0.5,0.5C55.9,46.2,55.7,45.9,55.7,45.6 M53.2,45.6c0,1.7,1.3,3,3,3c1.7,0,3-1.3,3-3s-1.3-3-3-3
				C54.6,42.6,53.2,44,53.2,45.6"/>
		</defs>
		<clipPath id="SVGID_00000106107345198800142990000011844114068421312178_">
			<use xlink:href="#SVGID_00000095311423123365091660000003061372143925077692_"  style="overflow:visible;"/>
		</clipPath>
		
			<linearGradient id="SVGID_00000060006651791038706240000006816415395621888150_" gradientUnits="userSpaceOnUse" x1="-98.4577" y1="152.6223" x2="-95.4977" y2="152.6223" gradientTransform="matrix(2.024 0 0 2.024 252.4858 -263.2693)">
			<stop  offset="0" style="stop-color:#EE6F25"/>
			<stop  offset="1.187850e-02" style="stop-color:#EE6F25"/>
			<stop  offset="0.4238" style="stop-color:#CF502D"/>
			<stop  offset="0.9781" style="stop-color:#B12B30"/>
			<stop  offset="1" style="stop-color:#B12B30"/>
		</linearGradient>
		
			<rect x="53.2" y="42.6" style="clip-path:url(#SVGID_00000106107345198800142990000011844114068421312178_);fill:url(#SVGID_00000060006651791038706240000006816415395621888150_);" width="6" height="6"/>
	</g>
	<g>
		<defs>
			<path id="SVGID_00000156562138295979288810000012390048833674522535_" d="M62.4,44.4c-0.7,0-1.2,0.6-1.2,1.2
				c0,0.7,0.6,1.2,1.2,1.2h19.3c0.7,0,1.2-0.6,1.2-1.2c0-0.7-0.6-1.2-1.2-1.2H62.4z"/>
		</defs>
		<clipPath id="SVGID_00000096043850926292644820000014169001090531829140_">
			<use xlink:href="#SVGID_00000156562138295979288810000012390048833674522535_"  style="overflow:visible;"/>
		</clipPath>
		
			<linearGradient id="SVGID_00000134221909881641381660000011902193863974690997_" gradientUnits="userSpaceOnUse" x1="-157.2786" y1="142.0146" x2="-154.3187" y2="142.0146" gradientTransform="matrix(7.372 0 0 7.372 1220.5791 -1001.2921)">
			<stop  offset="0" style="stop-color:#EE6F25"/>
			<stop  offset="1.187850e-02" style="stop-color:#EE6F25"/>
			<stop  offset="0.4238" style="stop-color:#CF502D"/>
			<stop  offset="0.9781" style="stop-color:#B12B30"/>
			<stop  offset="1" style="stop-color:#B12B30"/>
		</linearGradient>
		
			<rect x="61.1" y="44.4" style="clip-path:url(#SVGID_00000096043850926292644820000014169001090531829140_);fill:url(#SVGID_00000134221909881641381660000011902193863974690997_);" width="21.8" height="2.5"/>
	</g>
	<g>
		<defs>
			<path id="SVGID_00000158007340018983483100000018151305468524777621_" d="M33,38.8c0,0-0.3,0.5-1,1.6v0.1h2.7
				c0.4,0,1,0.1,1.5,0.3c0.8,0.3,1.3,0.8,1.6,1.5v0H33c0,0-0.4,0.5-1,1.6c0,0,0,0.1,0.1,0.1h6c0,0.2,0,0.5-0.1,0.7
				c-0.5,1.6-1.9,2.5-4.1,2.5c-0.5,0-0.9,0-1.2-0.1l0,0.1v1.6c0,0,2,2.7,5.9,7.9h2.2c0,0,0.1,0,0.1-0.1v-0.3l-5-6.8
				c-0.4-0.6-0.7-0.9-0.7-1v0c0.9,0,1.8-0.3,2.8-0.8c0.5-0.2,1.1-0.8,1.7-1.6c0.4-0.8,0.7-1.5,0.7-2h1.9c0,0,0.3-0.6,1-1.7
				c0,0,0,0-0.1-0.1h-2.9c-0.1-0.7-0.4-1.3-0.8-1.8h2.7c0.1-0.1,0.4-0.6,1-1.7v0H33z"/>
		</defs>
		<clipPath id="SVGID_00000143594540394738543600000008629438675193499049_">
			<use xlink:href="#SVGID_00000158007340018983483100000018151305468524777621_"  style="overflow:visible;"/>
		</clipPath>
		
			<linearGradient id="SVGID_00000103962533036931943740000014390142533332381063_" gradientUnits="userSpaceOnUse" x1="-140.1534" y1="146.2291" x2="-137.1934" y2="146.2291" gradientTransform="matrix(3.767 0 0 3.767 559.9714 -503.0868)">
			<stop  offset="0" style="stop-color:#EE6F25"/>
			<stop  offset="1.187850e-02" style="stop-color:#EE6F25"/>
			<stop  offset="0.4238" style="stop-color:#CF502D"/>
			<stop  offset="0.9781" style="stop-color:#B12B30"/>
			<stop  offset="1" style="stop-color:#B12B30"/>
		</linearGradient>
		
			<rect x="32" y="38.8" style="clip-path:url(#SVGID_00000143594540394738543600000008629438675193499049_);fill:url(#SVGID_00000103962533036931943740000014390142533332381063_);" width="11.2" height="17.8"/>
	</g>
</g>
</svg>
