<?xml version="1.0" encoding="utf-8"?>
<!-- Generator: Adobe Illustrator 27.8.1, SVG Export Plug-In . SVG Version: 6.00 Build 0)  -->
<svg version="1.1" id="Layer_1" xmlns="http://www.w3.org/2000/svg" xmlns:xlink="http://www.w3.org/1999/xlink" x="0px" y="0px"
	 viewBox="0 0 72.9 100" style="enable-background:new 0 0 72.9 100;" xml:space="preserve">
<style type="text/css">
	.st0{fill:none;}
	
		.st1{clip-path:url(#SVGID_00000109015395888076486160000006253901105398858405_);fill:url(#SVGID_00000177442629926004952810000011349294045755215000_);}
	
		.st2{clip-path:url(#SVGID_00000134238871527522228690000004756938896562022291_);fill:url(#SVGID_00000124154488005799017790000011601235826354789522_);}
	
		.st3{clip-path:url(#SVGID_00000078746707991465510280000015229308384087155637_);fill:url(#SVGID_00000135669296442328326000000000294577453080473252_);}
	
		.st4{clip-path:url(#SVGID_00000134223785808814124460000013381301451066518714_);fill:url(#SVGID_00000170266075299029153050000012637877197227363727_);}
	
		.st5{clip-path:url(#SVGID_00000152973964013591263540000001409072537372978312_);fill:url(#SVGID_00000109024050471223890680000002232238890083909811_);}
</style>
<rect x="-147.9" y="-97.7" class="st0" width="465.9" height="333.3"/>
<rect x="-147.9" y="-97.7" class="st0" width="465.9" height="333.3"/>
<rect x="-147.9" y="-97.7" class="st0" width="465.9" height="333.3"/>
<rect x="-147.9" y="-97.7" class="st0" width="465.9" height="333.3"/>
<g>
	<g>
		<defs>
			<path id="SVGID_1_" d="M19,18c0,9.6,7.8,17.4,17.4,17.4c9.6,0,17.4-7.8,17.4-17.4c0-9.6-7.8-17.4-17.4-17.4
				C26.8,0.6,19,8.4,19,18"/>
		</defs>
		<clipPath id="SVGID_00000026878425969343000520000000185164577775802270_">
			<use xlink:href="#SVGID_1_"  style="overflow:visible;"/>
		</clipPath>
		
			<linearGradient id="SVGID_00000164490297202937138990000000475988280357558931_" gradientUnits="userSpaceOnUse" x1="-190.3903" y1="138.7617" x2="-187.2789" y2="138.7617" gradientTransform="matrix(11.2089 0 0 11.2089 2153.0605 -1537.3275)">
			<stop  offset="0" style="stop-color:#EE6F25"/>
			<stop  offset="1.187850e-02" style="stop-color:#EE6F25"/>
			<stop  offset="0.4238" style="stop-color:#CF502D"/>
			<stop  offset="0.9781" style="stop-color:#B12B30"/>
			<stop  offset="1" style="stop-color:#B12B30"/>
		</linearGradient>
		
			<rect x="19" y="0.6" style="clip-path:url(#SVGID_00000026878425969343000520000000185164577775802270_);fill:url(#SVGID_00000164490297202937138990000000475988280357558931_);" width="34.9" height="34.9"/>
	</g>
	<g>
		<defs>
			<path id="SVGID_00000176017951383554839850000008174324303106461069_" d="M34.5,76.7c0,1.1,0.9,2,2,2c1.1,0,2-0.9,2-2
				c0-1.1-0.9-2-2-2C35.4,74.7,34.5,75.6,34.5,76.7"/>
		</defs>
		<clipPath id="SVGID_00000052819040241101239930000015670511015062358949_">
			<use xlink:href="#SVGID_00000176017951383554839850000008174324303106461069_"  style="overflow:visible;"/>
		</clipPath>
		
			<linearGradient id="SVGID_00000085949021326929013580000010339129424831796366_" gradientUnits="userSpaceOnUse" x1="-151.9028" y1="176.4176" x2="-148.7909" y2="176.4176" gradientTransform="matrix(1.2579 0 0 1.2579 225.5575 -145.2506)">
			<stop  offset="0" style="stop-color:#EE6F25"/>
			<stop  offset="1.187850e-02" style="stop-color:#EE6F25"/>
			<stop  offset="0.4238" style="stop-color:#CF502D"/>
			<stop  offset="0.9781" style="stop-color:#B12B30"/>
			<stop  offset="1" style="stop-color:#B12B30"/>
		</linearGradient>
		
			<rect x="34.5" y="74.7" style="clip-path:url(#SVGID_00000052819040241101239930000015670511015062358949_);fill:url(#SVGID_00000085949021326929013580000010339129424831796366_);" width="3.9" height="3.9"/>
	</g>
	<g>
		<defs>
			<path id="SVGID_00000139979899793186570540000016608761034351857304_" d="M24.9,38.8c-5.3,0-9.6,4.3-9.6,9.6v9.4h42.3v-9.4
				c0-5.3-4.3-9.6-9.6-9.6H24.9z"/>
		</defs>
		<clipPath id="SVGID_00000129202297560091525220000011715202280672495034_">
			<use xlink:href="#SVGID_00000139979899793186570540000016608761034351857304_"  style="overflow:visible;"/>
		</clipPath>
		
			<linearGradient id="SVGID_00000169525982775542483590000006733437627867429253_" gradientUnits="userSpaceOnUse" x1="-191.2435" y1="140.1393" x2="-188.1319" y2="140.1393" gradientTransform="matrix(13.5919 0 0 13.5919 2614.6541 -1856.4586)">
			<stop  offset="0" style="stop-color:#EE6F25"/>
			<stop  offset="1.187850e-02" style="stop-color:#EE6F25"/>
			<stop  offset="0.4238" style="stop-color:#CF502D"/>
			<stop  offset="0.9781" style="stop-color:#B12B30"/>
			<stop  offset="1" style="stop-color:#B12B30"/>
		</linearGradient>
		
			<rect x="15.3" y="38.8" style="clip-path:url(#SVGID_00000129202297560091525220000011715202280672495034_);fill:url(#SVGID_00000169525982775542483590000006733437627867429253_);" width="42.3" height="19"/>
	</g>
	<g>
		<defs>
			<path id="SVGID_00000145749285559450801300000009692791930386371721_" d="M31.5,76.7c0-2.7,2.2-4.9,4.9-4.9s4.9,2.2,4.9,4.9
				c0,2.7-2.2,4.9-4.9,4.9S31.5,79.4,31.5,76.7 M4.7,60.8c-1.1,0-2.2,0.5-3,1.3c-0.7,0.8-1.1,2-0.9,3.1l3.7,27.3h63.9l3.7-27.3
				c0.2-1.1-0.2-2.3-0.9-3.1c-0.7-0.9-1.8-1.3-3-1.3H4.7z"/>
		</defs>
		<clipPath id="SVGID_00000067199261423171202980000014197416110209197977_">
			<use xlink:href="#SVGID_00000145749285559450801300000009692791930386371721_"  style="overflow:visible;"/>
		</clipPath>
		
			<linearGradient id="SVGID_00000027598116714449407310000007156871694302879369_" gradientUnits="userSpaceOnUse" x1="-192.877" y1="140.1077" x2="-189.7654" y2="140.1077" gradientTransform="matrix(22.9279 0 0 22.9279 4423.0283 -3135.7024)">
			<stop  offset="0" style="stop-color:#EE6F25"/>
			<stop  offset="1.187850e-02" style="stop-color:#EE6F25"/>
			<stop  offset="0.4238" style="stop-color:#CF502D"/>
			<stop  offset="0.9781" style="stop-color:#B12B30"/>
			<stop  offset="1" style="stop-color:#B12B30"/>
		</linearGradient>
		
			<rect x="0.7" y="60.8" style="clip-path:url(#SVGID_00000067199261423171202980000014197416110209197977_);fill:url(#SVGID_00000027598116714449407310000007156871694302879369_);" width="71.6" height="31.8"/>
	</g>
	<g>
		<defs>
			<rect id="SVGID_00000163066398650858583420000004068512750774059660_" x="1.8" y="96.4" width="69.3" height="3"/>
		</defs>
		<clipPath id="SVGID_00000114046264604422906560000004125594218997981087_">
			<use xlink:href="#SVGID_00000163066398650858583420000004068512750774059660_"  style="overflow:visible;"/>
		</clipPath>
		
			<linearGradient id="SVGID_00000094596111286466102220000003755165548339089343_" gradientUnits="userSpaceOnUse" x1="-192.808" y1="140.8159" x2="-189.6965" y2="140.8159" gradientTransform="matrix(22.2811 0 0 22.2811 4297.7466 -3039.6201)">
			<stop  offset="0" style="stop-color:#EE6F25"/>
			<stop  offset="1.187850e-02" style="stop-color:#EE6F25"/>
			<stop  offset="0.4238" style="stop-color:#CF502D"/>
			<stop  offset="0.9781" style="stop-color:#B12B30"/>
			<stop  offset="1" style="stop-color:#B12B30"/>
		</linearGradient>
		
			<rect x="1.8" y="96.4" style="clip-path:url(#SVGID_00000114046264604422906560000004125594218997981087_);fill:url(#SVGID_00000094596111286466102220000003755165548339089343_);" width="69.3" height="3"/>
	</g>
</g>
</svg>
