<?xml version="1.0" encoding="UTF-8"?>
<!-- Generator: Adobe Illustrator 27.1.1, SVG Export Plug-In . SVG Version: 6.00 Build 0)  -->
<svg version="1.1" id="icon-4" xmlns="http://www.w3.org/2000/svg" xmlns:xlink="http://www.w3.org/1999/xlink" x="0px" y="0px" viewBox="0 0 150 150" style="enable-background:new 0 0 150 150;" xml:space="preserve">
<style type="text/css">
	#icon-4 .st0{fill:none;stroke:#FFFFFF;stroke-width:7;stroke-miterlimit:10;}
</style>
<g class="wow drowline">
	<g>
		<path class="st0" d="M9.1,130.6h45.7 M10.4,72.3c-3.9-5.2-6.2-11.6-6.2-18.6c0-12.9,7.6-24.9,18.6-29.6 M32,22.7h3.3    c7,0,13.5,2.3,18.7,6.3 M74.4,19.4C85.3,19.4,94,28.2,94,39c0,10.9-8.8,19.6-19.6,19.6S54.8,49.9,54.8,39    C54.8,28.2,63.6,19.4,74.4,19.4L74.4,19.4z M97.2,38l30.6,22.7L121,74.5L85.8,58.8 M38.2,58l14.5-11.8 M65.5,60.1L54.1,74.1     M32,60.3c10.8,0,19.6,8.8,19.6,19.6c0,10.9-8.8,19.6-19.6,19.6s-19.6-8.8-19.6-19.6C12.4,69,21.1,60.3,32,60.3L32,60.3z M45,98.7    v31.9H18.9l0-31.9"/>
	</g>
	<line class="st0" x1="127.3" y1="69.9" x2="145.8" y2="80.8"/>
</g>
</svg>