<?xml version="1.0" encoding="UTF-8"?>
<!-- Generator: Adobe Illustrator 27.4.0, SVG Export Plug-In . SVG Version: 6.00 Build 0)  -->
<svg version="1.1" id="icon-2" xmlns="http://www.w3.org/2000/svg" xmlns:xlink="http://www.w3.org/1999/xlink" x="0px" y="0px" viewBox="0 0 150 150" style="enable-background:new 0 0 150 150;" xml:space="preserve">
<style type="text/css">
	#icon-2 .st0{fill:none;stroke:#FFFFFF;stroke-width:4;stroke-miterlimit:10;}
	#icon-2 .st1{fill:none;stroke:#FFFFFF;stroke-width:4;stroke-linecap:round;stroke-miterlimit:10;}
</style>
<g class="wow drowline">
	<path class="st0" d="M98.6,60.3c-1.4-1-1.5-2-0.8-3.6c0.9-1.9,0.8-2,3-2c0.6,0,1.2,0,1.7,0c0.1,0,0.3,0,0.4,0   c1.2-0.2,1.7-0.7,1.9-1.8c0.1-0.6,0.2-1.3,0.2-1.9c0-3.1,0-6.2-0.2-9.3c-0.1-1.4-0.8-1.9-2.2-2c-1.1,0-2.3,0-3.4,0   c-0.4,0-0.6-0.1-0.8-0.5c-0.3-0.9-0.7-1.9-1.1-2.8c-0.2-0.5-0.2-0.9,0.3-1.3c0.8-0.7,1.6-1.5,2.2-2.3c0.8-0.9,0.8-2,0.1-3   c-0.2-0.3-0.5-0.6-0.8-0.9c-2.2-2.1-4.4-4.3-6.6-6.4c-1.2-1.1-1.9-1.2-3.2-0.2c-0.9,0.7-1.7,1.5-2.6,2.3c-0.2,0.2-0.6,0.3-0.9,0.2   c-0.9-0.3-1.8-0.7-2.7-1c-0.5-0.2-0.6-0.4-0.7-0.9c0-1.2-0.1-2.4-0.2-3.6c-0.1-1.4-0.6-2-2-2.1c-3.4-0.1-6.9-0.1-10.3-0.1   c-1.7,0-2.6,1.2-2.6,2.8c0,1,0,2,0,3c0,0.2-0.2,0.6-0.4,0.7c-1,0.5-2.1,0.9-3.1,1.3c-0.2,0.1-0.6,0-0.8-0.2   c-0.8-0.7-1.6-1.6-2.4-2.3c-1.1-1-1.8-1-3-0.2c-0.4,0.3-0.7,0.5-1,0.9c-2.2,2.2-4.4,4.5-6.6,6.8c-0.9,1-1,1.7-0.1,2.8   c0.7,1,1.6,1.8,2.4,2.7c0.3,0.3,0.4,0.5,0.2,1c-0.4,0.9-0.8,1.9-1.1,2.8c-0.2,0.4-0.4,0.5-0.8,0.5c-1.1,0-2.2,0-3.2,0   c-1.5,0.1-2.5,0.9-2.5,2.4c0,3.4-0.1,6.7,0,10.1c0,1.6,1,2.5,2.6,2.5c1,0,2,0.1,2.9,0c0.7,0,0.9,0.2,1.1,0.8   c0.3,0.8,0.6,1.6,0.9,2.4c0.2,0.5,0.1,0.8-0.3,1.2c-0.9,0.9-1.7,1.8-2.5,2.9c-0.7,0.9-0.6,1.6,0.2,2.4c0.6,0.7,1.3,1.5,1.9,2.2   c1.9,1.9,3.8,3.8,5.8,5.5c1.1,1,1.9,0.9,3-0.1c0.8-0.7,1.6-1.6,2.4-2.3c0.2-0.2,0.6-0.3,0.9-0.2c1,0.3,1.9,0.8,2.9,1.2   c0.5,0.2,0.6,0.4,0.6,0.9c0,1.2,0,2.3,0.1,3.5c0.1,1.3,1,2.2,2.3,2.2c3.6,0,7.3,0,10.9-0.1c0.3,0,0.8-0.3,1-0.6   c0.3-0.4,0.5-0.9,0.6-1.5c0.1-1.2,0.2-2.4,0.2-3.6c0-0.5,0.2-0.7,0.7-0.9c0.9-0.3,1.7-0.6,2.5-0.9c0.4-0.2,0.7-0.1,1.1,0.2   c0.8,0.8,1.7,1.6,2.6,2.3c0.8,0.7,1.7,0.7,2.6,0.1c0.3-0.2,0.7-0.4,1-0.7c2.2-2.2,4.4-4.3,6.6-6.5c0.1-0.1,0.3-0.3,0.4-0.5   c0.6-0.9,0.7-1.9,0-2.8C99.6,61.2,99.1,60.7,98.6,60.3z"/>
	<path class="st0" d="M74.9,37.2C69.7,37,65.2,41.5,65,47c-0.2,4.9,3.9,9.9,9.5,10.1c5.9,0.2,10.3-4.6,10.4-9.3   C85,41.7,81,37.4,74.9,37.2z"/>
	<path class="st0" d="M96.2,101.1c0.9-3.7,2.6-9.4,5-12.4c1-1.8,2-3.6,3.1-5.4c3.2-5.2,6.6-10.4,9.8-15.6c6-9.9,7.4-20.4,4.8-31.6   C114.6,18.3,98.2,3.9,80.2,2.4C76.8,2.1,73.4,2,70.1,2.3c-4.8,0.4-9.4,1.8-13.9,3.9c-16,7.3-26.1,23.1-26.4,39.3   c-0.1,6.4,1.1,12.5,3.8,18.2c2.2,4.6,5,8.8,7.7,13.1s5.4,8.6,8,13c0.2,0.4,0.4,0.8,0.6,1.3c-0.1,0-0.1,0-0.1,0   c1.9,3.9,4.7,10.5,4.9,15.3l0,0c0.1,0.8,0.1,1.5,0.2,2.3c0.2,8.8,0.3,17.6,0.4,26.4c0,1.4,1.2,2.6,2.6,2.6c11.4,0,22.7,0,34.1,0   c1.2,0,2.3-1.1,2.3-2.3c0.1-7.4,0.2-14.9,0.3-22.3c0-2.7,0.3-5.4,0.7-8l0,0c0,0,0.1-0.4,0.2-1c0-0.3,0.1-0.6,0.2-0.8   c0.1-0.7,0.3-1.5,0.5-2.3"/>
	<line class="st0" x1="53.6" y1="115.9" x2="93.9" y2="115.9"/>
	<line class="st0" x1="53.6" y1="125.9" x2="85.9" y2="125.9"/>
	<line class="st1" x1="59.3" y1="145.9" x2="89.6" y2="145.9"/>
	<line class="st1" x1="74.7" y1="89.1" x2="74.7" y2="115.4"/>
</g>
</svg>