<?xml version="1.0" encoding="utf-8"?>
<!-- Generator: Adobe Illustrator 27.8.1, SVG Export Plug-In . SVG Version: 6.00 Build 0)  -->
<svg version="1.1" id="Layer_1" xmlns="http://www.w3.org/2000/svg" xmlns:xlink="http://www.w3.org/1999/xlink" x="0px" y="0px"
	 viewBox="0 0 100 100" style="enable-background:new 0 0 100 100;" xml:space="preserve">
<style type="text/css">
	
		.st0{clip-path:url(#SVGID_00000008848169952182425960000001567912419956552340_);fill:url(#SVGID_00000017513923767671536630000001278358687878668713_);}
	
		.st1{clip-path:url(#SVGID_00000121974379307624454390000017566038636781427382_);fill:url(#SVGID_00000003099568674878341550000016436102054912183988_);}
	
		.st2{clip-path:url(#SVGID_00000075856696225195537180000012038509660587850160_);fill:url(#SVGID_00000062156652572894400320000005620634766963665301_);}
	
		.st3{clip-path:url(#SVGID_00000085937580553969263080000008780472267369070732_);fill:url(#SVGID_00000085951016918647014300000003696580507453313173_);}
	
		.st4{clip-path:url(#SVGID_00000121969272320988901260000011998030704689820331_);fill:url(#SVGID_00000106830776561722567820000002925613808144429989_);}
</style>
<g>
	<g>
		<defs>
			<polygon id="SVGID_1_" points="15.8,9.2 15.8,26.5 29.5,13.7 29.5,9.2 			"/>
		</defs>
		<clipPath id="SVGID_00000134235705052863135380000003981123913365682067_">
			<use xlink:href="#SVGID_1_"  style="overflow:visible;"/>
		</clipPath>
		
			<linearGradient id="SVGID_00000057861531167793177600000016277924764709515402_" gradientUnits="userSpaceOnUse" x1="-220.7443" y1="236.9776" x2="-217.5936" y2="236.9776" gradientTransform="matrix(4.34 0 0 4.34 973.8177 -1010.6563)">
			<stop  offset="0" style="stop-color:#EE6F25"/>
			<stop  offset="1.187850e-02" style="stop-color:#EE6F25"/>
			<stop  offset="0.4238" style="stop-color:#CF502D"/>
			<stop  offset="0.9781" style="stop-color:#B12B30"/>
			<stop  offset="1" style="stop-color:#B12B30"/>
		</linearGradient>
		
			<rect x="15.8" y="9.2" style="clip-path:url(#SVGID_00000134235705052863135380000003981123913365682067_);fill:url(#SVGID_00000057861531167793177600000016277924764709515402_);" width="13.7" height="17.3"/>
	</g>
	<g>
		<defs>
			<polygon id="SVGID_00000031194112151064314210000003715102148661445018_" points="15.8,9.2 15.8,26.5 29.5,13.7 29.5,9.2 			"/>
		</defs>
		<clipPath id="SVGID_00000050640185076538900560000014038143018959130260_">
			<use xlink:href="#SVGID_00000031194112151064314210000003715102148661445018_"  style="overflow:visible;"/>
		</clipPath>
		
			<linearGradient id="SVGID_00000071545661378458499930000007286632047846672258_" gradientUnits="userSpaceOnUse" x1="-220.7443" y1="236.9776" x2="-217.5936" y2="236.9776" gradientTransform="matrix(4.34 0 0 4.34 973.8177 -1010.6563)">
			<stop  offset="0" style="stop-color:#EE6F25"/>
			<stop  offset="1.187850e-02" style="stop-color:#EE6F25"/>
			<stop  offset="0.4238" style="stop-color:#CF502D"/>
			<stop  offset="0.9781" style="stop-color:#B12B30"/>
			<stop  offset="1" style="stop-color:#B12B30"/>
		</linearGradient>
		
			<rect x="15.8" y="9.2" style="clip-path:url(#SVGID_00000050640185076538900560000014038143018959130260_);fill:url(#SVGID_00000071545661378458499930000007286632047846672258_);" width="13.7" height="17.3"/>
	</g>
	<g>
		<defs>
			<path id="SVGID_00000144311900646827788110000009116634547851609493_" d="M1.5,46.1h9.5l37.5-34.8c0.9-0.8,2.3-0.8,3.2,0
				l37.5,34.8h9.3L50.1,0.8L1.5,46.1z"/>
		</defs>
		<clipPath id="SVGID_00000066514351191325090730000007514710965451587482_">
			<use xlink:href="#SVGID_00000144311900646827788110000009116634547851609493_"  style="overflow:visible;"/>
		</clipPath>
		
			<linearGradient id="SVGID_00000001621811719843494510000018155721999570010811_" gradientUnits="userSpaceOnUse" x1="-187.3333" y1="219.9426" x2="-184.1826" y2="219.9426" gradientTransform="matrix(30.778 0 0 30.778 5767.2559 -6745.9053)">
			<stop  offset="0" style="stop-color:#EE6F25"/>
			<stop  offset="1.187850e-02" style="stop-color:#EE6F25"/>
			<stop  offset="0.4238" style="stop-color:#CF502D"/>
			<stop  offset="0.9781" style="stop-color:#B12B30"/>
			<stop  offset="1" style="stop-color:#B12B30"/>
		</linearGradient>
		
			<rect x="1.5" y="0.8" style="clip-path:url(#SVGID_00000066514351191325090730000007514710965451587482_);fill:url(#SVGID_00000001621811719843494510000018155721999570010811_);" width="97" height="45.3"/>
	</g>
	<g>
		<defs>
			<path id="SVGID_00000006681266477888497180000016322084982936671153_" d="M43.1,46.1v9.3c0,1.3-1,2.3-2.3,2.3h-9.3v13.9h9.3
				c1.3,0,2.3,1,2.3,2.3v9.3h13.9V74c0-1.3,1-2.3,2.3-2.3h9.3V57.7h-9.3c-1.3,0-2.3-1-2.3-2.3v-9.3H43.1z"/>
		</defs>
		<clipPath id="SVGID_00000039097651671213469900000002991947256328414133_">
			<use xlink:href="#SVGID_00000006681266477888497180000016322084982936671153_"  style="overflow:visible;"/>
		</clipPath>
		
			<linearGradient id="SVGID_00000096045636894882803700000008665029600151191224_" gradientUnits="userSpaceOnUse" x1="-195.0233" y1="227.0692" x2="-191.8726" y2="227.0692" gradientTransform="matrix(11.789 0 0 11.789 2330.6592 -2612.2095)">
			<stop  offset="0" style="stop-color:#EE6F25"/>
			<stop  offset="1.187850e-02" style="stop-color:#EE6F25"/>
			<stop  offset="0.4238" style="stop-color:#CF502D"/>
			<stop  offset="0.9781" style="stop-color:#B12B30"/>
			<stop  offset="1" style="stop-color:#B12B30"/>
		</linearGradient>
		
			<rect x="31.5" y="46.1" style="clip-path:url(#SVGID_00000039097651671213469900000002991947256328414133_);fill:url(#SVGID_00000096045636894882803700000008665029600151191224_);" width="37.1" height="37.1"/>
	</g>
	<g>
		<defs>
			<path id="SVGID_00000132769453661068238250000009579549702189906583_" d="M26.9,74V55.4c0-1.3,1-2.3,2.3-2.3h9.3v-9.3
				c0-1.3,1-2.3,2.3-2.3h18.6c1.3,0,2.3,1,2.3,2.3v9.3H71c1.3,0,2.3,1,2.3,2.3V74c0,1.3-1,2.3-2.3,2.3h-9.3v9.3c0,1.3-1,2.3-2.3,2.3
				H40.8c-1.3,0-2.3-1-2.3-2.3v-9.3h-9.3C27.9,76.3,26.9,75.3,26.9,74 M14.3,49.5v49.7h71.6l0-49.7L50.1,16.2L14.3,49.5z"/>
		</defs>
		<clipPath id="SVGID_00000090275176663697051800000016099266569043458228_">
			<use xlink:href="#SVGID_00000132769453661068238250000009579549702189906583_"  style="overflow:visible;"/>
		</clipPath>
		
			<linearGradient id="SVGID_00000009565793399432494550000016058023622450555828_" gradientUnits="userSpaceOnUse" x1="-189.0147" y1="222.0064" x2="-185.8639" y2="222.0064" gradientTransform="matrix(22.753 0 0 22.753 4314.9312 -4993.626)">
			<stop  offset="0" style="stop-color:#EE6F25"/>
			<stop  offset="1.187850e-02" style="stop-color:#EE6F25"/>
			<stop  offset="0.4238" style="stop-color:#CF502D"/>
			<stop  offset="0.9781" style="stop-color:#B12B30"/>
			<stop  offset="1" style="stop-color:#B12B30"/>
		</linearGradient>
		
			<rect x="14.3" y="16.2" style="clip-path:url(#SVGID_00000090275176663697051800000016099266569043458228_);fill:url(#SVGID_00000009565793399432494550000016058023622450555828_);" width="71.7" height="83"/>
	</g>
</g>
</svg>
