<?xml version="1.0" encoding="utf-8"?>
<!-- Generator: Adobe Illustrator 27.8.1, SVG Export Plug-In . SVG Version: 6.00 Build 0)  -->
<svg version="1.1" id="Layer_1" xmlns="http://www.w3.org/2000/svg" xmlns:xlink="http://www.w3.org/1999/xlink" x="0px" y="0px"
	 viewBox="0 0 103.4 100" style="enable-background:new 0 0 103.4 100;" xml:space="preserve">
<style type="text/css">
	
		.st0{clip-path:url(#SVGID_00000000183036888653186280000010501366242466930862_);fill:url(#SVGID_00000090990739950829301200000016482608908654864036_);}
	
		.st1{clip-path:url(#SVGID_00000061466190154706970540000005918305812995746747_);fill:url(#SVGID_00000065059301460598681100000003534727638687172495_);}
	
		.st2{clip-path:url(#SVGID_00000090990455851457117060000008098469791646423962_);fill:url(#SVGID_00000107561673268086709520000009293562941863841174_);}
	
		.st3{clip-path:url(#SVGID_00000112604543499058371610000005879831192865681806_);fill:url(#SVGID_00000125594999045949468760000014385475372970774677_);}
	.st4{fill:#F26724;}
	
		.st5{clip-path:url(#SVGID_00000047052123572864490920000015525266389723409800_);fill:url(#SVGID_00000077320817345169405940000013430396411913120953_);}
	
		.st6{clip-path:url(#SVGID_00000044877740914727208340000014680046346653162146_);fill:url(#SVGID_00000005240319342320232700000008763964473299698085_);}
	
		.st7{clip-path:url(#SVGID_00000168836739427045771800000003735207106809167248_);fill:url(#SVGID_00000031179953691916493630000005042579144249726337_);}
	
		.st8{clip-path:url(#SVGID_00000010301153285933496500000016801694165530233763_);fill:url(#SVGID_00000179612344934393438660000006856379588169895594_);}
	
		.st9{clip-path:url(#SVGID_00000124138587850542032360000015562386618205689242_);fill:url(#SVGID_00000003083406451003187090000005828633218403485083_);}
	
		.st10{clip-path:url(#SVGID_00000153666567251244995800000013860780962204508588_);fill:url(#SVGID_00000065772803261751889840000001178694708852310191_);}
	
		.st11{clip-path:url(#SVGID_00000041979966765519641570000017751772317018152075_);fill:url(#SVGID_00000114766804637233165680000017542253856582701444_);}
</style>
<g>
	<g>
		<defs>
			<path id="SVGID_1_" d="M69.3,58.7c0-1.7,1.4-3.1,3.1-3.1c1.7,0,3.1,1.4,3.1,3.1c0,1.7-1.4,3.1-3.1,3.1
				C70.7,61.8,69.3,60.4,69.3,58.7 M48.5,47.3c0.5,0,1,0.4,1,1v2.2h1.1c0.5,0,1,0.4,1,1v2.5c0.7,0.8,1.1,1.7,1.1,2.8v6.4h5.2v-6
				c0-1.4,1.2-2.6,2.6-2.6c1.4,0,2.6,1.2,2.6,2.6v6h8.3c3.6,0,7.1,0.7,10.3,2V51.1c0-2.1-1.7-3.8-3.8-3.8H48.5z"/>
		</defs>
		<clipPath id="SVGID_00000101066953112563833590000012078143203713784963_">
			<use xlink:href="#SVGID_1_"  style="overflow:visible;"/>
		</clipPath>
		
			<linearGradient id="SVGID_00000174590670694715347160000011104650556706933387_" gradientUnits="userSpaceOnUse" x1="-184.0274" y1="227.5509" x2="-180.8508" y2="227.5509" gradientTransform="matrix(10.463 0 0 10.463 1973.9465 -2324.634)">
			<stop  offset="0" style="stop-color:#EE6F25"/>
			<stop  offset="1.187850e-02" style="stop-color:#EE6F25"/>
			<stop  offset="0.4238" style="stop-color:#CF502D"/>
			<stop  offset="0.9781" style="stop-color:#B12B30"/>
			<stop  offset="1" style="stop-color:#B12B30"/>
		</linearGradient>
		
			<rect x="48.5" y="47.3" style="clip-path:url(#SVGID_00000101066953112563833590000012078143203713784963_);fill:url(#SVGID_00000174590670694715347160000011104650556706933387_);" width="33.2" height="17.9"/>
	</g>
	<g>
		<defs>
			<path id="SVGID_00000137820911044275416860000003704946174669884049_" d="M45.3,86.9c0-2,1.6-3.6,3.6-3.6c2,0,3.6,1.6,3.6,3.6
				c0,2-1.6,3.6-3.6,3.6C47,90.5,45.3,88.9,45.3,86.9 M49.6,77.2v-1.8c0-2.7,2.2-4.9,4.9-4.9h17.7c2.7,0,4.9,2.2,4.9,4.9v1.8
				c0,2.7-2.2,4.9-4.9,4.9H54.4C51.8,82.1,49.6,79.9,49.6,77.2 M52.7,65.1c-0.3,0-0.7,0-1,0c-0.4,0.1-0.8,0.1-1.2,0.2
				c0,0-0.1,0-0.1,0c-0.4,0.1-0.8,0.2-1.2,0.4h0c-0.8,0.3-1.5,0.7-2.1,1.2c-0.1,0.1-0.2,0.1-0.3,0.2c-0.2,0.1-0.4,0.3-0.5,0.4
				c-0.1,0.1-0.2,0.2-0.3,0.3c-0.2,0.2-0.3,0.3-0.5,0.5c-0.1,0.2-0.3,0.3-0.4,0.5c-0.1,0.2-0.3,0.3-0.4,0.5
				c-0.1,0.2-0.2,0.3-0.3,0.5c-0.1,0.1-0.2,0.3-0.2,0.4c-0.1,0.2-0.2,0.3-0.3,0.5c-0.1,0.1-0.1,0.3-0.2,0.4
				c-0.1,0.2-0.1,0.3-0.2,0.5c-0.1,0.2-0.1,0.3-0.1,0.5c0,0.1-0.1,0.3-0.1,0.4c-0.1,0.2-0.1,0.4-0.1,0.7c0,0.1,0,0.2-0.1,0.4
				c0,0.4-0.1,0.7-0.1,1.1v19.1H99l-2.9-9.6C93.1,73,83,65.1,71.4,65.1H52.7z"/>
		</defs>
		<clipPath id="SVGID_00000075146454583578948410000005245813593450578333_">
			<use xlink:href="#SVGID_00000137820911044275416860000003704946174669884049_"  style="overflow:visible;"/>
		</clipPath>
		
			<linearGradient id="SVGID_00000132057555161175214430000009911502927214419389_" gradientUnits="userSpaceOnUse" x1="-182.425" y1="224.1775" x2="-179.2483" y2="224.1775" gradientTransform="matrix(17.602 0 0 17.602 3254.1328 -3866.4749)">
			<stop  offset="0" style="stop-color:#EE6F25"/>
			<stop  offset="1.187850e-02" style="stop-color:#EE6F25"/>
			<stop  offset="0.4238" style="stop-color:#CF502D"/>
			<stop  offset="0.9781" style="stop-color:#B12B30"/>
			<stop  offset="1" style="stop-color:#B12B30"/>
		</linearGradient>
		
			<rect x="43.1" y="65.1" style="clip-path:url(#SVGID_00000075146454583578948410000005245813593450578333_);fill:url(#SVGID_00000132057555161175214430000009911502927214419389_);" width="55.9" height="28.7"/>
	</g>
	<g>
		<defs>
			<path id="SVGID_00000146486330637261771950000000249774004985064839_" d="M44.2,47.3c0.5,0,1,0.4,1,1v2.2h2.3v-2.2
				c0-0.5,0.4-1,1-1H44.2z"/>
		</defs>
		<clipPath id="SVGID_00000050626650565188957200000015171692909126693306_">
			<use xlink:href="#SVGID_00000146486330637261771950000000249774004985064839_"  style="overflow:visible;"/>
		</clipPath>
		
			<linearGradient id="SVGID_00000129923649729316750170000013621705067210977971_" gradientUnits="userSpaceOnUse" x1="-217.1116" y1="296.6856" x2="-213.9347" y2="296.6856" gradientTransform="matrix(1.322 0 0 1.322 331.2527 -343.3534)">
			<stop  offset="0" style="stop-color:#EE6F25"/>
			<stop  offset="1.187850e-02" style="stop-color:#EE6F25"/>
			<stop  offset="0.4238" style="stop-color:#CF502D"/>
			<stop  offset="0.9781" style="stop-color:#B12B30"/>
			<stop  offset="1" style="stop-color:#B12B30"/>
		</linearGradient>
		
			<rect x="44.2" y="47.3" style="clip-path:url(#SVGID_00000050626650565188957200000015171692909126693306_);fill:url(#SVGID_00000129923649729316750170000013621705067210977971_);" width="4.2" height="3.2"/>
	</g>
	<g>
		<defs>
			<path id="SVGID_00000152949360777891626050000015610848897139523217_" d="M43.1,52.4v3.2c0,1.8,1.5,3.3,3.2,3.3
				c1.8,0,3.2-1.4,3.3-3.2v-3.3H43.1z"/>
		</defs>
		<clipPath id="SVGID_00000036960703897535165900000012984570070443600815_">
			<use xlink:href="#SVGID_00000152949360777891626050000015610848897139523217_"  style="overflow:visible;"/>
		</clipPath>
		
			<linearGradient id="SVGID_00000105420624729916202270000016318107566173034893_" gradientUnits="userSpaceOnUse" x1="-204.2199" y1="270.7931" x2="-201.043" y2="270.7931" gradientTransform="matrix(2.045 0 0 2.045 460.722 -498.1124)">
			<stop  offset="0" style="stop-color:#EE6F25"/>
			<stop  offset="1.187850e-02" style="stop-color:#EE6F25"/>
			<stop  offset="0.4238" style="stop-color:#CF502D"/>
			<stop  offset="0.9781" style="stop-color:#B12B30"/>
			<stop  offset="1" style="stop-color:#B12B30"/>
		</linearGradient>
		
			<rect x="43.1" y="52.4" style="clip-path:url(#SVGID_00000036960703897535165900000012984570070443600815_);fill:url(#SVGID_00000105420624729916202270000016318107566173034893_);" width="6.5" height="6.5"/>
	</g>
	<polygon class="st4" points="43.1,95.8 43.1,99.2 101.5,99.2 98.8,95.8 	"/>
	<g>
		<defs>
			<path id="SVGID_00000088833797955410692460000011790561686303033742_" d="M47.3,60.9v3.6c1-0.5,2.1-0.9,3.3-1.1c0,0,0,0,0.1,0
				v-4.2C49.9,60.1,48.7,60.8,47.3,60.9"/>
		</defs>
		<clipPath id="SVGID_00000034059141256876635190000001589582299939645835_">
			<use xlink:href="#SVGID_00000088833797955410692460000011790561686303033742_"  style="overflow:visible;"/>
		</clipPath>
		
			<linearGradient id="SVGID_00000176762588515444064310000014903712221728661165_" gradientUnits="userSpaceOnUse" x1="-224.8741" y1="325.8869" x2="-221.6968" y2="325.8869" gradientTransform="matrix(1.0489 0 0 1.0489 283.1851 -280.0174)">
			<stop  offset="0" style="stop-color:#EE6F25"/>
			<stop  offset="1.187850e-02" style="stop-color:#EE6F25"/>
			<stop  offset="0.4238" style="stop-color:#CF502D"/>
			<stop  offset="0.9781" style="stop-color:#B12B30"/>
			<stop  offset="1" style="stop-color:#B12B30"/>
		</linearGradient>
		
			<rect x="47.3" y="59.1" style="clip-path:url(#SVGID_00000034059141256876635190000001589582299939645835_);fill:url(#SVGID_00000176762588515444064310000014903712221728661165_);" width="3.3" height="5.4"/>
	</g>
	<g>
		<defs>
			<path id="SVGID_00000081639494088105779780000017474593421384278688_" d="M61,43.4c-0.3,0-0.6-0.1-0.9-0.2c0,0-0.1,0-0.1,0
				c-0.3-0.1-0.6-0.3-0.9-0.4c0,0,0,0-0.1,0c-0.6-0.4-1.1-0.9-1.4-1.5l-3-5.1c-0.6-1.1-0.7-2.4-0.4-3.6c0-0.2,0.1-0.3,0.1-0.5
				c0-0.1,0.1-0.2,0.1-0.2c0.6-1.2,1.7-2.1,3-2.4l6.4-1.5l5.8-1.4c0,0.1,0,0.1,0,0.2c0,0.2-0.1,0.5-0.1,0.7c0,0.1,0,0.1,0,0.2
				c0,0.4,0.1,0.7,0.1,1.1c0,0.1,0,0.1,0,0.2c0.1,0.3,0.1,0.5,0.2,0.8c0,0.1,0.1,0.2,0.1,0.2c0.1,0.2,0.2,0.4,0.3,0.6
				c0.1,0.1,0.1,0.2,0.2,0.3c0,0.1,0.1,0.1,0.1,0.2c0.1,0.1,0.2,0.3,0.3,0.4c0.1,0.1,0.1,0.1,0.2,0.2c0.2,0.2,0.5,0.4,0.7,0.6
				c0.1,0,0.1,0.1,0.2,0.1c0.2,0.1,0.4,0.3,0.7,0.4c0.1,0.1,0.2,0.1,0.3,0.1c0.1,0.1,0.3,0.1,0.4,0.2L64.8,42
				c-0.7,0.7-1.6,1.2-2.6,1.4c-0.1,0-0.1,0-0.2,0c-0.2,0-0.3,0-0.5,0S61.2,43.4,61,43.4 M85.7,42L78,33.9l-1-1
				c0.1,0,0.3-0.1,0.4-0.2c0.1,0,0.2-0.1,0.3-0.1c0,0,0,0,0,0c0,0,0.1,0,0.1,0c0.2-0.1,0.4-0.2,0.6-0.3c0.1,0,0.1-0.1,0.2-0.1
				c0.3-0.2,0.5-0.4,0.7-0.6c0.1-0.1,0.1-0.1,0.2-0.2c0.1-0.2,0.3-0.3,0.4-0.5c0.1-0.1,0.1-0.2,0.2-0.3c0.1-0.2,0.2-0.4,0.3-0.6
				c0.1-0.1,0.1-0.2,0.1-0.3c0.1-0.2,0.1-0.4,0.2-0.6c0-0.1,0.1-0.2,0.1-0.3c0.1-0.3,0.1-0.7,0.1-1v0v0v0c0-0.3,0-0.6-0.1-0.9
				c0,0,0-0.1,0-0.1L87,28l6,1.4c1.1,0.2,2,0.8,2.6,1.7c0.2,0.3,0.4,0.6,0.5,0.9c0.6,1.3,0.5,2.8-0.2,4.1h0l-0.5,0.9l-2.5,4.2
				c-0.3,0.6-0.8,1-1.3,1.4c-0.1,0-0.1,0.1-0.2,0.1c-0.1,0-0.1,0.1-0.2,0.1c-0.2,0.2-0.5,0.3-0.8,0.4c0,0-0.1,0-0.1,0
				c-0.3,0.1-0.6,0.2-0.9,0.2c-0.1,0-0.1,0-0.1,0c-0.1,0-0.3,0-0.4,0C87.7,43.4,86.5,43,85.7,42 M75.1,31.2
				c-1.9-0.1-3.5-1.7-3.5-3.6c0-0.6,0.1-1.1,0.4-1.6c0,0,0,0,0-0.1c0.1-0.1,0.1-0.2,0.2-0.3c0.7-1,1.8-1.7,3.1-1.7h0.1h0
				c0.3,0,0.6,0,0.9,0.1c0,0,0.1,0,0.1,0c0.3,0.1,0.5,0.2,0.8,0.3c0,0,0.1,0,0.1,0.1c0.2,0.1,0.4,0.3,0.6,0.5
				c0.1,0.1,0.1,0.1,0.2,0.2c0.1,0.2,0.3,0.3,0.4,0.5c0,0.1,0.1,0.1,0.1,0.2c0,0,0,0.1,0.1,0.1v0c0,0,0,0,0,0c0.3,0.5,0.4,1,0.4,1.6
				c0,0.8-0.3,1.5-0.7,2.1c-0.6,0.8-1.6,1.4-2.7,1.5c0,0-0.1,0-0.1,0L75.1,31.2C75.1,31.2,75.1,31.2,75.1,31.2 M70.2,19l-2.3-7.7
				c-0.4-1.4-0.2-2.8,0.7-4c0.9-1.2,2.2-1.8,3.6-1.8h5.9c1.5,0,2.8,0.7,3.6,1.8c0.6,0.8,0.9,1.7,0.9,2.7c0,0.4-0.1,0.9-0.2,1.3
				l-3.6,12.1c0,0-0.1-0.1-0.1-0.1c-0.2-0.2-0.4-0.3-0.6-0.4c-0.1,0-0.1-0.1-0.2-0.1c-0.2-0.1-0.5-0.3-0.8-0.4c0,0-0.1,0-0.1,0
				c-0.2-0.1-0.5-0.2-0.7-0.2c-0.1,0-0.2,0-0.2-0.1c-0.3,0-0.6-0.1-0.9-0.1c-0.3,0-0.6,0-0.9,0.1c-0.1,0-0.2,0-0.2,0.1
				c-0.3,0.1-0.5,0.1-0.7,0.2c-0.1,0-0.1,0-0.1,0.1c-0.3,0.1-0.5,0.2-0.8,0.4c-0.1,0.1-0.2,0.1-0.2,0.2c-0.2,0.1-0.3,0.2-0.5,0.4
				c0,0-0.1,0.1-0.1,0.1L70.2,19z M47.9,28.1c0,6.7,2.4,13.1,6.9,18.1h23.7c2.3,0,4.2,1.9,4.2,4.2v3.9c11.7-3.3,19.8-13.9,19.8-26.3
				c0-15-12.2-27.3-27.3-27.3C60.2,0.8,47.9,13.1,47.9,28.1"/>
		</defs>
		<clipPath id="SVGID_00000012469984245174132150000013229508738771872140_">
			<use xlink:href="#SVGID_00000081639494088105779780000017474593421384278688_"  style="overflow:visible;"/>
		</clipPath>
		
			<linearGradient id="SVGID_00000090990244405703737810000001399402531825317769_" gradientUnits="userSpaceOnUse" x1="-182.302" y1="222.2851" x2="-179.125" y2="222.2851" gradientTransform="matrix(17.18 0 0 17.18 3179.887 -3791.2275)">
			<stop  offset="0" style="stop-color:#EE6F25"/>
			<stop  offset="1.187850e-02" style="stop-color:#EE6F25"/>
			<stop  offset="0.4238" style="stop-color:#CF502D"/>
			<stop  offset="0.9781" style="stop-color:#B12B30"/>
			<stop  offset="1" style="stop-color:#B12B30"/>
		</linearGradient>
		
			<rect x="47.9" y="0.8" style="clip-path:url(#SVGID_00000012469984245174132150000013229508738771872140_);fill:url(#SVGID_00000090990244405703737810000001399402531825317769_);" width="54.6" height="53.6"/>
	</g>
	<g>
		<defs>
			<rect id="SVGID_00000139290158861599886280000004944810518814049206_" x="7" y="77.3" width="2.2" height="5.3"/>
		</defs>
		<clipPath id="SVGID_00000116208187621272140770000018006436223644811445_">
			<use xlink:href="#SVGID_00000139290158861599886280000004944810518814049206_"  style="overflow:visible;"/>
		</clipPath>
		
			<linearGradient id="SVGID_00000038411486180019974040000014584110095839586962_" gradientUnits="userSpaceOnUse" x1="-289.4343" y1="402.1379" x2="-286.2575" y2="402.1379" gradientTransform="matrix(0.684 0 0 0.684 204.9798 -195.1334)">
			<stop  offset="0" style="stop-color:#EE6F25"/>
			<stop  offset="1.187850e-02" style="stop-color:#EE6F25"/>
			<stop  offset="0.4238" style="stop-color:#CF502D"/>
			<stop  offset="0.9781" style="stop-color:#B12B30"/>
			<stop  offset="1" style="stop-color:#B12B30"/>
		</linearGradient>
		
			<rect x="7" y="77.3" style="clip-path:url(#SVGID_00000116208187621272140770000018006436223644811445_);fill:url(#SVGID_00000038411486180019974040000014584110095839586962_);" width="2.2" height="5.3"/>
	</g>
	<g>
		<defs>
			<path id="SVGID_00000016789278651132669680000001171783662403743923_" d="M33.8,70.4l-6.2,6.2c-0.4,0.4-0.4,1,0,1.4
				c0.2,0.2,0.4,0.3,0.7,0.3c0.3,0,0.5-0.1,0.7-0.3l6.2-6.2c0.4-0.4,0.4-1,0-1.4c-0.2-0.2-0.4-0.3-0.7-0.3
				C34.3,70.1,34,70.2,33.8,70.4"/>
		</defs>
		<clipPath id="SVGID_00000132791267482663234580000002375532066041310114_">
			<use xlink:href="#SVGID_00000016789278651132669680000001171783662403743923_"  style="overflow:visible;"/>
		</clipPath>
		
			<linearGradient id="SVGID_00000149378503920278643560000006887486097703675273_" gradientUnits="userSpaceOnUse" x1="-203.2961" y1="264.5687" x2="-200.1192" y2="264.5687" gradientTransform="matrix(2.5797 0 0 2.5797 551.7726 -608.307)">
			<stop  offset="0" style="stop-color:#EE6F25"/>
			<stop  offset="1.187850e-02" style="stop-color:#EE6F25"/>
			<stop  offset="0.4238" style="stop-color:#CF502D"/>
			<stop  offset="0.9781" style="stop-color:#B12B30"/>
			<stop  offset="1" style="stop-color:#B12B30"/>
		</linearGradient>
		
			<rect x="27.2" y="70.1" style="clip-path:url(#SVGID_00000132791267482663234580000002375532066041310114_);fill:url(#SVGID_00000149378503920278643560000006887486097703675273_);" width="8.4" height="8.2"/>
	</g>
	<g>
		<defs>
			<path id="SVGID_00000147195052299041459590000005168626049006374845_" d="M28.7,65.2l-6.2,6.2c-0.4,0.4-0.4,1,0,1.4
				c0.2,0.2,0.5,0.3,0.7,0.3c0.2,0,0.5-0.1,0.7-0.3l6.2-6.2c0.4-0.4,0.4-1,0-1.4c-0.2-0.2-0.4-0.3-0.7-0.3
				C29.1,64.9,28.8,65,28.7,65.2"/>
		</defs>
		<clipPath id="SVGID_00000069365356053223828030000017368541717576504221_">
			<use xlink:href="#SVGID_00000147195052299041459590000005168626049006374845_"  style="overflow:visible;"/>
		</clipPath>
		
			<linearGradient id="SVGID_00000128463016275631486940000016203723356373442965_" gradientUnits="userSpaceOnUse" x1="-204.6735" y1="263.192" x2="-201.4966" y2="263.192" gradientTransform="matrix(2.5797 0 0 2.5797 550.136 -609.9335)">
			<stop  offset="0" style="stop-color:#EE6F25"/>
			<stop  offset="1.187850e-02" style="stop-color:#EE6F25"/>
			<stop  offset="0.4238" style="stop-color:#CF502D"/>
			<stop  offset="0.9781" style="stop-color:#B12B30"/>
			<stop  offset="1" style="stop-color:#B12B30"/>
		</linearGradient>
		
			<rect x="22" y="64.9" style="clip-path:url(#SVGID_00000069365356053223828030000017368541717576504221_);fill:url(#SVGID_00000128463016275631486940000016203723356373442965_);" width="8.4" height="8.2"/>
	</g>
	<g>
		<defs>
			<rect id="SVGID_00000009572559208987853030000018253705558000207016_" x="7" y="59.7" width="2.2" height="5.3"/>
		</defs>
		<clipPath id="SVGID_00000079454874019014801680000000703120657210349496_">
			<use xlink:href="#SVGID_00000009572559208987853030000018253705558000207016_"  style="overflow:visible;"/>
		</clipPath>
		
			<linearGradient id="SVGID_00000140730254244783623680000009854855993872466587_" gradientUnits="userSpaceOnUse" x1="-289.4343" y1="384.479" x2="-286.2575" y2="384.479" gradientTransform="matrix(0.684 0 0 0.684 204.9798 -200.6819)">
			<stop  offset="0" style="stop-color:#EE6F25"/>
			<stop  offset="1.187850e-02" style="stop-color:#EE6F25"/>
			<stop  offset="0.4238" style="stop-color:#CF502D"/>
			<stop  offset="0.9781" style="stop-color:#B12B30"/>
			<stop  offset="1" style="stop-color:#B12B30"/>
		</linearGradient>
		
			<rect x="7" y="59.7" style="clip-path:url(#SVGID_00000079454874019014801680000000703120657210349496_);fill:url(#SVGID_00000140730254244783623680000009854855993872466587_);" width="2.2" height="5.3"/>
	</g>
	<g>
		<defs>
			<path id="SVGID_00000025418449035724485410000012642031418895852941_" d="M4.1,47.3c-1.8,0-3.2,1.4-3.2,3.2v41.2
				c0,1.8,1.4,3.2,3.2,3.2h3c0-0.5,0.4-1,1-1h8.3c0.5,0,1,0.4,1,1h23.7v-0.1v-5.1H9.2c-2.3,0-4.2-1.9-4.2-4.2V56.7
				c0-2.3,1.9-4.2,4.2-4.2h31.9v-1.1c0-0.5,0.4-1,1-1h1.1v-2.2c0-0.5,0.4-1,1-1H4.1z"/>
		</defs>
		<clipPath id="SVGID_00000029031688653851706440000013521451865129375387_">
			<use xlink:href="#SVGID_00000025418449035724485410000012642031418895852941_"  style="overflow:visible;"/>
		</clipPath>
		
			<linearGradient id="SVGID_00000065785949888365197980000012767742362473235104_" gradientUnits="userSpaceOnUse" x1="-185.3759" y1="225.8351" x2="-182.1988" y2="225.8351" gradientTransform="matrix(13.649 0 0 13.649 2531.0334 -3011.313)">
			<stop  offset="0" style="stop-color:#EE6F25"/>
			<stop  offset="1.187850e-02" style="stop-color:#EE6F25"/>
			<stop  offset="0.4238" style="stop-color:#CF502D"/>
			<stop  offset="0.9781" style="stop-color:#B12B30"/>
			<stop  offset="1" style="stop-color:#B12B30"/>
		</linearGradient>
		
			<rect x="0.8" y="47.3" style="clip-path:url(#SVGID_00000029031688653851706440000013521451865129375387_);fill:url(#SVGID_00000065785949888365197980000012767742362473235104_);" width="43.4" height="47.7"/>
	</g>
</g>
</svg>
