<?xml version="1.0" encoding="UTF-8"?>
<!-- Generator: Adobe Illustrator 27.4.0, SVG Export Plug-In . SVG Version: 6.00 Build 0)  -->
<svg version="1.1" id="icon-3" xmlns="http://www.w3.org/2000/svg" xmlns:xlink="http://www.w3.org/1999/xlink" x="0px" y="0px" viewBox="0 0 150 150" style="enable-background:new 0 0 150 150;" xml:space="preserve">
<style type="text/css">
	#icon-3 .st0{fill:none;stroke:#FFFFFF;stroke-width:9;stroke-linecap:round;stroke-miterlimit:10;}
</style>
<g class="wow drowline">
	<path class="st0" d="M123,31.5c-15.5-1.3-30.1-7.9-41.1-18.9l-2.8-3c-1.1-1.1-2.7-1.7-4.2-1.7c-1.6,0-3.1,0.6-4.2,1.7l-2.8,3   c-11,11-25.6,17.7-41.1,18.9c-3.1,0.3-5.5,2.8-5.5,5.9v17.1c0,35.9,19.5,69.2,50.7,86.9c0.8,0.6,2,0.7,3,0.7s2-0.3,3-0.7   c31.2-17.7,50.7-51,50.7-86.9V37.4C128.5,34.3,126.1,31.8,123,31.5L123,31.5z"/>
	<polyline class="st0" points="46.8,74.7 55.6,96 109.8,59.1  "/>
</g>
</svg>