<?xml version="1.0" encoding="UTF-8"?>
<!-- Generator: Adobe Illustrator 27.4.0, SVG Export Plug-In . SVG Version: 6.00 Build 0)  -->
<svg version="1.1" id="icon-6" xmlns="http://www.w3.org/2000/svg" xmlns:xlink="http://www.w3.org/1999/xlink" x="0px" y="0px" viewBox="0 0 150 150" style="enable-background:new 0 0 150 150;" xml:space="preserve">
<style type="text/css">
	#icon-6 .st0{fill:none;stroke:#FFFFFF;stroke-width:4;stroke-miterlimit:10;}
</style>
<g class="wow drowline">
	<path class="st0" d="M142,89c0.9,1.1,2.2,2,2.7,3.3c2.8,8.4,1.9,16.4-3.2,23.8c-7.6,10.9-18.3,16.2-31.4,16.3   c-23.4,0.2-46.8,0.1-70.1,0c-3,0-6.1-0.5-9.1-1.3c-9.7-2.4-17.3-8-22.8-16.3c-3.9-6-5.2-12.5-3.7-19.5c0.6-2.8,1.6-5.6,5.6-6.5   c0-5.8-0.7-11.9,0.1-17.9C12.9,50.3,24,35,42.2,25c1.3-0.7,2.5-1.7,3.4-2.8c2.4-2.9,5.3-4.7,9.1-4.7c13.6,0,27.2-0.1,40.8,0   c3.5,0,6.4,1.6,8.8,4.1c1.5,1.5,3,2.8,4.9,3.9c20.5,11.9,31.3,29.5,31.8,53.3c0.1,3.4,0,6.7,0,10.1c0,0.1,0,0.2,0.1,0.3   C141.5,89.1,141.7,89,142,89z"/>
	<path class="st0" d="M68.5,70c0-2.2,0.1-4.3,0-6.2c-0.1-1.9,0.7-2.6,2.6-2.5c2.3,0.1,4.5,0.1,6.8,0c2-0.1,2.6,0.8,2.5,2.6   c-0.1,2,0,3.9,0,6.2c2.1,0,4.1,0.1,6.1,0c1.8-0.1,2.7,0.6,2.6,2.5c-0.1,2.4-0.1,4.7,0,7.1c0,1.6-0.7,2.4-2.3,2.3c-2-0.1-4,0-6.5,0   c0,2.1-0.1,4.2,0,6.2c0.1,1.8-0.6,2.7-2.5,2.6c-2.4-0.1-4.7-0.1-7.1,0c-1.8,0.1-2.5-0.8-2.4-2.5c0.1-2,0-4,0-6.2   c-2.3,0-4.3-0.1-6.3,0c-1.7,0.1-2.5-0.6-2.5-2.4c0.1-2.4,0.1-4.7,0-7.1c-0.1-1.8,0.7-2.5,2.5-2.4C64.2,70.1,66.3,70,68.5,70z"/>
	<path class="st0" d="M10.1,86.5c0,0,59.3,46.4,131.2,0.4"/>
	<line class="st0" x1="43.6" y1="23.8" x2="41.3" y2="102.4"/>
	<line class="st0" x1="105.5" y1="22.6" x2="104.4" y2="104"/>
</g>
</svg>