<?xml version="1.0" encoding="utf-8"?>
<!-- Generator: Adobe Illustrator 27.8.1, SVG Export Plug-In . SVG Version: 6.00 Build 0)  -->
<svg version="1.1" id="Layer_1" xmlns="http://www.w3.org/2000/svg" xmlns:xlink="http://www.w3.org/1999/xlink" x="0px" y="0px"
	 viewBox="0 0 96.2 100" style="enable-background:new 0 0 96.2 100;" xml:space="preserve">
<style type="text/css">
	.st0{fill:none;}
	
		.st1{clip-path:url(#SVGID_00000044885994504133794140000009000478597591172785_);fill:url(#SVGID_00000023250574751244732090000010161213309226002855_);}
	
		.st2{clip-path:url(#SVGID_00000174604094743914724180000015397568003004209813_);fill:url(#SVGID_00000140706195620311506250000015892628022950605464_);}
</style>
<rect x="-136.2" y="-97.7" class="st0" width="465.9" height="333.3"/>
<rect x="-136.2" y="-97.7" class="st0" width="465.9" height="333.3"/>
<rect x="-136.2" y="-97.7" class="st0" width="465.9" height="333.3"/>
<rect x="-136.2" y="-97.7" class="st0" width="465.9" height="333.3"/>
<g>
	<g>
		<defs>
			<path id="SVGID_1_" d="M31.6,60.9v1.2h-1.2C30.7,61.6,31.1,61.2,31.6,60.9 M19.6,45.4c-0.3-1.9,1-3.6,2.9-3.9
				c1.9-0.3,3.6,1,3.9,2.9c0.3,1.7-0.8,3.4-2.5,3.8c-0.1,0-0.2,0-0.4,0.1c-0.2,0-0.3,0-0.5,0C21.3,48.3,19.8,47.1,19.6,45.4
				 M14.4,27.6h1.2c-0.3,0.5-0.7,0.9-1.2,1.2V27.6z M14.4,32.6c2.4-0.6,4.3-2.5,4.9-4.9h7.4c0.6,2.4,2.5,4.3,4.9,4.9v24.6
				c-2.4,0.6-4.3,2.5-4.9,4.9h-3l4.8-4.8c2.1-2.1,2.1-5.5,0-7.6c0,0,0,0,0,0c-0.1-0.1-0.2-0.2-0.4-0.3c2.5-2.9,2.2-7.2-0.6-9.7
				c-2.9-2.5-7.2-2.2-9.7,0.6c-2.5,2.9-2.2,7.2,0.6,9.7c0.4,0.3,0.8,0.6,1.3,0.9l-5.3,5.3V32.6z M30.4,27.6h1.2v1.2
				C31.1,28.6,30.7,28.2,30.4,27.6 M12.7,24.2c-1,0-1.7,0.8-1.7,1.7v13.3L2.1,54c-1,1.6-1.5,3.4-1.5,5.3v11.6
				c0,4.6,0.6,9.2,1.7,13.6l0,15.5h22.4V84.9l2.1-4.2c0.9-1.8,1.4-3.8,1.4-5.8c0-3.5-1.3-6.8-3.6-9.4h8.8c1,0,1.7-0.8,1.7-1.7V25.9
				c0-1-0.8-1.7-1.7-1.7H12.7z"/>
		</defs>
		<clipPath id="SVGID_00000101820569613992583230000018085813784838582463_">
			<use xlink:href="#SVGID_1_"  style="overflow:visible;"/>
		</clipPath>
		
			<linearGradient id="SVGID_00000178182345557969880220000003640976047809383078_" gradientUnits="userSpaceOnUse" x1="-200.6843" y1="141.5359" x2="-197.4972" y2="141.5359" gradientTransform="matrix(10.8077 0 0 10.8077 2169.5283 -1467.5767)">
			<stop  offset="0" style="stop-color:#EE6F25"/>
			<stop  offset="1.187850e-02" style="stop-color:#EE6F25"/>
			<stop  offset="0.4238" style="stop-color:#CF502D"/>
			<stop  offset="0.9781" style="stop-color:#B12B30"/>
			<stop  offset="1" style="stop-color:#B12B30"/>
		</linearGradient>
		
			<rect x="0.6" y="24.2" style="clip-path:url(#SVGID_00000101820569613992583230000018085813784838582463_);fill:url(#SVGID_00000178182345557969880220000003640976047809383078_);" width="34.4" height="75.8"/>
	</g>
	<g>
		<defs>
			<path id="SVGID_00000157991061211860700520000001943388389492043952_" d="M46.5,63.8H79c1.4,0,2.6,1.2,2.6,2.6
				c0,1.4-1.2,2.6-2.6,2.6H46.5C47.3,67.4,47.3,65.5,46.5,63.8 M50.5,43.1h16.8c-1.9,2.3-1.7,5.6,0.6,7.6c1.9,1.6,4.7,1.7,6.7,0.2
				v2.5H50.5V43.1z M43.7,20.8h25.1c-0.4,1.1-0.6,2.3-0.7,3.4H48.8v3.4h19.5c0.2,1.2,0.6,2.3,1.1,3.4H48.8v3.4h22.8
				c0.7,0.7,1.4,1.4,2.2,2l-3.1,3.2H48.8c-0.9,0-1.7,0.8-1.7,1.7v13.8c0,1,0.8,1.7,1.7,1.7h27.6c0.9,0,1.7-0.8,1.7-1.7v-7.6l3.4-3.5
				V61c0,0-0.1,0-0.1,0c-0.3-0.1-0.5-0.2-0.8-0.3c-0.1,0-0.3-0.1-0.4-0.1c-0.4-0.1-0.9-0.1-1.3-0.1H43.7V20.8z M71.4,0v15l-1.2,2.3
				H41.9c-0.9,0-1.7,0.8-1.7,1.7v43.1c0,0,0,0.1,0,0.1c0,0.2,0,0.3,0.1,0.5c0,0.1,0,0.1,0,0.2c0.1,0.2,0.2,0.4,0.3,0.5
				c0,0,0.1,0,0.1,0.1c0.1,0.1,0.2,0.2,0.4,0.3l1.1,0.6c1.2,0.6,1.7,2.1,1.1,3.3c-0.2,0.5-0.6,0.9-1.1,1.1l-1.1,0.6
				c-0.8,0.4-1.2,1.5-0.8,2.3c0.3,0.6,0.9,0.9,1.5,0.9h37c3.3,0,6-2.7,6-6v-5.2l9.1-15.3c1-1.6,1.5-3.4,1.5-5.3V29.1
				c0-4.6-0.6-9.2-1.7-13.6L93.8,0H71.4z"/>
		</defs>
		<clipPath id="SVGID_00000096740871208211689320000008705110588860872349_">
			<use xlink:href="#SVGID_00000157991061211860700520000001943388389492043952_"  style="overflow:visible;"/>
		</clipPath>
		
			<linearGradient id="SVGID_00000143580666747640010600000004081236269476108721_" gradientUnits="userSpaceOnUse" x1="-192.2285" y1="139.1781" x2="-189.0415" y2="139.1781" gradientTransform="matrix(17.3668 0 0 17.3668 3378.6057 -2380.8547)">
			<stop  offset="0" style="stop-color:#EE6F25"/>
			<stop  offset="1.187850e-02" style="stop-color:#EE6F25"/>
			<stop  offset="0.4238" style="stop-color:#CF502D"/>
			<stop  offset="0.9781" style="stop-color:#B12B30"/>
			<stop  offset="1" style="stop-color:#B12B30"/>
		</linearGradient>
		
			<rect x="40" y="0" style="clip-path:url(#SVGID_00000096740871208211689320000008705110588860872349_);fill:url(#SVGID_00000143580666747640010600000004081236269476108721_);" width="55.6" height="72.4"/>
	</g>
</g>
</svg>
