<?xml version="1.0" encoding="utf-8"?>
<!-- Generator: Adobe Illustrator 27.8.1, SVG Export Plug-In . SVG Version: 6.00 Build 0)  -->
<svg version="1.1" id="Layer_1" xmlns="http://www.w3.org/2000/svg" xmlns:xlink="http://www.w3.org/1999/xlink" x="0px" y="0px"
	 viewBox="0 0 97.6 100" style="enable-background:new 0 0 97.6 100;" xml:space="preserve">
<style type="text/css">
	.st0{fill:none;}
	
		.st1{clip-path:url(#SVGID_00000179643617529756829190000007197389250053689524_);fill:url(#SVGID_00000091732904049041650710000002206018521230678928_);}
	
		.st2{clip-path:url(#SVGID_00000036223849672596687440000002870288420420722846_);fill:url(#SVGID_00000008868581915838941250000002503827566912438199_);}
	
		.st3{clip-path:url(#SVGID_00000034793507519831591330000011148678314698131873_);fill:url(#SVGID_00000143588170636313640430000017869297443490039685_);}
</style>
<rect x="-135.8" y="-97.7" class="st0" width="465.9" height="333.3"/>
<rect x="-135.8" y="-97.7" class="st0" width="465.9" height="333.3"/>
<rect x="-135.8" y="-97.7" class="st0" width="465.9" height="333.3"/>
<rect x="-135.8" y="-97.7" class="st0" width="465.9" height="333.3"/>
<g>
	<g>
		<defs>
			<path id="SVGID_1_" d="M13,44c-1.9-1-3.2-2.2-3.2-3.6c0-1.4,1.3-2.6,3.2-3.6c3.5-1.9,9.2-3.1,15.5-3.1c6.4,0,12,1.2,15.5,3.1
				c1.9,1,3.2,2.2,3.2,3.6c0,1.4-1.3,2.6-3.2,3.6c-3.5,1.9-9.2,3.1-15.5,3.1C22.2,47.1,16.5,45.9,13,44 M11.8,34.6
				c-2.9,1.6-4.5,3.7-4.5,5.8s1.6,4.2,4.5,5.8c3.8,2,9.9,3.4,16.7,3.4s12.9-1.4,16.7-3.4c2.9-1.6,4.5-3.7,4.5-5.8s-1.6-4.2-4.5-5.8
				c-3.8-2-9.9-3.4-16.7-3.4S15.6,32.5,11.8,34.6"/>
		</defs>
		<clipPath id="SVGID_00000079487395537650791650000015046564281975213245_">
			<use xlink:href="#SVGID_1_"  style="overflow:visible;"/>
		</clipPath>
		
			<linearGradient id="SVGID_00000167376441823983127030000005352125248224820883_" gradientUnits="userSpaceOnUse" x1="-187.4884" y1="218.6952" x2="-184.4574" y2="218.6952" gradientTransform="matrix(14.006 0 0 14.006 2633.2891 -3022.6917)">
			<stop  offset="0" style="stop-color:#EE6F25"/>
			<stop  offset="1.187850e-02" style="stop-color:#EE6F25"/>
			<stop  offset="0.4238" style="stop-color:#CF502D"/>
			<stop  offset="0.9781" style="stop-color:#B12B30"/>
			<stop  offset="1" style="stop-color:#B12B30"/>
		</linearGradient>
		
			<rect x="7.3" y="31.1" style="clip-path:url(#SVGID_00000079487395537650791650000015046564281975213245_);fill:url(#SVGID_00000167376441823983127030000005352125248224820883_);" width="42.5" height="18.4"/>
	</g>
	<g>
		<defs>
			<path id="SVGID_00000058570138471478269140000005913454450489176503_" d="M9.8,61.5c0-1.8,1.1-3.5,2.5-3.5s2.5,1.6,2.5,3.5
				c0,0.5-0.1,1-0.2,1.4c-0.8-1.2-1.2-2-1.2-2c-0.3-0.6-1.1-0.9-1.7-0.5c-0.6,0.3-0.9,1.1-0.5,1.7c0,0,0.6,1.1,1.7,2.8
				c-0.2,0.1-0.4,0.1-0.6,0.1C10.9,64.9,9.8,63.3,9.8,61.5 M56,55.6c0.6,1.3,1.2,3,1.4,4.7c0.2,2.1-0.1,4.3-1.4,6.5V55.6z
				 M40.3,67.9c1.3,0,2.4-1.1,2.4-2.4c0,0,0-7.5,0-10.9c0-0.9,0.6-1.7,1.4-2.1c2.4-0.9,4.5-1.9,6.2-3.1c0.9-0.6,1.7-1.3,2.4-2v23.1
				c-1.9,1.6-4.4,3.1-7.8,4.5c-9.9,4.1-17.8,0.6-23.2-3.9c-2.3-2-4.2-4.1-5.6-6c0.7-1,1.1-2.3,1.1-3.7c0-3.4-2.3-6-5-6
				c-2.7,0-5,2.6-5,6c0,3.4,2.3,5.9,5,5.9c0.7,0,1.4-0.2,2.1-0.5c1.5,1.9,3.4,4.1,5.8,6.2c6,5,14.7,8.9,25.7,4.3
				c2.7-1.1,5-2.4,6.8-3.6v10.8c0,2.4-1.7,4.6-4.3,6.5c-4.5,3.1-11.8,5.1-19.9,5.1s-15.4-2-19.9-5.1c-2.6-1.8-4.3-4-4.3-6.5V47.4
				c0.7,0.7,1.5,1.4,2.5,2c4.5,3.1,11.5,5.3,19.5,5.6c1.2,0,2.1,1,2.1,2.2v1.6c0,0.6,0.3,1.2,0.7,1.7c0.4,0.4,1.1,0.7,1.7,0.7h0.3
				c1.2,0,2.1-0.9,2.1-2.1c0-0.6,0.2-1.1,0.6-1.5c0.4-0.4,1-0.6,1.5-0.6h0c1.8,0,2.6,1.2,2.6,2.6v5.9C37.9,66.9,39,67.9,40.3,67.9
				L40.3,67.9z M8.6,46.8c-2.6-1.8-4.3-4-4.3-6.5s1.7-4.6,4.3-6.5c4.5-3.1,11.8-5.1,19.9-5.1s15.4,2,19.9,5.1c2.6,1.8,4.3,4,4.3,6.5
				s-1.7,4.6-4.3,6.5C44,50,36.7,51.9,28.6,51.9S13.1,50,8.6,46.8 M6.8,31.2c-3.6,2.5-5.7,5.7-5.7,9.1v44.2c0,3.4,2,6.6,5.7,9.1
				c4.9,3.4,12.8,5.7,21.8,5.7s16.9-2.3,21.8-5.7c3.6-2.5,5.7-5.7,5.7-9.1V71c3.5-3.7,4.2-7.6,3.9-10.9c-0.4-4.2-2.7-7.7-3.9-9.2
				V40.4c0-3.4-2-6.6-5.7-9.1c-4.9-3.4-12.8-5.7-21.8-5.7S11.7,27.8,6.8,31.2"/>
		</defs>
		<clipPath id="SVGID_00000134222803726915624380000003801601936771172232_">
			<use xlink:href="#SVGID_00000058570138471478269140000005913454450489176503_"  style="overflow:visible;"/>
		</clipPath>
		
			<linearGradient id="SVGID_00000115513312376747278270000001736326846592649663_" gradientUnits="userSpaceOnUse" x1="-186.194" y1="218.9835" x2="-183.1629" y2="218.9835" gradientTransform="matrix(19.4304 0 0 19.4304 3618.896 -4192.4927)">
			<stop  offset="0" style="stop-color:#EE6F25"/>
			<stop  offset="1.187850e-02" style="stop-color:#EE6F25"/>
			<stop  offset="0.4238" style="stop-color:#CF502D"/>
			<stop  offset="0.9781" style="stop-color:#B12B30"/>
			<stop  offset="1" style="stop-color:#B12B30"/>
		</linearGradient>
		
			<rect x="1.1" y="25.5" style="clip-path:url(#SVGID_00000134222803726915624380000003801601936771172232_);fill:url(#SVGID_00000115513312376747278270000001736326846592649663_);" width="59.2" height="73.8"/>
	</g>
	<g>
		<defs>
			<path id="SVGID_00000101794830049677492960000007363229595782240392_" d="M89.1,69.4c-0.8-0.8-2-2-2.9-2.9
				c-0.4-0.4-0.6-0.8-0.6-1.4c0-0.5,0.2-1,0.6-1.4c0.4-0.4,0.8-0.6,1.4-0.6c0.5,0,1,0.2,1.4,0.6c0.9,0.9,2.1,2.1,2.9,2.9
				c0.2,0.2,0.3,0.5,0.3,0.8c0,0.3-0.1,0.6-0.3,0.8c-0.3,0.3-0.7,0.7-1,1c-0.2,0.2-0.5,0.4-0.8,0.4C89.6,69.7,89.3,69.6,89.1,69.4
				 M53.7,1.9C47,8.6,31,24.6,24.3,31.3c-0.8,0.8-1.2,1.9-1.2,3c0,1.1,0.4,2.2,1.2,3l1.9,1.9l-1.6,1.6c-0.6,0.6-0.6,1.7,0,2.3
				c0.6,0.6,1.7,0.6,2.3,0l1.6-1.6l1.9,1.9c0.8,0.8,1.9,1.2,3,1.2s2.2-0.5,3-1.2c6.7-6.7,22.7-22.7,29.4-29.4c0.8-0.8,1.2-1.9,1.2-3
				c0-1.1-0.4-2.2-1.2-3l-1.9-1.9l1.8-1.8l6.1,6.1L59.9,37.5c-0.4,0.9-0.2,2.1,0.5,2.8l4.4,4.4l-3,3c-0.2,0.2-0.2,0.5,0,0.7
				c2.7,2.7,17.2,17.2,24.8,24.8c1.7,1.7,4.6,1.7,6.3,0c0.9-0.9,1.8-1.8,2.7-2.7c1.7-1.7,1.7-4.6,0-6.3L70.8,39.3
				c-0.2-0.2-0.5-0.2-0.7,0l-3,3l-4-4L75,11.2c0.4-0.9,0.2-2.1-0.5-2.8c-1.3-1.3-5.4-5.4-7-7C67,1,66.4,0.7,65.7,0.7
				c-0.7,0-1.3,0.3-1.8,0.7l-2.3,2.3l-1.9-1.9c-0.8-0.8-1.9-1.2-3-1.2C55.6,0.7,54.5,1.1,53.7,1.9"/>
		</defs>
		<clipPath id="SVGID_00000132050178063511922810000007284652230793423271_">
			<use xlink:href="#SVGID_00000101794830049677492960000007363229595782240392_"  style="overflow:visible;"/>
		</clipPath>
		
			<linearGradient id="SVGID_00000088099322551424903740000008916257005978859675_" gradientUnits="userSpaceOnUse" x1="-184.7575" y1="217.9042" x2="-181.7265" y2="217.9042" gradientTransform="matrix(24.352 0 0 24.352 4522.2856 -5268.6265)">
			<stop  offset="0" style="stop-color:#EE6F25"/>
			<stop  offset="1.187850e-02" style="stop-color:#EE6F25"/>
			<stop  offset="0.4238" style="stop-color:#CF502D"/>
			<stop  offset="0.9781" style="stop-color:#B12B30"/>
			<stop  offset="1" style="stop-color:#B12B30"/>
		</linearGradient>
		
			<rect x="23.1" y="0.7" style="clip-path:url(#SVGID_00000132050178063511922810000007284652230793423271_);fill:url(#SVGID_00000088099322551424903740000008916257005978859675_);" width="74.2" height="74.2"/>
	</g>
</g>
</svg>
