<?xml version="1.0" encoding="utf-8"?>
<!-- Generator: Adobe Illustrator 27.8.1, SVG Export Plug-In . SVG Version: 6.00 Build 0)  -->
<svg version="1.1" id="Layer_1" xmlns="http://www.w3.org/2000/svg" xmlns:xlink="http://www.w3.org/1999/xlink" x="0px" y="0px"
	 viewBox="0 0 49.7 100" style="enable-background:new 0 0 49.7 100;" xml:space="preserve">
<style type="text/css">
	.st0{fill:none;}
	
		.st1{clip-path:url(#SVGID_00000118372239470509506640000007780811910636816787_);fill:url(#SVGID_00000066497878438756460040000017683111101520699020_);}
	
		.st2{clip-path:url(#SVGID_00000059277759024699609830000005101786389581233034_);fill:url(#SVGID_00000012450001846050362540000016954097418730181776_);}
</style>
<rect x="-159.6" y="-97.7" class="st0" width="465.9" height="333.3"/>
<rect x="-159.6" y="-97.7" class="st0" width="465.9" height="333.3"/>
<rect x="-159.6" y="-97.7" class="st0" width="465.9" height="333.3"/>
<rect x="-159.6" y="-97.7" class="st0" width="465.9" height="333.3"/>
<g>
	<g>
		<defs>
			<path id="SVGID_1_" d="M5.7,53.5v-6.2c0-1.2,0.8-2.1,2.1-2.1c1.2,0,2.1,0.8,2.1,2.1v6.2c0,1.2-0.8,2.1-2.1,2.1
				C6.5,55.6,5.7,54.7,5.7,53.5 M0.8,39.3v49.8c0,3.5,2.7,6.2,6.2,6.2h1.2v4.1h5.6v-4.1H36v4.1h5.6v-4.1h1.2c3.5,0,6.2-2.7,6.2-6.2
				V39.3H0.8z"/>
		</defs>
		<clipPath id="SVGID_00000182506631623365411250000002251581315061014204_">
			<use xlink:href="#SVGID_1_"  style="overflow:visible;"/>
		</clipPath>
		
			<linearGradient id="SVGID_00000052064869039321750300000017900118167934695841_" gradientUnits="userSpaceOnUse" x1="-196.4358" y1="214.5416" x2="-193.2481" y2="214.5416" gradientTransform="matrix(15.11 0 0 15.11 2968.9189 -3172.3726)">
			<stop  offset="0" style="stop-color:#EE6F25"/>
			<stop  offset="1.187850e-02" style="stop-color:#EE6F25"/>
			<stop  offset="0.4238" style="stop-color:#CF502D"/>
			<stop  offset="0.9781" style="stop-color:#B12B30"/>
			<stop  offset="1" style="stop-color:#B12B30"/>
		</linearGradient>
		
			<rect x="0.8" y="39.3" style="clip-path:url(#SVGID_00000182506631623365411250000002251581315061014204_);fill:url(#SVGID_00000052064869039321750300000017900118167934695841_);" width="48.2" height="60.1"/>
	</g>
	<g>
		<defs>
			<path id="SVGID_00000069362522942053753390000013340587864589198479_" d="M5.7,29v-6.2c0-1.2,0.8-2.1,2.1-2.1
				c1.2,0,2.1,0.8,2.1,2.1V29c0,1.2-0.8,2.1-2.1,2.1C6.5,31.1,5.7,30.2,5.7,29 M7,0.6c-3.5,0-6.2,2.7-6.2,6.2v28.4h48.2V6.8
				c0-3.5-2.7-6.2-6.2-6.2H7z"/>
		</defs>
		<clipPath id="SVGID_00000136384166380922440600000010047187750419719335_">
			<use xlink:href="#SVGID_00000069362522942053753390000013340587864589198479_"  style="overflow:visible;"/>
		</clipPath>
		
			<linearGradient id="SVGID_00000085228095536608201210000015682035868645661098_" gradientUnits="userSpaceOnUse" x1="-196.4358" y1="212.2043" x2="-193.2481" y2="212.2043" gradientTransform="matrix(15.11 0 0 15.11 2968.9189 -3188.5156)">
			<stop  offset="0" style="stop-color:#EE6F25"/>
			<stop  offset="1.187850e-02" style="stop-color:#EE6F25"/>
			<stop  offset="0.4238" style="stop-color:#CF502D"/>
			<stop  offset="0.9781" style="stop-color:#B12B30"/>
			<stop  offset="1" style="stop-color:#B12B30"/>
		</linearGradient>
		
			<rect x="0.8" y="0.6" style="clip-path:url(#SVGID_00000136384166380922440600000010047187750419719335_);fill:url(#SVGID_00000085228095536608201210000015682035868645661098_);" width="48.2" height="34.6"/>
	</g>
</g>
</svg>
