<?xml version="1.0" encoding="utf-8"?>
<!-- Generator: Adobe Illustrator 27.8.1, SVG Export Plug-In . SVG Version: 6.00 Build 0)  -->
<svg version="1.1" id="Layer_1" xmlns="http://www.w3.org/2000/svg" xmlns:xlink="http://www.w3.org/1999/xlink" x="0px" y="0px"
	 viewBox="0 0 123.2 100" style="enable-background:new 0 0 123.2 100;" xml:space="preserve">
<style type="text/css">
	.st0{fill:none;}
	
		.st1{clip-path:url(#SVGID_00000031911690404850379470000004869376699715303319_);fill:url(#SVGID_00000049186746293930933130000005712878915758857119_);}
	.st2{fill:none;stroke:#FFFFFF;stroke-width:0.46;stroke-miterlimit:10;}
	
		.st3{clip-path:url(#SVGID_00000078765657432234947840000013922949094969051289_);fill:url(#SVGID_00000177481651623552665190000011908612790380924333_);}
	
		.st4{clip-path:url(#SVGID_00000069394727123926108500000003495409863263527564_);fill:url(#SVGID_00000105420267498486762740000011699896058929305989_);}
	
		.st5{clip-path:url(#SVGID_00000165929022492361970870000000344212189775781506_);fill:url(#SVGID_00000164495529166183171740000014191516128631601564_);}
	
		.st6{clip-path:url(#SVGID_00000062894888600958575380000013617851343085492623_);fill:url(#SVGID_00000091005019970010484030000010933108152485859502_);}
</style>
<rect x="-123.2" y="-97.7" class="st0" width="465.9" height="333.3"/>
<rect x="-123.2" y="-97.7" class="st0" width="465.9" height="333.3"/>
<rect x="-123.2" y="-97.7" class="st0" width="465.9" height="333.3"/>
<rect x="-123.2" y="-97.7" class="st0" width="465.9" height="333.3"/>
<g>
	<g>
		<defs>
			<path id="SVGID_1_" d="M55.9,53.5L55.9,53.5L55.9,53.5L55.9,53.5L55.9,53.5L55.9,53.5L55.9,53.5L55.9,53.5l-0.1,0l0,0h0h0h0l0,0
				h0h0h0h0h0h0h0h0h0h0h0h0h0h0h0h0h0h0h0l0,0h0h0h0l0,0h0l0,0l0,0l0,0h0l-10.1-2.7c-0.1,0.6-0.2,1.2-0.2,1.9
				c0,2.9,1.2,5.5,3.1,7.4c1.9,1.9,4.5,3.1,7.4,3.1c2.9,0,5.5-1.2,7.4-3.1c1.9-1.9,3.1-4.5,3.1-7.4c0-0.6-0.1-1.3-0.2-1.9L55.9,53.5
				z M67.7,50.3c0.1,0.8,0.2,1.5,0.2,2.3c0,3.4-1.4,6.5-3.6,8.7c-2.2,2.2-5.3,3.6-8.7,3.6c-3.4,0-6.5-1.4-8.7-3.6
				c-2.2-2.2-3.6-5.3-3.6-8.7c0-0.8,0.1-1.6,0.2-2.3L39,49.1c-0.2,1.1-0.4,2.3-0.4,3.5c0,4.7,1.9,8.9,5,12c3.1,3.1,7.3,5,12,5
				s8.9-1.9,12-5c3.1-3.1,5-7.3,5-12c0-1.2-0.1-2.4-0.4-3.5L67.7,50.3z M6.5,53h7.3v-7.4H6.5V53z M0.7,42.6v13.3h4v-4.2v0v-4.9v0
				v-4.2H0.7z M48.2,45.2c-1.1,1.1-1.9,2.4-2.5,3.9l9.9,2.7l9.9-2.7c-0.5-1.5-1.4-2.8-2.4-3.8l-0.1,0c-1.9-1.9-4.5-3.1-7.4-3.1
				C52.7,42.1,50.1,43.3,48.2,45.2 M109.9,44.4h5.2v-6.7h-5.2V44.4z M43.6,40.6c-1.9,1.9-3.3,4.2-4.2,6.8l4.5,1.2
				c0.6-1.8,1.6-3.4,2.9-4.7c2.2-2.2,5.3-3.6,8.7-3.6c3.4,0,6.5,1.4,8.7,3.6l0,0.1c1.3,1.3,2.3,2.9,2.9,4.6l4.6-1.2
				c-0.8-2.6-2.2-4.9-4.1-6.7l0,0c-3.1-3.1-7.3-5-12-5C50.9,35.6,46.7,37.5,43.6,40.6 M116.9,34.3v9.1v0v4.2l5.9,0V34.3H116.9z
				 M97.4,27.7v1.8l0,24.9h10.7V39.8v-1.2v0V27.7H97.4z M42.4,39.4c3.4-3.4,8.1-5.5,13.3-5.5c5.2,0,9.9,2.1,13.3,5.5l0.1,0.1
				c2.1,2.1,3.7,4.6,4.6,7.5l10-2.7c0.5-0.1,0.9,0.2,1.1,0.6c0.1,0.5-0.2,1-0.6,1.1l-10,2.7c0.3,1.3,0.4,2.6,0.4,4
				c0,5.2-2.1,9.9-5.5,13.3c-3.4,3.4-8.1,5.5-13.3,5.5c-5.2,0-9.9-2.1-13.3-5.5c-3.4-3.4-5.5-8.1-5.5-13.3c0-1.4,0.1-2.7,0.4-4
				l-10-2.7c-0.5-0.1-0.7-0.6-0.6-1.1c0.1-0.5,0.6-0.7,1.1-0.6l10,2.7C38.7,44,40.3,41.5,42.4,39.4 M86.8,19.8c-0.1,0-0.1,0-0.2,0
				H80l-40.6,0.1L26.9,33.2c-0.2,0.2-0.4,0.3-0.6,0.3l-10.7,0.2v13.2v0v4.9v0V69l11.1,2.4c0.2,0,0.3,0.1,0.4,0.2l14.3,13.7h33.5
				l20.8-25.1l0-4.8c0-0.1-0.1-0.2-0.1-0.3V26.8v-0.1l0-7L86.8,19.8z M76.6,8.6L76.6,8.6H59.9h0h-9.1V18h33.4l1.6,0V8.6H76.6z
				 M60.8,6.9h14.9V1.4H60.8V6.9z"/>
		</defs>
		<clipPath id="SVGID_00000164509789507519196160000009023821709628067237_">
			<use xlink:href="#SVGID_1_"  style="overflow:visible;"/>
		</clipPath>
		
			<linearGradient id="SVGID_00000068658237348600109090000016233216327603675789_" gradientUnits="userSpaceOnUse" x1="-169.0311" y1="217.7467" x2="-165.5711" y2="217.7467" gradientTransform="matrix(35.705 0 0 35.705 6035.2427 -7731.2158)">
			<stop  offset="0" style="stop-color:#EE6F25"/>
			<stop  offset="1.187850e-02" style="stop-color:#EE6F25"/>
			<stop  offset="0.4238" style="stop-color:#CF502D"/>
			<stop  offset="0.9781" style="stop-color:#B12B30"/>
			<stop  offset="1" style="stop-color:#B12B30"/>
		</linearGradient>
		
			<rect x="0.7" y="1.4" style="clip-path:url(#SVGID_00000164509789507519196160000009023821709628067237_);fill:url(#SVGID_00000068658237348600109090000016233216327603675789_);" width="122.1" height="84.1"/>
	</g>
	<path class="st2" d="M53.7,12.5c-0.3,0-0.7,0.2-0.8,0.5c-0.3,0.6,0.2,1.3,0.8,1.3h1.8c0.3,0,0.7-0.2,0.8-0.5
		c0.3-0.6-0.2-1.3-0.8-1.3H53.7z M82.8,14.2c0.3,0,0.7-0.2,0.8-0.5c0.3-0.6-0.2-1.3-0.8-1.3h-1c-0.3,0-0.7,0.2-0.8,0.5
		c-0.3,0.6,0.2,1.3,0.8,1.3H82.8z M76.5,14.2c0.3,0,0.7-0.2,0.8-0.5c0.3-0.6-0.1-1.3-0.8-1.3h-1.8c-0.3,0-0.7,0.2-0.8,0.5
		c-0.3,0.6,0.1,1.3,0.8,1.3H76.5z M69.5,14.2c0.3,0,0.7-0.2,0.8-0.5c0.3-0.6-0.2-1.3-0.8-1.3h-1.8c-0.3,0-0.7,0.2-0.8,0.5
		c-0.3,0.6,0.2,1.3,0.8,1.3H69.5z M62.5,14.2c0.3,0,0.7-0.2,0.8-0.5c0.3-0.6-0.2-1.3-0.8-1.3h-1.8c-0.3,0-0.7,0.2-0.8,0.5
		c-0.3,0.6,0.2,1.3,0.8,1.3H62.5z M60.8,6.9h14.9V1.4H60.8V6.9z M84.1,18l1.6,0V8.6h-9.1h0H59.9h0h-9.1V18H84.1z M86.8,19.8
		c0,0-0.1,0-0.2,0H80l-40.6,0.1L26.9,33.2c-0.2,0.2-0.4,0.3-0.6,0.3l-10.7,0.2v13.2v0v4.8v0V69l11.1,2.4c0.2,0,0.3,0.1,0.4,0.2
		l14.3,13.7h33.5l20.8-25.1l0-4.8c0-0.1-0.1-0.2-0.1-0.3V26.8v-0.1l0-7L86.8,19.8z M55.6,51.7l9.9-2.7c-0.5-1.5-1.4-2.8-2.4-3.8l0,0
		c-1.9-1.9-4.5-3.1-7.4-3.1c-2.9,0-5.5,1.2-7.4,3.1c-1.1,1.1-1.9,2.4-2.5,3.9L55.6,51.7z M67.3,48.6l4.6-1.2
		c-0.8-2.6-2.3-4.9-4.1-6.7l0,0c-3.1-3.1-7.3-5-12-5c-4.7,0-8.9,1.9-12,5c-1.9,1.9-3.3,4.2-4.2,6.8l4.6,1.2c0.6-1.8,1.6-3.4,2.9-4.7
		c2.2-2.2,5.3-3.6,8.7-3.6c3.4,0,6.5,1.4,8.7,3.6l0,0.1C65.7,45.3,66.6,46.8,67.3,48.6z M73.5,46.9l10-2.7c0.5-0.1,0.9,0.1,1.1,0.6
		c0.1,0.5-0.2,1-0.6,1.1l-10,2.7c0.3,1.3,0.4,2.6,0.4,4c0,5.2-2.1,9.9-5.5,13.3c-3.4,3.4-8.1,5.5-13.3,5.5c-5.2,0-9.9-2.1-13.3-5.5
		c-3.4-3.4-5.5-8.1-5.5-13.3c0-1.4,0.1-2.7,0.4-4l-10-2.7c-0.5-0.1-0.7-0.6-0.6-1.1c0.1-0.5,0.6-0.7,1.1-0.6l10,2.7
		c0.9-2.9,2.5-5.5,4.6-7.6c3.4-3.4,8.1-5.5,13.3-5.5c5.2,0,9.9,2.1,13.3,5.5l0.1,0.1C71,41.5,72.6,44.1,73.5,46.9z M72.3,49.1
		l-4.6,1.2c0.1,0.8,0.2,1.5,0.2,2.3c0,3.4-1.4,6.5-3.6,8.7c-2.2,2.2-5.3,3.6-8.7,3.6c-3.4,0-6.5-1.4-8.7-3.6
		c-2.2-2.2-3.6-5.3-3.6-8.7c0-0.8,0.1-1.6,0.2-2.3L39,49.1c-0.2,1.1-0.4,2.3-0.4,3.5c0,4.7,1.9,8.9,5,12c3.1,3.1,7.3,5,12,5
		c4.7,0,8.9-1.9,12-5c3.1-3.1,5-7.3,5-12C72.6,51.4,72.5,50.2,72.3,49.1z M66,50.7l-10.1,2.7h0l0,0l0,0h0l0,0h0h0h0l0,0h0h0h0l0,0h0
		h0h0h0h0h0h0h0h0h0h0h0h0h0h0h0h0h0h0l0,0h0h0h0l0,0h0l0,0l0,0l0,0h0l-10.1-2.7c-0.1,0.6-0.2,1.2-0.2,1.9c0,2.9,1.2,5.5,3.1,7.4
		c1.9,1.9,4.5,3.1,7.4,3.1c2.9,0,5.5-1.2,7.4-3.1c1.9-1.9,3.1-4.5,3.1-7.4C66.2,52,66.1,51.4,66,50.7z M97.4,29.5l0,24.9h10.7V39.8
		v-1.2v0V27.7H97.4V29.5z M109.9,44.4h5.2v-6.7h-5.2V44.4z M4.7,51.7L4.7,51.7v-4.9v0v-4.2h-4V56h4V51.7z M6.5,53h7.3v-7.4H6.5V53z
		 M116.9,47.7l5.9,0V34.3h-5.9v9.1v0V47.7z"/>
	<g>
		<defs>
			<rect id="SVGID_00000177484006848642629050000017291910874181715127_" x="10.2" y="91.4" width="71.5" height="2.5"/>
		</defs>
		<clipPath id="SVGID_00000178196730609125594380000017507932111537090459_">
			<use xlink:href="#SVGID_00000177484006848642629050000017291910874181715127_"  style="overflow:visible;"/>
		</clipPath>
		
			<linearGradient id="SVGID_00000088124894995706462630000016461739564598691978_" gradientUnits="userSpaceOnUse" x1="-168.4019" y1="219.9239" x2="-164.9418" y2="219.9239" gradientTransform="matrix(21.0899 0 0 21.0899 3561.0007 -4545.5049)">
			<stop  offset="0" style="stop-color:#EE6F25"/>
			<stop  offset="1.187850e-02" style="stop-color:#EE6F25"/>
			<stop  offset="0.4238" style="stop-color:#CF502D"/>
			<stop  offset="0.9781" style="stop-color:#B12B30"/>
			<stop  offset="1" style="stop-color:#B12B30"/>
		</linearGradient>
		
			<rect x="10.2" y="91.4" style="clip-path:url(#SVGID_00000178196730609125594380000017507932111537090459_);fill:url(#SVGID_00000088124894995706462630000016461739564598691978_);" width="71.5" height="2.5"/>
	</g>
	<rect x="10.2" y="91.4" class="st2" width="71.5" height="2.5"/>
	<g>
		<defs>
			<rect id="SVGID_00000015346695987042985180000006268696130392875433_" x="45.9" y="96.1" width="49.8" height="2.5"/>
		</defs>
		<clipPath id="SVGID_00000016033210853587282290000006563140070813750912_">
			<use xlink:href="#SVGID_00000015346695987042985180000006268696130392875433_"  style="overflow:visible;"/>
		</clipPath>
		
			<linearGradient id="SVGID_00000152971606398012193020000012759776419501806259_" gradientUnits="userSpaceOnUse" x1="-166.2285" y1="221.388" x2="-162.7685" y2="221.388" gradientTransform="matrix(14.8119 0 0 14.8119 2507.3535 -3181.8433)">
			<stop  offset="0" style="stop-color:#EE6F25"/>
			<stop  offset="1.187850e-02" style="stop-color:#EE6F25"/>
			<stop  offset="0.4238" style="stop-color:#CF502D"/>
			<stop  offset="0.9781" style="stop-color:#B12B30"/>
			<stop  offset="1" style="stop-color:#B12B30"/>
		</linearGradient>
		
			<rect x="45.9" y="96.1" style="clip-path:url(#SVGID_00000016033210853587282290000006563140070813750912_);fill:url(#SVGID_00000152971606398012193020000012759776419501806259_);" width="49.8" height="2.5"/>
	</g>
	<rect x="45.9" y="96.1" class="st2" width="49.8" height="2.5"/>
	<g>
		<defs>
			<rect id="SVGID_00000041995486486437075130000007928471395137845383_" x="6.9" y="96.1" width="36.4" height="2.5"/>
		</defs>
		<clipPath id="SVGID_00000025418144170330283440000001461789628592746685_">
			<use xlink:href="#SVGID_00000041995486486437075130000007928471395137845383_"  style="overflow:visible;"/>
		</clipPath>
		
			<linearGradient id="SVGID_00000037677672576266789320000001761325229657442443_" gradientUnits="userSpaceOnUse" x1="-167.6126" y1="222.9447" x2="-164.1526" y2="222.9447" gradientTransform="matrix(10.9331 0 0 10.9331 1838.6913 -2340.1372)">
			<stop  offset="0" style="stop-color:#EE6F25"/>
			<stop  offset="1.187850e-02" style="stop-color:#EE6F25"/>
			<stop  offset="0.4238" style="stop-color:#CF502D"/>
			<stop  offset="0.9781" style="stop-color:#B12B30"/>
			<stop  offset="1" style="stop-color:#B12B30"/>
		</linearGradient>
		
			<rect x="6.9" y="96.1" style="clip-path:url(#SVGID_00000025418144170330283440000001461789628592746685_);fill:url(#SVGID_00000037677672576266789320000001761325229657442443_);" width="36.4" height="2.5"/>
	</g>
	<rect x="6.9" y="96.1" class="st2" width="36.4" height="2.5"/>
	<g>
		<defs>
			<rect id="SVGID_00000173843995173672347330000017870215544646326400_" x="96.3" y="96.1" width="15.8" height="2.5"/>
		</defs>
		<clipPath id="SVGID_00000016797386018629042200000000877341681270680494_">
			<use xlink:href="#SVGID_00000173843995173672347330000017870215544646326400_"  style="overflow:visible;"/>
		</clipPath>
		
			<linearGradient id="SVGID_00000053510088951585247660000010833587258014613407_" gradientUnits="userSpaceOnUse" x1="-152.629" y1="230.0413" x2="-149.169" y2="230.0413" gradientTransform="matrix(4.9837 0 0 4.9837 856.2234 -1049.1147)">
			<stop  offset="0" style="stop-color:#EE6F25"/>
			<stop  offset="1.187850e-02" style="stop-color:#EE6F25"/>
			<stop  offset="0.4238" style="stop-color:#CF502D"/>
			<stop  offset="0.9781" style="stop-color:#B12B30"/>
			<stop  offset="1" style="stop-color:#B12B30"/>
		</linearGradient>
		
			<rect x="96.3" y="96.1" style="clip-path:url(#SVGID_00000016797386018629042200000000877341681270680494_);fill:url(#SVGID_00000053510088951585247660000010833587258014613407_);" width="15.8" height="2.5"/>
	</g>
	<rect x="96.3" y="96.1" class="st2" width="15.8" height="2.5"/>
</g>
</svg>
