<?xml version="1.0" encoding="utf-8"?>
<!-- Generator: Adobe Illustrator 27.8.1, SVG Export Plug-In . SVG Version: 6.00 Build 0)  -->
<svg version="1.1" id="Layer_1" xmlns="http://www.w3.org/2000/svg" xmlns:xlink="http://www.w3.org/1999/xlink" x="0px" y="0px"
	 viewBox="0 0 80.3 100" style="enable-background:new 0 0 80.3 100;" xml:space="preserve">
<style type="text/css">
	
		.st0{clip-path:url(#SVGID_00000089554341394349979440000001976058224997711513_);fill:url(#SVGID_00000147202631700903588020000002867455348506900621_);}
</style>
<g>
	<g>
		<defs>
			<path id="SVGID_1_" d="M46.3,42.7c-31.4,43.4,3.4,60.8,1.3,55.5c-4.3-11-1.7-22.7,8.8-28.2c5.5-2.9,22.9-5,22.4-9.6
				c-0.5-4.6-3.8-5.5-4.1-7.5c-0.3-1.8,5.8-3.6-1.5-6.2c5-2.3-0.1-3-1.1-8.5c9.5-11.2-2.6-0.5-10.3-17c2.9-2.9,3.6-7,3.6-7
				c-1.2,2.5-2.6,4.5-4.1,5.9C56.9,10,56.4,8.8,49.3,1v0C49.2,1,58.6,26.5,46.3,42.7 M27.7,92.2c3.7,2,8.5,3.9,14.4,5.7
				C-8.5,68,55.2,48.9,42.4,6.4c6.1,31.2-43.8,61.3-21.1,81.5c-37.3-27.4,19.4-46.7,7.2-87C35.7,37.7-35.2,73,27.7,92.2"/>
		</defs>
		<clipPath id="SVGID_00000092456438497978863940000012438387412022955156_">
			<use xlink:href="#SVGID_1_"  style="overflow:visible;"/>
		</clipPath>
		
			<linearGradient id="SVGID_00000085224144269584175980000013720218485476756374_" gradientUnits="userSpaceOnUse" x1="-198.3918" y1="221.4828" x2="-195.2825" y2="221.4828" gradientTransform="matrix(-24.9068 0 0 24.9068 -4862.4282 -5464.2212)">
			<stop  offset="0" style="stop-color:#EE6F25"/>
			<stop  offset="1.187850e-02" style="stop-color:#EE6F25"/>
			<stop  offset="0.4238" style="stop-color:#CF502D"/>
			<stop  offset="0.9781" style="stop-color:#B12B30"/>
			<stop  offset="1" style="stop-color:#B12B30"/>
		</linearGradient>
		
			<rect x="-35.2" y="0.8" style="clip-path:url(#SVGID_00000092456438497978863940000012438387412022955156_);fill:url(#SVGID_00000085224144269584175980000013720218485476756374_);" width="116.8" height="102.7"/>
	</g>
</g>
</svg>
