<?xml version="1.0" encoding="utf-8"?>
<!-- Generator: Adobe Illustrator 27.8.1, SVG Export Plug-In . SVG Version: 6.00 Build 0)  -->
<svg version="1.1" id="Layer_1" xmlns="http://www.w3.org/2000/svg" xmlns:xlink="http://www.w3.org/1999/xlink" x="0px" y="0px"
	 viewBox="0 0 285.7 301.9" style="enable-background:new 0 0 285.7 301.9;" xml:space="preserve">
<style type="text/css">
	.st0{fill:#B02A30;}
	.st1{fill:#F26522;}
	.st2{fill:none;}
</style>
<g>
	<path class="st0" d="M201.3,43.5c-5.7,1.2-8.4,4.4-8.2,9.8c-2.5-7.7,0-13,7.4-16c8-2,12.3-3.8,12.8-5.3c3.5,13-0.2,20.6-11,22.9
		c5.6-3.7,7.4-8.4,5.4-14C206.6,41.9,204.4,42.8,201.3,43.5"/>
	<path class="st0" d="M245.6,129.6c-5.8,0.1-9.1,2.8-9.8,8.2c-1-8,2.4-12.8,10.2-14.4c8.2-0.5,12.7-1.5,13.5-2.9
		c1.1,13.4-3.9,20.3-14.9,20.6c6.2-2.6,8.8-6.9,7.8-12.8C251.1,129.1,248.9,129.5,245.6,129.6"/>
	<path class="st0" d="M160.7,29.6c-5.3,2.4-7.2,6.2-5.8,11.4c-4.1-6.9-2.8-12.7,3.7-17.3c7.4-3.7,11.1-6.4,11.3-8
		c6.3,11.9,4.4,20.2-5.6,24.8c4.6-4.8,5.4-9.8,2.2-14.8C165.5,27,163.6,28.3,160.7,29.6"/>
	<path class="st0" d="M252.3,167.2c-5.8-0.6-9.4,1.6-10.8,6.8c0-8,4-12.4,12-12.9c8.2,0.6,12.8,0.2,13.8-1.1
		c-0.7,13.4-6.6,19.6-17.5,18.4c6.5-1.8,9.6-5.7,9.4-11.6C257.8,167.4,255.5,167.6,252.3,167.2"/>
	<path class="st1" d="M189.8,15.2c-6.3,1.7-9.1,5.5-8.5,11.5c-3.3-8.4-0.9-14.5,7.2-18.4c8.8-2.8,13.4-5.1,13.9-6.8
		c4.8,14.3,1.2,23.1-10.7,26.4c6-4.5,7.7-9.9,5-16C195.6,13.1,193.2,14.2,189.8,15.2"/>
	<path class="st1" d="M270.9,143.3c-4.9-0.6-8,1.4-9.3,5.8c0-6.9,3.5-10.6,10.3-11.1c7,0.5,11,0.2,11.8-0.9
		c-0.6,11.5-5.6,16.7-15,15.7c5.5-1.5,8.2-4.9,8.1-9.9C275.6,143.4,273.6,143.6,270.9,143.3"/>
	<path class="st0" d="M15.1,245.3c17.9,17.4,43.9,21.5,50.4,22.3c0.6,0.1,1.1,0.1,1.3,0.1c0.1,0,0.2,0,0.2,0
		c-0.1-0.1-0.2-0.1-0.2-0.2c-3.4-2.1-33.4-24.9-32.3-48c0-17.3,8.1-32.7,26.3-56.8c12.3-16.4,3.1-32.3-9.7-37.6c0,0-14.8-4.8-23.4,8
		c-7.5,11.2-3.8,22.7-3.8,22.7s0,0,0-0.1c4.8-13,11.1-5.6,26.3-17.7c1.7-1,15.4,13-23.5,37.6C-2,198.3-5.5,225.3,15.1,245.3"/>
	<path class="st0" d="M50.3,122.9c-11.7-1.9-16.5,4.3-16.5,4.3s-3.2-17.4,5.1-19.9c5.2-1.6,1,5.6-2.1,11.3c5.1-6.9,14.2-16,17-12.2
		c3.9,5.3-8.8,7.1-13.8,13c1.9-0.9,9-3.7,11.7-3.1C59.7,117.8,59.3,124.3,50.3,122.9"/>
	<path class="st0" d="M182.6,267.8c-4.7,21.9-40.1,10.6-54.5-11.1c-17.3-26.1-53.8-26.3-65.2-25.6c-2.2,0.1-3.5,0.3-3.5,0.3
		c5.6-4.7,15.3-7.6,26.9-8.8h0c9.1-1,19.4-0.9,29.8,0.1c23.1,2.4,46.7,9.7,58.8,21.8c5.1,5.1,8.1,10.9,8.3,17.6
		C183.2,263.9,183.1,265.8,182.6,267.8"/>
	<path class="st0" d="M122.5,292.5c-0.5,1.4-1.2,2.8-2.3,4.2c-8.3,10.9-24.8-4.1-27-19.6c-3.2-22.3-31.1-31-31.1-31
		C80.1,241.1,130,271,122.5,292.5"/>
	<path class="st0" d="M83.2,285.4c-0.4,0.5-0.9,1-1.5,1.4c-4.8,3.2-9.4-5-8.2-11.6c1.8-9.4-8.3-16.7-8.3-16.7
		C73.2,258.9,89.2,277.8,83.2,285.4"/>
	<path class="st0" d="M250.7,229.9c-26.9,35.2-70.2-10.5-100.5-18.6c-56-15-91,4.9-92.2,5.6c0,0,0,0,0,0c7.7-8.7,35.8-50,105.8-52.9
		c36.1-1.5,63,9.8,77.9,24.4c3.5,3.5,6.4,7.1,8.6,10.8C256.8,210,257.2,221.4,250.7,229.9"/>
	<path class="st0" d="M180.7,145.7c-65,1.8-96.8,32.2-105.2,39.6c-0.3,0.3-0.6,0.5-0.8,0.7c-1.1,0.9-1.5,1.2-1.4,0.4
		C96.6,91.7,180.8,51.3,217.5,63.6c1.2,0.4,2.4,0.9,3.6,1.4c1,0.5,1.9,1,2.8,1.5c0.8,0.5,1.6,1.1,2.4,1.7c2.2,1.7,4.1,3.6,5.8,5.7
		C252.9,99.4,232.5,144.2,180.7,145.7"/>
	<path class="st0" d="M89.7,119.5c0,0-5.6-55.2,25.2-84.5c19.4-18.4,34.9-8.4,37.4,7.7C156.5,70.5,104.6,87.5,89.7,119.5"/>
	<path class="st1" d="M223.9,166.3c-6.5-2.3-9.9-9.4-7.6-16c2.3-6.5,9.4-9.9,16-7.6c6.5,2.3,9.9,9.4,7.6,16
		C237.5,165.1,230.4,168.6,223.9,166.3"/>
	<path class="st0" d="M214,264.2c-1.9,5.4-7.8,8.2-13.2,6.3c-5.4-1.9-8.2-7.8-6.3-13.2c0.8-2.2,2.2-4,4.1-5.2
		c2.6-1.7,5.9-2.2,9.1-1.1c2.5,0.9,4.4,2.6,5.6,4.7C214.6,258.2,215,261.3,214,264.2"/>
	<path class="st0" d="M177,52.6c-3.2-1.1-4.9-4.5-3.8-7.6c1.1-3.1,4.7-4.8,7.9-3.7c3.2,1.1,4.9,4.5,3.8,7.6
		C183.7,52.1,180.2,53.7,177,52.6"/>
	<path class="st1" d="M180.7,145.7c-65,1.8-96.8,32.2-105.2,39.6c-0.3,0.3-0.6,0.5-0.8,0.7c-1.1,0.9-1.5,1.2-1.4,0.4
		c43.5-59.6,91-63.2,130.8-74.5c21-6,28.5-24.2,27.8-38.1C252.9,99.4,232.5,144.2,180.7,145.7"/>
	<path class="st1" d="M250.7,229.9c-26.9,35.2-70.2-10.5-100.5-18.6c-56-15-91,4.9-92.2,5.6c70.5-46.5,137.1-0.2,170-1.4
		c20.7-0.7,23.3-9.8,22.3-16.4C256.8,210,257.2,221.4,250.7,229.9"/>
	<path class="st1" d="M182.6,267.8c-4.7,21.9-40.1,10.6-54.5-11.1c-17.3-26.1-53.8-26.3-65.2-25.6c-2.2,0.1-3.5,0.3-3.5,0.3
		c57.6-15.4,84.7,25.3,106,32.8c10,3.5,15,1.6,17.8-2.1C183.2,263.9,183.1,265.8,182.6,267.8"/>
	<path class="st1" d="M55.5,180.3c0,1.8-0.7,2.9-2.3,3.2c2.3,0.2,3.7-0.9,4.1-3.4c0.1-2.6,0.3-4,0.7-4.3c-3.9-0.2-5.9,1.4-5.9,4.9
		c0.7-2,1.9-2.8,3.7-2.6C55.6,178.5,55.5,179.2,55.5,180.3"/>
	<path class="st1" d="M49.3,192.4c0.4,2.1-0.3,3.4-2,4c2.7-0.2,4-1.7,4-4.6c-0.4-2.9-0.4-4.6,0-5c-4.5,0.5-6.3,2.7-5.6,6.7
		c0.4-2.4,1.6-3.6,3.6-3.6C49.1,190.4,49.1,191.3,49.3,192.4"/>
	<path class="st1" d="M44.1,205.8c0.8,2.1,0.4,3.7-1.2,4.7c2.8-0.8,3.9-2.7,3.3-5.7c-1.1-3.1-1.4-4.8-1.1-5.3
		c-4.7,1.5-6.2,4.3-4.6,8.3c-0.1-2.6,1-4.1,3.1-4.6C43.4,203.7,43.6,204.6,44.1,205.8"/>
	<path class="st1" d="M42.6,221.6c1.5,2.3,1.4,4.3-0.3,6c3.2-1.6,4-4.2,2.5-7.7c-2.1-3.4-2.9-5.4-2.6-6.1c-5.2,3-6.4,6.7-3.5,11.1
		c-0.7-3.1,0.1-5.2,2.6-6.3C41.3,219.3,41.7,220.3,42.6,221.6"/>
	<path class="st0" d="M226.4,254.2c-3.4-3.4-6.9-3.8-10.5-1.2c4.2-5.2,9-5.9,14.5-2.2c5.1,4.6,8.2,6.7,9.5,6.4
		c-7.4,8.4-14.3,9.3-20.9,2.9c5.1,2.2,9.2,1.3,12.1-2.7C229.9,257.2,228.3,256.1,226.4,254.2"/>
	<path class="st0" d="M200.1,281.1c-2.9-3.8-6.4-4.7-10.3-2.6c4.8-4.6,9.7-4.7,14.6-0.3c4.4,5.2,7.3,7.8,8.6,7.6
		c-8.4,7.3-15.4,7.4-21.1,0.2c4.8,2.8,8.9,2.5,12.4-1.1C203.1,284.5,201.7,283.2,200.1,281.1"/>
	<path class="st1" d="M224.2,276.6c-2.5-3.3-5.4-4-8.8-2.2c4.1-3.9,8.3-4,12.5-0.2c3.8,4.5,6.2,6.6,7.3,6.5
		c-7.2,6.3-13.2,6.3-18,0.1c4.1,2.4,7.6,2.1,10.6-0.9C226.8,279.5,225.6,278.4,224.2,276.6"/>
	<path class="st1" d="M36.1,141c1.3,0,2.3-1,2.3-2.3c0-1.3-1-2.3-2.3-2.3c-1.3,0-2.3,1-2.3,2.3C33.7,140,34.8,141,36.1,141"/>
	<rect x="2" y="1.5" class="st2" width="281.7" height="298.9"/>
</g>
</svg>
