<?xml version="1.0" encoding="utf-8"?>
<!-- Generator: Adobe Illustrator 27.8.1, SVG Export Plug-In . SVG Version: 6.00 Build 0)  -->
<svg version="1.1" id="Layer_1" xmlns="http://www.w3.org/2000/svg" xmlns:xlink="http://www.w3.org/1999/xlink" x="0px" y="0px"
	 viewBox="0 0 100 100" style="enable-background:new 0 0 100 100;" xml:space="preserve">
<style type="text/css">
	.st0{fill:#FBC7B8;}
	.st1{fill:none;}
</style>
<g>
	<path class="st0" d="M50,1.3c2.7,0,4.8,2.2,4.8,4.8c0,2.7-2.2,4.8-4.8,4.8s-4.8-2.2-4.8-4.8C45.1,3.5,47.3,1.3,50,1.3"/>
	<path class="st0" d="M17.8,13.1c2-1.7,5.1-1.4,6.8,0.6c1.7,2,1.4,5.1-0.6,6.8c-2,1.7-5.1,1.4-6.8-0.6
		C15.5,17.8,15.8,14.8,17.8,13.1"/>
	<path class="st0" d="M0.7,42.7c0.5-2.6,3-4.4,5.6-3.9c2.6,0.5,4.4,3,3.9,5.6c-0.5,2.6-3,4.4-5.6,3.9C2,47.8,0.3,45.3,0.7,42.7"/>
	<path class="st0" d="M8.5,69.8c2.3-1.3,5.3-0.5,6.6,1.8c1.3,2.3,0.5,5.3-1.8,6.6C11,79.5,8,78.7,6.7,76.4
		C5.4,74.1,6.1,71.1,8.5,69.8"/>
	<path class="st0" d="M30,92.2c0.9-2.5,3.7-3.8,6.2-2.9c2.5,0.9,3.8,3.7,2.9,6.2s-3.7,3.8-6.2,2.9C30.4,97.5,29.1,94.7,30,92.2"/>
	<path class="st0" d="M63.8,89.3c2.5-0.9,5.3,0.4,6.2,2.9c0.9,2.5-0.4,5.3-2.9,6.2c-2.5,0.9-5.3-0.4-6.2-2.9
		C60,93,61.3,90.2,63.8,89.3"/>
	<path class="st0" d="M85,71.6c1.3-2.3,4.3-3.1,6.6-1.8c2.3,1.3,3.1,4.3,1.8,6.6c-1.3,2.3-4.3,3.1-6.6,1.8
		C84.4,76.8,83.7,73.9,85,71.6"/>
	<path class="st0" d="M74.5,72.7c-1.9-0.5-4.4-1.6-7.4-3.3c0,0,0,0-0.1,0c0,0,0,0,0,0c-0.1,0-0.1,0-0.2-0.1c0,0-0.1,0-0.1,0
		c-0.1,0-0.1,0-0.2,0c0,0-0.1,0-0.1,0c-0.1,0-0.1,0-0.2,0c-0.1,0-0.1,0-0.1,0c-0.1,0-0.1,0-0.2,0c-0.1,0-0.1,0-0.2,0c0,0,0,0-0.1,0
		c0,0,0,0,0,0c0,0,0,0-0.1,0c0,0-0.1,0-0.1,0.1c0,0-0.1,0.1-0.1,0.1c0,0-0.1,0.1-0.1,0.1c0,0-0.1,0.1-0.1,0.1c0,0-0.1,0.1-0.1,0.1
		c0,0-0.1,0.1-0.1,0.1c0,0,0,0,0,0c0,0,0,0,0,0c0,0,0,0,0,0.1c0,0.1-0.1,0.1-0.1,0.2c0,0,0,0.1,0,0.1c0,0.1,0,0.1,0,0.2
		c0,0,0,0.1,0,0.1c0,0.1,0,0.1,0,0.2c0,0,0,0.1,0,0.1c0,0.1,0,0.1,0,0.2c0,0,0,0.1,0,0.1c0,0,0,0,0,0.1c0,0,0,0,0,0
		c1.6,4.3,2.1,7.5,2,9.6c0,0.4,0,0.7-0.1,1l-3.5-9.5l-9.9,3.6l3.4,9.5c-0.5-0.5-1.2-1.2-1.8-2.1c-1.1-1.7-2.4-4.1-3.5-7.3
		c0,0,0,0,0-0.1c0,0,0,0,0,0c0-0.1-0.1-0.2-0.1-0.2c0,0,0,0,0,0c-0.2-0.3-0.5-0.5-0.8-0.6c0,0,0,0,0,0c-0.8-0.3-1.8,0.2-2,1
		c0,0,0,0,0,0c-1.5,4.3-3.2,7.1-4.6,8.7c-0.2,0.3-0.5,0.5-0.7,0.7l3.5-9.5l-9.9-3.6L33.3,82c-0.1-0.7-0.1-1.6,0-2.8
		c0.2-2,0.8-4.6,2-7.8c0,0,0,0,0-0.1c0,0,0,0,0,0c0-0.1,0-0.1,0-0.2c0-0.1,0-0.1,0-0.2c0,0,0,0,0,0c0-0.7-0.4-1.4-1.1-1.6
		c0,0,0,0,0,0c-0.5-0.2-1.1-0.1-1.5,0.3c-3.9,2.2-6.9,3.3-9,3.6c-0.4,0-0.7,0.1-1,0.1l8.7-5L26.2,59l-8.7,5c0.4-0.6,0.9-1.3,1.7-2.1
		c1.4-1.4,3.6-3,6.5-4.7c0,0,0,0,0.1,0c0.8-0.5,1-1.4,0.6-2.2c0,0,0,0,0,0c-0.2-0.3-0.5-0.5-0.8-0.7c0,0-0.1,0-0.1,0
		c-0.1,0-0.1,0-0.2,0c0,0-0.1,0-0.1,0c0,0,0,0,0,0c-4.5-0.8-7.6-1.9-9.4-3c-0.3-0.2-0.6-0.4-0.8-0.6l9.9,1.8l1.8-10.4l-9.9-1.8
		c0.7-0.2,1.6-0.4,2.7-0.5c2-0.2,4.7,0,8.1,0.6c0,0,0,0,0.1,0c0,0,0,0,0,0c0.1,0,0.2,0,0.3,0c0,0,0,0,0,0c0.1,0,0.2,0,0.3,0
		c0,0,0,0,0,0c0.1,0,0.2,0,0.2-0.1c0,0,0,0,0.1,0c0.1,0,0.1-0.1,0.2-0.1c0,0,0.1,0,0.1-0.1c0,0,0,0,0.1,0c0,0,0,0,0,0
		c0,0,0,0,0.1-0.1c0,0,0.1-0.1,0.1-0.1c0,0,0.1-0.1,0.1-0.1c0,0,0-0.1,0.1-0.1c0,0,0.1-0.1,0.1-0.1c0,0,0-0.1,0.1-0.1
		c0-0.1,0-0.1,0-0.2c0,0,0,0,0-0.1c0,0,0,0,0,0c0,0,0,0,0-0.1c0,0,0-0.1,0-0.1c0-0.1,0-0.1,0-0.2c0,0,0-0.1,0-0.1c0-0.1,0-0.1,0-0.2
		c0,0,0-0.1,0-0.1c0-0.1-0.1-0.1-0.1-0.2c0,0,0,0,0-0.1c0-0.1-0.1-0.1-0.1-0.2c0,0,0,0,0,0c0,0,0,0,0,0c-2.9-3.5-4.6-6.3-5.2-8.3
		c-0.1-0.3-0.2-0.7-0.2-0.9l6.5,7.7l8.1-6.8l-6.5-7.7c0.7,0.3,1.5,0.7,2.4,1.4c1.6,1.2,3.6,3,5.8,5.6c0,0,0,0,0.1,0.1c0,0,0,0,0,0
		c0,0,0.1,0.1,0.1,0.1c0.6,0.5,1.5,0.6,2.1,0c0,0,0,0,0,0c0.4-0.4,0.6-0.9,0.5-1.5c0-4.4,0.6-7.6,1.4-9.6c0.1-0.3,0.3-0.6,0.4-0.9
		V27h10.5V16.9c0.3,0.6,0.7,1.5,1,2.6c0.5,2,0.8,4.6,0.8,8c0,0,0,0,0,0.1c0,0.7,0.5,1.3,1.2,1.5c0,0,0,0,0,0c0,0,0.1,0,0.1,0
		c0.6,0.1,1.2-0.1,1.5-0.6c0,0,0,0,0,0c2.9-3.5,5.4-5.6,7.3-6.6c0.3-0.2,0.6-0.3,0.9-0.4l-6.5,7.7l8.1,6.8l6.5-7.7
		c-0.1,0.7-0.4,1.6-0.9,2.6c-0.9,1.8-2.3,4.1-4.5,6.7c0,0,0,0-0.1,0.1c0,0,0,0,0,0c0,0-0.1,0.1-0.1,0.1c0,0-0.1,0.1-0.1,0.1
		c0,0,0,0.1,0,0.1c0,0.1-0.1,0.1-0.1,0.2c0,0,0,0,0,0c0,0.1,0,0.2,0,0.3c0,0.5,0.2,1,0.6,1.3c0,0,0,0,0,0c0.4,0.3,0.9,0.4,1.3,0.3h0
		c0,0,0,0,0,0c4.5-0.8,7.8-0.8,9.8-0.3c0.3,0.1,0.7,0.2,0.9,0.3l-9.9,1.8L75,52.3l9.9-1.8c-0.6,0.4-1.3,0.9-2.4,1.4
		c-1.8,0.8-4.4,1.6-7.8,2.2c0,0,0,0-0.1,0c-0.9,0.2-1.4,1-1.3,1.9c0,0,0,0,0,0c0,0,0,0.1,0,0.1c0,0,0,0,0,0c0,0.1,0.1,0.2,0.1,0.2
		c0,0,0,0.1,0.1,0.1c0,0,0.1,0.1,0.1,0.1c0,0.1,0.1,0.1,0.1,0.2c0,0,0,0,0.1,0.1c0.1,0.1,0.1,0.1,0.2,0.2c0,0,0.1,0.1,0.1,0.1
		c0,0,0,0,0,0c3.9,2.3,6.5,4.4,7.8,6.1c0.2,0.3,0.4,0.5,0.6,0.8l-8.7-5l-5.3,9.1l8.7,5C76.5,73.2,75.6,73,74.5,72.7 M82.2,74
		l3.6-6.2c0,0,0-0.1,0.1-0.1c0-0.1,0.1-0.1,0.1-0.2l0,0c0,0,0,0,0,0c0.5-0.9,0.6-2,0.3-3c-0.4-1.7-1.5-3.3-3.2-4.9
		c-1-1-2.3-2.1-3.9-3.1c2.8-0.7,5-1.6,6.6-2.6c1.2-0.7,2.1-1.5,2.7-2.5c0.6-0.9,0.9-1.9,0.7-3c0,0,0,0,0,0l0,0c0-0.1,0-0.1,0-0.2
		c0,0,0-0.1,0-0.1L88,41c0,0,0-0.1,0-0.1c0-0.1,0-0.1,0-0.2l0,0c0,0,0,0,0,0c-0.2-1-0.9-1.9-1.7-2.5c-1.4-1-3.2-1.5-5.6-1.7
		c-1.4-0.1-3.1-0.1-4.9,0.1c1.7-2.4,2.8-4.4,3.4-6.3c0.4-1.3,0.6-2.5,0.5-3.7c-0.1-1-0.6-2-1.3-2.8c0,0,0,0,0,0l0,0
		c-0.1,0-0.1-0.1-0.2-0.1c0,0-0.1,0-0.1-0.1l-5.5-4.6c0,0,0,0-0.1-0.1c-0.1,0-0.1-0.1-0.2-0.1l0,0c0,0,0,0,0,0
		c-0.8-0.6-1.9-0.9-2.9-0.8c-1.7,0.1-3.5,0.9-5.4,2.3c-1.2,0.9-2.4,1.9-3.8,3.3c-0.2-2.9-0.7-5.2-1.5-7c-0.5-1.3-1.2-2.3-2-3.1
		c-0.8-0.7-1.8-1.2-2.8-1.3c0,0,0,0,0,0h0c-0.1,0-0.1,0-0.2,0c0,0-0.1,0-0.1,0h-7.1c0,0-0.1,0-0.1,0c-0.1,0-0.1,0-0.2,0h0
		c0,0,0,0,0,0c-1,0.1-2,0.5-2.8,1.3c-1.2,1.2-2.1,2.9-2.7,5.2c-0.4,1.4-0.6,3-0.8,4.9c-2-2-3.9-3.5-5.6-4.4c-1.2-0.6-2.4-1-3.5-1.1
		c-1-0.1-2.1,0.2-2.9,0.8c0,0,0,0,0,0l0,0c-0.1,0-0.1,0.1-0.2,0.1c0,0,0,0-0.1,0.1l-5.5,4.6c0,0-0.1,0-0.1,0.1
		c-0.1,0-0.1,0.1-0.2,0.1l0,0c0,0,0,0,0,0c-0.8,0.7-1.2,1.7-1.3,2.8c-0.2,1.7,0.3,3.6,1.3,5.7c0.6,1.3,1.5,2.7,2.5,4.2
		c-2.9-0.3-5.2-0.2-7.1,0.2c-1.4,0.3-2.5,0.7-3.4,1.4c-0.8,0.6-1.5,1.5-1.7,2.5c0,0,0,0,0,0l0,0c0,0.1,0,0.1,0,0.2c0,0,0,0.1,0,0.1
		l-1.2,7c0,0,0,0.1,0,0.1c0,0.1,0,0.1,0,0.2l0,0c0,0,0,0,0,0c-0.1,1,0.2,2.1,0.7,3c0.9,1.4,2.5,2.5,4.7,3.5c1.3,0.6,2.9,1.1,4.7,1.6
		c-2.4,1.6-4.1,3.2-5.3,4.8c-0.8,1.1-1.4,2.2-1.7,3.3c-0.2,1-0.2,2.1,0.3,3c0,0,0,0,0,0l0,0c0,0.1,0.1,0.1,0.1,0.2
		c0,0,0,0.1,0.1,0.1l3.6,6.2c0,0,0,0.1,0,0.1c0,0.1,0.1,0.1,0.1,0.2l0,0c0,0,0,0,0,0c0.6,0.9,1.5,1.5,2.5,1.8
		c1.6,0.5,3.6,0.3,5.9-0.3c1.4-0.4,2.9-1,4.6-1.8c-0.8,2.8-1.1,5.1-1,7c0.1,1.4,0.3,2.6,0.8,3.6c0.5,0.9,1.2,1.7,2.2,2.1
		c0,0,0,0,0,0l0,0c0.1,0,0.1,0.1,0.2,0.1c0,0,0.1,0,0.1,0l6.7,2.4c0,0,0.1,0,0.1,0c0.1,0,0.1,0,0.2,0.1l0,0c0,0,0,0,0,0
		c1,0.3,2.1,0.2,3-0.2c1.6-0.7,2.9-2,4.3-4c0.8-1.2,1.6-2.6,2.4-4.3c1.2,2.6,2.5,4.6,3.8,6.1c0.9,1,1.9,1.8,2.9,2.2
		c1,0.4,2.1,0.5,3,0.2c0,0,0,0,0,0l0,0c0.1,0,0.1,0,0.2-0.1c0,0,0.1,0,0.1,0l6.7-2.4c0,0,0.1,0,0.1,0c0.1,0,0.1-0.1,0.2-0.1l0,0
		c0,0,0,0,0,0c1-0.4,1.7-1.2,2.2-2.1c0.8-1.5,1-3.4,0.7-5.8c-0.1-1.4-0.5-3-0.9-4.8c2.6,1.2,4.9,2,6.8,2.2c1.4,0.2,2.6,0.2,3.7-0.2
		c1-0.3,1.9-0.9,2.5-1.8c0,0,0,0,0,0l0,0C82.1,74.3,82.1,74.2,82.2,74C82.2,74.1,82.2,74.1,82.2,74"/>
	<path class="st0" d="M93.7,38.7c2.6-0.5,5.1,1.3,5.6,3.9c0.5,2.6-1.3,5.1-3.9,5.6c-2.6,0.5-5.1-1.3-5.6-3.9
		C89.3,41.7,91.1,39.2,93.7,38.7"/>
	<path class="st0" d="M75.4,13.6c1.7-2,4.8-2.3,6.8-0.6c2,1.7,2.3,4.8,0.6,6.8c-1.7,2-4.8,2.3-6.8,0.6
		C73.9,18.7,73.7,15.7,75.4,13.6"/>
	<rect x="0.6" y="1.3" class="st1" width="98.7" height="97.4"/>
</g>
</svg>
