<?xml version="1.0" encoding="utf-8"?>
<!-- Generator: Adobe Illustrator 27.8.1, SVG Export Plug-In . SVG Version: 6.00 Build 0)  -->
<svg version="1.1" id="Isolation_Mode" xmlns="http://www.w3.org/2000/svg" xmlns:xlink="http://www.w3.org/1999/xlink" x="0px"
	 y="0px" viewBox="0 0 190 43.2" style="enable-background:new 0 0 190 43.2;" xml:space="preserve">
<style type="text/css">
	.st0{fill-rule:evenodd;clip-rule:evenodd;fill:#F58220;}
	.st1{fill:#FFFFFF;}
</style>
<g>
	<path class="st0" d="M94.6,9.3h5.4l1.7-5.1h-5.4L94.6,9.3z M90.4,21.7l3.4-10.2h5.4l-4.7,14.1h-5.4L90.4,21.7z M90.4,16.9l1.3-3.8
		c0.1-0.7-0.4-1.4-1.1-1.6H79.9l-3.2,10l-1.3,4h5.4l3.4-10.1c0.3-0.9,1.8-0.9,1.5,0l-3.4,10.2h5.4L90.4,16.9z M76.6,17.7l1.3-4.2
		c0.2-0.9-0.4-1.8-1.3-2.1H66.6c-0.6,0.1-1.2,0.5-1.4,1.1l-2.4,7.3l-1.3,3.8c-0.2,0.7,0.2,1.9,1,2h11.7l0.7-2.2
		c0.1-0.4-0.2-0.8-0.7-0.9h-6.3l0.5-1.2h2.2h3.7c0.6,0,1.4-0.2,1.6-0.8L76.6,17.7z M70.5,17.5c0.3-0.3,0.6-0.8,0.7-1.2
		c0.2-0.8,0.1-1.4-0.3-1.4c-0.2,0-0.3,0.1-0.4,0.2c-0.3,0.3-0.6,0.8-0.7,1.2c-0.2,0.8-0.1,1.4,0.3,1.4
		C70.3,17.7,70.4,17.6,70.5,17.5z M62.8,13.8l1.3-2.4h-5.4l-4.9,8.9l-0.7-8.9h-5.4l1.2,14.1h7.4L62.8,13.8z M38.1,21.3l3.3-9.9h5.4
		l-4.7,14.1h-5.4L38.1,21.3z M38.1,16.9l1.4-4.1c0.1-0.6-0.3-1.2-0.9-1.4H27.5L23.7,23l-0.8,2.5h5.4l3.4-10.2h1.6L32.1,19
		c0.6,1.7,6.4,0.2,5.3,0.2L38.1,16.9z M38.1-0.1H42l-3.1,9.2H24.7l-1-1.3l-2.3-3.3l2.4-2.2L26.1,0L38.1-0.1z M42.1,9.2h5.4l1.7-5.1
		h-5.3L42.1,9.2z M23.7,13l0.8-2.5l-0.8-1l-3.2-4.2l-6.4,4.3L11.8,17L3.6,43h10.4L23.7,13z M11.7,0h4.8l3.3,4.7l-6.7,4.5H0l3-9.1
		H11.7z"/>
	<path class="st1" d="M17.4,43l2.4-7.5h5.4l-0.3,0.9h-4.4l-0.7,2.3h4.1l-0.3,0.9h-4.1l-0.8,2.5h4.6L22.9,43L17.4,43z M24.3,43
		l2.4-7.5h1l2,5.9l1.9-5.9h1L30.2,43h-1l-2-5.9l-2,5.9H24.3z M36.3,40.1l0.3-0.9h3.2l-0.9,2.8c-0.6,0.4-1.2,0.7-1.8,0.9
		c-0.5,0.2-1.1,0.3-1.7,0.3c-0.6,0-1.3-0.1-1.8-0.5c-0.5-0.3-0.8-0.8-0.9-1.4c-0.1-0.7,0-1.4,0.2-2c0.2-0.7,0.6-1.4,1.1-2
		c0.5-0.6,1.1-1.1,1.8-1.4c0.7-0.3,1.4-0.5,2.1-0.5c0.5,0,0.9,0.1,1.4,0.3c0.3,0.1,0.6,0.4,0.8,0.7c0.2,0.4,0.2,0.8,0.2,1.2l-1,0.2
		c0-0.3,0-0.6-0.1-0.9c-0.1-0.2-0.3-0.4-0.5-0.5c-0.3-0.1-0.7-0.2-1-0.2c-0.4,0-0.8,0.1-1.2,0.2c-0.4,0.1-0.7,0.3-1,0.5
		c-0.3,0.2-0.5,0.5-0.7,0.7c-0.3,0.5-0.6,1-0.8,1.5c-0.2,0.5-0.3,1.1-0.2,1.7c0.1,0.4,0.3,0.8,0.7,1c0.4,0.2,0.8,0.3,1.3,0.3
		c0.5,0,1-0.1,1.4-0.3c0.4-0.1,0.8-0.3,1.1-0.5l0.5-1.4L36.3,40.1z M40.2,43l2.4-7.5h1L41.1,43H40.2z M42.9,43l2.4-7.5h1l2,5.9
		l1.9-5.9h1L48.8,43h-1l-2-5.9L43.8,43H42.9z M50.5,43l2.4-7.5h5.4L58,36.4h-4.4l-0.7,2.3H57l-0.3,0.9h-4.2l-0.8,2.5h4.6L56,43H50.5
		z M57.5,43l2.4-7.5h5.4L65,36.4h-4.5l-0.8,2.3H64l-0.3,0.9h-4.2l-0.8,2.5h4.6L63,43H57.5z M64.5,43l2.4-7.5h3.3c0.5,0,1,0,1.4,0.2
		c0.3,0.1,0.5,0.4,0.6,0.7c0.1,0.4,0.1,0.8-0.1,1.1c-0.2,0.5-0.5,1-0.9,1.3c-0.5,0.4-1.2,0.6-1.8,0.7c0.2,0.1,0.3,0.2,0.5,0.4
		c0.2,0.3,0.4,0.6,0.5,1l0.6,2h-1.3l-0.5-1.5c-0.1-0.3-0.2-0.7-0.4-1c-0.1-0.2-0.2-0.4-0.3-0.5c-0.1-0.1-0.2-0.2-0.4-0.2
		c-0.2,0-0.4,0-0.5,0h-1.2L65.4,43H64.5z M66.8,38.8h2.1c0.4,0,0.7-0.1,1.1-0.2c0.3-0.1,0.5-0.2,0.7-0.5c0.2-0.2,0.3-0.4,0.4-0.7
		c0.1-0.3,0.1-0.6-0.1-0.9c-0.3-0.3-0.7-0.4-1.1-0.3h-2.4L66.8,38.8z M72.1,43l2.4-7.5h1L73.1,43H72.1z M74.8,43l2.4-7.5h1l2,5.9
		l1.9-5.9h1L80.7,43h-1l-2-5.9L75.8,43H74.8z M86.8,40.1l0.3-0.9h3.2l-0.9,2.8c-0.6,0.4-1.2,0.7-1.8,0.9c-0.5,0.2-1.1,0.3-1.7,0.3
		c-0.6,0-1.3-0.1-1.8-0.5c-0.5-0.3-0.8-0.8-0.9-1.4c-0.1-0.7,0-1.4,0.2-2c0.2-0.7,0.6-1.4,1.1-2c0.5-0.6,1.1-1.1,1.8-1.4
		c0.7-0.3,1.4-0.5,2.1-0.5c0.5,0,0.9,0.1,1.4,0.3c0.3,0.1,0.6,0.4,0.8,0.7c0.2,0.4,0.2,0.8,0.2,1.2l-1,0.2c0-0.3,0-0.6-0.1-0.9
		c-0.1-0.2-0.3-0.4-0.5-0.5c-0.3-0.1-0.7-0.2-1-0.2c-0.4,0-0.8,0.1-1.2,0.2c-0.4,0.1-0.7,0.3-1,0.5c-0.3,0.2-0.5,0.5-0.7,0.7
		c-0.3,0.5-0.6,1-0.8,1.5c-0.2,0.5-0.3,1.1-0.2,1.7c0.1,0.4,0.3,0.8,0.7,1c0.4,0.2,0.8,0.3,1.3,0.3c0.5,0,1-0.1,1.4-0.3
		c0.4-0.1,0.8-0.3,1.1-0.5L89,40L86.8,40.1z M97.8,42.1c-0.4,0.3-0.8,0.6-1.2,0.8c-0.4,0.2-0.8,0.2-1.2,0.2
		c-0.6,0.1-1.2-0.2-1.6-0.8c-0.2-0.4-0.3-1-0.1-1.4c0.2-0.5,0.5-0.9,0.8-1.2c0.5-0.4,1-0.8,1.7-1c-0.2-0.3-0.3-0.6-0.4-0.9
		c0-0.2,0-0.5,0.1-0.7c0.2-0.5,0.5-0.9,0.9-1.2c0.4-0.3,1-0.5,1.5-0.5c0.4,0,0.8,0.1,1.1,0.5c0.2,0.3,0.3,0.8,0.2,1.1
		c-0.4,0.9-1.1,1.5-2,1.8l0.8,1.7c0.3-0.3,0.5-0.6,0.7-1l0.9,0.2c-0.3,0.6-0.7,1.1-1.2,1.6c0.2,0.4,0.5,0.8,0.8,1.2l-0.8,0.7
		C98.3,42.9,98.1,42.5,97.8,42.1L97.8,42.1z M97.2,38.2c0.4-0.2,0.7-0.4,1-0.6c0.2-0.2,0.3-0.4,0.4-0.6c0.1-0.2,0.1-0.4,0-0.6
		c-0.1-0.2-0.3-0.3-0.5-0.2c-0.3,0-0.5,0.1-0.7,0.2c-0.2,0.1-0.4,0.3-0.4,0.6c0,0.1,0,0.2,0,0.4c0,0.1,0.1,0.3,0.1,0.4L97.2,38.2z
		 M97.5,41.4l-1-2.1c-0.5,0.2-0.9,0.5-1.3,0.8c-0.2,0.2-0.4,0.5-0.5,0.8c-0.1,0.3-0.1,0.7,0.1,1c0.2,0.3,0.5,0.5,0.9,0.5
		c0.3,0,0.7-0.2,1-0.4C97,41.8,97.3,41.6,97.5,41.4L97.5,41.4z M103.5,43l2.4-7.5h1l-2.4,7.5H103.5z M106.2,43l2.4-7.5h1l2,5.9
		l1.9-5.9h1l-2.4,7.5h-1l-2-5.9l-1.9,5.9H106.2z M113.8,43l2.4-7.5h2.6c0.4,0,0.9,0,1.3,0.1c0.4,0.1,0.7,0.3,0.9,0.5
		c0.3,0.4,0.5,0.8,0.5,1.3c0,0.6-0.1,1.2-0.3,1.8c-0.2,0.5-0.4,1-0.7,1.5c-0.2,0.4-0.5,0.8-0.9,1.1c-0.3,0.3-0.6,0.5-0.9,0.7
		c-0.3,0.2-0.7,0.3-1,0.4c-0.4,0.1-0.8,0.1-1.2,0.1L113.8,43z M115,42.1h1.6c0.4,0,0.8,0,1.2-0.1c0.3-0.1,0.6-0.2,0.8-0.4
		c0.3-0.3,0.6-0.6,0.8-0.9c0.3-0.5,0.5-0.9,0.7-1.5c0.2-0.6,0.3-1.2,0.2-1.8c-0.1-0.4-0.3-0.7-0.7-0.8c-0.4-0.1-0.8-0.2-1.2-0.2
		h-1.6L115,42.1z M128.6,35.5h1l-1.4,4.3c-0.2,0.6-0.5,1.2-0.8,1.8c-0.3,0.5-0.8,0.8-1.3,1.1c-0.6,0.3-1.2,0.4-1.9,0.4
		c-0.6,0-1.1-0.1-1.6-0.4c-0.3-0.2-0.6-0.6-0.6-1c0-0.6,0.1-1.3,0.3-1.9l1.4-4.3h1l-1.4,4.3c-0.2,0.5-0.3,0.9-0.3,1.4
		c0,0.3,0.2,0.6,0.4,0.7c0.3,0.2,0.6,0.3,1,0.2c0.6,0,1.2-0.1,1.7-0.5c0.5-0.5,0.9-1.2,1.1-1.9L128.6,35.5z M129.3,40.6l1-0.1
		c-0.1,0.3-0.1,0.6,0,0.9c0.1,0.3,0.3,0.5,0.6,0.6c0.3,0.2,0.7,0.2,1.1,0.2c0.4,0,0.7-0.1,1.1-0.2c0.3-0.1,0.6-0.2,0.8-0.5
		c0.2-0.2,0.3-0.4,0.4-0.6c0.1-0.2,0.1-0.4,0-0.6c-0.1-0.2-0.3-0.4-0.5-0.4c-0.4-0.2-0.8-0.3-1.2-0.4c-0.4-0.1-0.9-0.3-1.3-0.5
		c-0.3-0.2-0.5-0.4-0.6-0.7c-0.1-0.3-0.1-0.6,0-0.9c0.1-0.4,0.4-0.8,0.7-1.1c0.3-0.3,0.7-0.6,1.2-0.7c0.5-0.2,1-0.3,1.4-0.3
		c0.5,0,1,0.1,1.4,0.3c0.3,0.2,0.6,0.4,0.7,0.8c0.1,0.4,0.1,0.8,0,1.2l-1,0.1c0.1-0.4,0.1-0.8-0.2-1.1c-0.3-0.3-0.8-0.4-1.2-0.4
		c-0.5,0-1,0.1-1.4,0.3c-0.3,0.2-0.5,0.5-0.7,0.8c-0.1,0.2-0.1,0.5,0.1,0.7c0.4,0.3,0.8,0.5,1.3,0.5c0.5,0.1,1,0.3,1.5,0.5
		c0.3,0.2,0.6,0.4,0.7,0.8c0.1,0.3,0.1,0.7,0,1.1c-0.1,0.4-0.4,0.8-0.7,1.1c-0.4,0.4-0.8,0.6-1.2,0.8c-0.5,0.2-1,0.3-1.5,0.3
		c-0.5,0-1.1-0.1-1.6-0.3c-0.4-0.2-0.7-0.5-0.8-0.9C129.1,41.5,129.2,41,129.3,40.6L129.3,40.6z M137.7,43l2.1-6.6h-2.4l0.3-0.9h5.9
		l-0.3,0.9h-2.5l-2.1,6.6L137.7,43z M142.2,43l2.4-7.5h3.4c0.5,0,1,0,1.5,0.2c0.3,0.1,0.5,0.4,0.6,0.7c0.1,0.4,0.1,0.8,0,1.1
		c-0.2,0.5-0.5,1-1,1.3c-0.5,0.4-1.2,0.6-1.8,0.7c0.2,0.1,0.3,0.2,0.5,0.4c0.2,0.3,0.4,0.6,0.5,1l0.6,2h-1.2l-0.5-1.5
		c-0.1-0.3-0.2-0.7-0.4-1c-0.1-0.2-0.2-0.4-0.3-0.5c-0.1-0.1-0.2-0.2-0.4-0.2c-0.2,0-0.4,0-0.5,0h-1.1l-1.1,3.3L142.2,43z
		 M144.6,38.8h2.1c0.4,0,0.7,0,1.1-0.1c0.3-0.1,0.5-0.2,0.7-0.5c0.2-0.2,0.3-0.4,0.4-0.7c0.1-0.3,0.1-0.6-0.1-0.9
		c-0.3-0.3-0.7-0.4-1.1-0.3h-2.4L144.6,38.8z M149.9,43l2.4-7.5h1l-2.4,7.5H149.9z M152.7,43l2.4-7.5h5.4l-0.3,0.9h-4.4l-0.7,2.3
		h4.1l-0.3,0.9h-4.1l-0.8,2.5h4.6l-0.3,0.9L152.7,43z M160.1,40.6l1-0.1c-0.1,0.3-0.1,0.6,0,0.9c0.1,0.3,0.3,0.5,0.6,0.6
		c0.3,0.2,0.7,0.2,1.1,0.2c0.4,0,0.7-0.1,1.1-0.2c0.3-0.1,0.6-0.2,0.8-0.5c0.2-0.2,0.3-0.4,0.4-0.6c0.1-0.2,0.1-0.4,0-0.6
		c-0.1-0.2-0.3-0.4-0.5-0.4c-0.4-0.2-0.8-0.3-1.2-0.4c-0.4-0.1-0.9-0.3-1.3-0.5c-0.3-0.2-0.5-0.4-0.6-0.7c-0.1-0.3-0.1-0.6,0-0.9
		c0.1-0.4,0.4-0.8,0.7-1.1c0.3-0.3,0.7-0.6,1.2-0.7c0.5-0.2,1-0.3,1.5-0.3c0.5,0,0.9,0.1,1.4,0.3c0.3,0.1,0.6,0.4,0.7,0.8
		c0.1,0.4,0.1,0.8,0,1.2l-1,0.1c0.1-0.4,0.1-0.8-0.2-1.1c-0.3-0.3-0.8-0.4-1.2-0.4c-0.5,0-1,0.1-1.4,0.3c-0.3,0.2-0.5,0.5-0.7,0.8
		c-0.1,0.2-0.1,0.5,0.1,0.7c0.4,0.3,0.8,0.5,1.3,0.5c0.5,0.1,1,0.3,1.5,0.5c0.3,0.2,0.6,0.4,0.7,0.8c0.1,0.3,0.1,0.7,0,1.1
		c-0.1,0.4-0.4,0.8-0.7,1.1c-0.4,0.4-0.8,0.6-1.2,0.8c-0.5,0.2-1,0.3-1.5,0.3c-0.6,0-1.1-0.1-1.6-0.3c-0.4-0.2-0.7-0.5-0.8-0.9
		C159.9,41.5,159.9,41,160.1,40.6L160.1,40.6z M169.5,43l2.4-7.5h1l-2.1,6.6h3.7l-0.3,0.9H169.5z M176.5,43l2.1-6.6h-2.5l0.3-0.9
		h5.9l-0.3,0.9h-2.5l-2.1,6.6H176.5z M181,43l2.4-7.5h2.6c0.4,0,0.9,0,1.3,0.1c0.4,0.1,0.7,0.3,0.9,0.5c0.3,0.4,0.5,0.8,0.5,1.3
		c0,0.6-0.1,1.2-0.3,1.8c-0.2,0.5-0.4,1-0.7,1.5c-0.2,0.4-0.5,0.8-0.9,1.1c-0.3,0.3-0.6,0.5-0.9,0.7c-0.3,0.2-0.7,0.3-1,0.4
		c-0.4,0.1-0.8,0.1-1.2,0.1L181,43z M182.2,42.1h1.6c0.4,0,0.8,0,1.2-0.1c0.3-0.1,0.6-0.2,0.8-0.4c0.3-0.3,0.6-0.6,0.9-0.9
		c0.3-0.5,0.5-0.9,0.7-1.5c0.2-0.6,0.3-1.2,0.2-1.8c-0.1-0.4-0.3-0.7-0.7-0.8c-0.4-0.1-0.8-0.2-1.2-0.2h-1.6L182.2,42.1z M188.6,43
		l0.3-1h1l-0.3,1H188.6z"/>
</g>
</svg>
